<?xml version="1.0" standalone="no"?>
 <!DOCTYPE svg PUBLIC "-//W3C//DTD SVG 1.1//EN" 
 "http://www.w3.org/Graphics/SVG/1.1/DTD/svg11.dtd"> 
<svg
  xmlns:svg="http://www.w3.org/2000/svg"
  xmlns="http://www.w3.org/2000/svg"
  xmlns:xlink="http://www.w3.org/1999/xlink"
  version="1.1"
  width="297.0022mm" height="210.0072mm" viewBox="0.0000 0.0000 297.0022 210.0072">
<title>SVG Image created as trinamic-wiring-TMC51X0-tmc51x0-spi.svg date 2024/08/01 14:17:40 </title>
  <desc>Image generated by Eeschema-SVG </desc>
<g style="fill:#000000; fill-opacity:1.0000;stroke:#000000; stroke-opacity:1.0000;
stroke-linecap:round; stroke-linejoin:round;"
 transform="translate(0 0) scale(1 1)">
</g>
<g style="fill:#000000; fill-opacity:0.0; 
stroke:#000000; stroke-width:0.1524; stroke-opacity:1; 
stroke-linecap:round; stroke-linejoin:round;">
</g>
<g style="fill:#FFFFFF; fill-opacity:0.0; 
stroke:#FFFFFF; stroke-width:0.1524; stroke-opacity:1; 
stroke-linecap:round; stroke-linejoin:round;">
</g>
<g style="fill:#FFFFFF; fill-opacity:0.0000; 
stroke:#FFFFFF; stroke-width:0.0001; stroke-opacity:1; 
stroke-linecap:round; stroke-linejoin:round;">
<rect x="153.670000" y="72.390000" width="12.700000" height="5.080000" rx="0.000000" />
</g>
<g style="fill:#FFFFFF; fill-opacity:0.0000; 
stroke:#FFFFFF; stroke-width:0.1524; stroke-opacity:1; 
stroke-linecap:round; stroke-linejoin:round;">
</g>
<g style="fill:#FFFFFF; fill-opacity:0.0000; 
stroke:#FFFFFF; stroke-width:0.0001; stroke-opacity:1; 
stroke-linecap:round; stroke-linejoin:round;">
<rect x="102.870000" y="72.390000" width="12.700000" height="5.080000" rx="0.000000" />
</g>
<g style="fill:#FFFFFF; fill-opacity:0.0000; 
stroke:#FFFFFF; stroke-width:0.1524; stroke-opacity:1; 
stroke-linecap:round; stroke-linejoin:round;">
</g>
<g style="fill:#586E75; fill-opacity:1.0000; 
stroke:#586E75; stroke-width:0.1524; stroke-opacity:1; 
stroke-linecap:round; stroke-linejoin:round;">
</g>
<g style="fill:#586E75; fill-opacity:0.0; 
stroke:#586E75; stroke-width:0.4000; stroke-opacity:1; 
stroke-linecap:round; stroke-linejoin:round;">
<rect x="153.670000" y="72.390000" width="12.700000" height="5.080000" rx="0.000000" />
</g>
<g style="fill:#268BD2; fill-opacity:0.0; 
stroke:#268BD2; stroke-width:0.4000; stroke-opacity:1; 
stroke-linecap:round; stroke-linejoin:round;">
</g>
<g style="fill:#268BD2; fill-opacity:0.0; 
stroke:#268BD2; stroke-width:0.3175; stroke-opacity:1; 
stroke-linecap:round; stroke-linejoin:round;">
<text x="153.6700" y="71.6784"
textLength="14.3056" font-size="1.6933" lengthAdjust="spacingAndGlyphs"
text-anchor="start" opacity="0">tmc51x0-eval</text>
<g class="stroked-text"><desc>tmc51x0-eval</desc>
<path d="M153.9997 70.6597
L154.4835 70.6597
" />
<path d="M154.1811 70.2363
L154.1811 71.3249
" />
<path d="M154.1811 71.3249
L154.2416 71.4459
" />
<path d="M154.2416 71.4459
L154.3626 71.5063
" />
<path d="M154.3626 71.5063
L154.4835 71.5063
" />
<path d="M154.9068 71.5063
L154.9068 70.6597
" />
<path d="M154.9068 70.7806
L154.9673 70.7201
" />
<path d="M154.9673 70.7201
L155.0883 70.6597
" />
<path d="M155.0883 70.6597
L155.2697 70.6597
" />
<path d="M155.2697 70.6597
L155.3906 70.7201
" />
<path d="M155.3906 70.7201
L155.4511 70.8411
" />
<path d="M155.4511 70.8411
L155.4511 71.5063
" />
<path d="M155.4511 70.8411
L155.5116 70.7201
" />
<path d="M155.5116 70.7201
L155.6325 70.6597
" />
<path d="M155.6325 70.6597
L155.8140 70.6597
" />
<path d="M155.8140 70.6597
L155.9349 70.7201
" />
<path d="M155.9349 70.7201
L155.9954 70.8411
" />
<path d="M155.9954 70.8411
L155.9954 71.5063
" />
<path d="M157.1444 71.4459
L157.0235 71.5063
" />
<path d="M157.0235 71.5063
L156.7816 71.5063
" />
<path d="M156.7816 71.5063
L156.6606 71.4459
" />
<path d="M156.6606 71.4459
L156.6001 71.3854
" />
<path d="M156.6001 71.3854
L156.5397 71.2644
" />
<path d="M156.5397 71.2644
L156.5397 70.9016
" />
<path d="M156.5397 70.9016
L156.6001 70.7806
" />
<path d="M156.6001 70.7806
L156.6606 70.7201
" />
<path d="M156.6606 70.7201
L156.7816 70.6597
" />
<path d="M156.7816 70.6597
L157.0235 70.6597
" />
<path d="M157.0235 70.6597
L157.1444 70.7201
" />
<path d="M158.2935 70.2363
L157.6887 70.2363
" />
<path d="M157.6887 70.2363
L157.6283 70.8411
" />
<path d="M157.6283 70.8411
L157.6887 70.7806
" />
<path d="M157.6887 70.7806
L157.8097 70.7201
" />
<path d="M157.8097 70.7201
L158.1121 70.7201
" />
<path d="M158.1121 70.7201
L158.2330 70.7806
" />
<path d="M158.2330 70.7806
L158.2935 70.8411
" />
<path d="M158.2935 70.8411
L158.3540 70.9620
" />
<path d="M158.3540 70.9620
L158.3540 71.2644
" />
<path d="M158.3540 71.2644
L158.2935 71.3854
" />
<path d="M158.2935 71.3854
L158.2330 71.4459
" />
<path d="M158.2330 71.4459
L158.1121 71.5063
" />
<path d="M158.1121 71.5063
L157.8097 71.5063
" />
<path d="M157.8097 71.5063
L157.6887 71.4459
" />
<path d="M157.6887 71.4459
L157.6283 71.3854
" />
<path d="M159.5635 71.5063
L158.8378 71.5063
" />
<path d="M159.2006 71.5063
L159.2006 70.2363
" />
<path d="M159.2006 70.2363
L159.0797 70.4178
" />
<path d="M159.0797 70.4178
L158.9587 70.5387
" />
<path d="M158.9587 70.5387
L158.8378 70.5992
" />
<path d="M159.9868 71.5063
L160.6520 70.6597
" />
<path d="M159.9868 70.6597
L160.6520 71.5063
" />
<path d="M161.3777 70.2363
L161.4987 70.2363
" />
<path d="M161.4987 70.2363
L161.6196 70.2968
" />
<path d="M161.6196 70.2968
L161.6801 70.3573
" />
<path d="M161.6801 70.3573
L161.7406 70.4782
" />
<path d="M161.7406 70.4782
L161.8011 70.7201
" />
<path d="M161.8011 70.7201
L161.8011 71.0225
" />
<path d="M161.8011 71.0225
L161.7406 71.2644
" />
<path d="M161.7406 71.2644
L161.6801 71.3854
" />
<path d="M161.6801 71.3854
L161.6196 71.4459
" />
<path d="M161.6196 71.4459
L161.4987 71.5063
" />
<path d="M161.4987 71.5063
L161.3777 71.5063
" />
<path d="M161.3777 71.5063
L161.2568 71.4459
" />
<path d="M161.2568 71.4459
L161.1963 71.3854
" />
<path d="M161.1963 71.3854
L161.1358 71.2644
" />
<path d="M161.1358 71.2644
L161.0754 71.0225
" />
<path d="M161.0754 71.0225
L161.0754 70.7201
" />
<path d="M161.0754 70.7201
L161.1358 70.4782
" />
<path d="M161.1358 70.4782
L161.1963 70.3573
" />
<path d="M161.1963 70.3573
L161.2568 70.2968
" />
<path d="M161.2568 70.2968
L161.3777 70.2363
" />
<path d="M162.3453 71.0225
L163.3130 71.0225
" />
<path d="M164.4015 71.4459
L164.2806 71.5063
" />
<path d="M164.2806 71.5063
L164.0387 71.5063
" />
<path d="M164.0387 71.5063
L163.9177 71.4459
" />
<path d="M163.9177 71.4459
L163.8573 71.3249
" />
<path d="M163.8573 71.3249
L163.8573 70.8411
" />
<path d="M163.8573 70.8411
L163.9177 70.7201
" />
<path d="M163.9177 70.7201
L164.0387 70.6597
" />
<path d="M164.0387 70.6597
L164.2806 70.6597
" />
<path d="M164.2806 70.6597
L164.4015 70.7201
" />
<path d="M164.4015 70.7201
L164.4620 70.8411
" />
<path d="M164.4620 70.8411
L164.4620 70.9620
" />
<path d="M164.4620 70.9620
L163.8573 71.0830
" />
<path d="M164.8854 70.6597
L165.1878 71.5063
" />
<path d="M165.1878 71.5063
L165.4901 70.6597
" />
<path d="M166.5182 71.5063
L166.5182 70.8411
" />
<path d="M166.5182 70.8411
L166.4577 70.7201
" />
<path d="M166.4577 70.7201
L166.3368 70.6597
" />
<path d="M166.3368 70.6597
L166.0949 70.6597
" />
<path d="M166.0949 70.6597
L165.9739 70.7201
" />
<path d="M166.5182 71.4459
L166.3973 71.5063
" />
<path d="M166.3973 71.5063
L166.0949 71.5063
" />
<path d="M166.0949 71.5063
L165.9739 71.4459
" />
<path d="M165.9739 71.4459
L165.9135 71.3249
" />
<path d="M165.9135 71.3249
L165.9135 71.2039
" />
<path d="M165.9135 71.2039
L165.9739 71.0830
" />
<path d="M165.9739 71.0830
L166.0949 71.0225
" />
<path d="M166.0949 71.0225
L166.3973 71.0225
" />
<path d="M166.3973 71.0225
L166.5182 70.9620
" />
<path d="M167.3044 71.5063
L167.1834 71.4459
" />
<path d="M167.1834 71.4459
L167.1229 71.3249
" />
<path d="M167.1229 71.3249
L167.1229 70.2363
" />
</g></g>
<g style="fill:#6C71C4; fill-opacity:0.0; 
stroke:#6C71C4; stroke-width:0.3175; stroke-opacity:1; 
stroke-linecap:round; stroke-linejoin:round;">
<text x="153.6700" y="79.3246"
textLength="29.1828" font-size="1.6933" lengthAdjust="spacingAndGlyphs"
text-anchor="start" opacity="0">File: tmc51x0-eval.kicad_sch</text>
<g class="stroked-text"><desc>File: tmc51x0-eval.kicad_sch</desc>
<path d="M154.6045 78.7032
L154.1811 78.7032
" />
<path d="M154.1811 79.3684
L154.1811 78.0984
" />
<path d="M154.1811 78.0984
L154.7859 78.0984
" />
<path d="M155.2697 79.3684
L155.2697 78.5218
" />
<path d="M155.2697 78.0984
L155.2093 78.1589
" />
<path d="M155.2093 78.1589
L155.2697 78.2194
" />
<path d="M155.2697 78.2194
L155.3302 78.1589
" />
<path d="M155.3302 78.1589
L155.2697 78.0984
" />
<path d="M155.2697 78.0984
L155.2697 78.2194
" />
<path d="M156.0560 79.3684
L155.9350 79.3080
" />
<path d="M155.9350 79.3080
L155.8745 79.1870
" />
<path d="M155.8745 79.1870
L155.8745 78.0984
" />
<path d="M157.0235 79.3080
L156.9026 79.3684
" />
<path d="M156.9026 79.3684
L156.6607 79.3684
" />
<path d="M156.6607 79.3684
L156.5397 79.3080
" />
<path d="M156.5397 79.3080
L156.4793 79.1870
" />
<path d="M156.4793 79.1870
L156.4793 78.7032
" />
<path d="M156.4793 78.7032
L156.5397 78.5822
" />
<path d="M156.5397 78.5822
L156.6607 78.5218
" />
<path d="M156.6607 78.5218
L156.9026 78.5218
" />
<path d="M156.9026 78.5218
L157.0235 78.5822
" />
<path d="M157.0235 78.5822
L157.0840 78.7032
" />
<path d="M157.0840 78.7032
L157.0840 78.8241
" />
<path d="M157.0840 78.8241
L156.4793 78.9451
" />
<path d="M157.6283 79.2475
L157.6888 79.3080
" />
<path d="M157.6888 79.3080
L157.6283 79.3684
" />
<path d="M157.6283 79.3684
L157.5679 79.3080
" />
<path d="M157.5679 79.3080
L157.6283 79.2475
" />
<path d="M157.6283 79.2475
L157.6283 79.3684
" />
<path d="M157.6283 78.5822
L157.6888 78.6427
" />
<path d="M157.6888 78.6427
L157.6283 78.7032
" />
<path d="M157.6283 78.7032
L157.5679 78.6427
" />
<path d="M157.5679 78.6427
L157.6283 78.5822
" />
<path d="M157.6283 78.5822
L157.6283 78.7032
" />
<path d="M159.0193 78.5218
L159.5031 78.5218
" />
<path d="M159.2007 78.0984
L159.2007 79.1870
" />
<path d="M159.2007 79.1870
L159.2612 79.3080
" />
<path d="M159.2612 79.3080
L159.3822 79.3684
" />
<path d="M159.3822 79.3684
L159.5031 79.3684
" />
<path d="M159.9264 79.3684
L159.9264 78.5218
" />
<path d="M159.9264 78.6427
L159.9869 78.5822
" />
<path d="M159.9869 78.5822
L160.1079 78.5218
" />
<path d="M160.1079 78.5218
L160.2893 78.5218
" />
<path d="M160.2893 78.5218
L160.4102 78.5822
" />
<path d="M160.4102 78.5822
L160.4707 78.7032
" />
<path d="M160.4707 78.7032
L160.4707 79.3684
" />
<path d="M160.4707 78.7032
L160.5312 78.5822
" />
<path d="M160.5312 78.5822
L160.6521 78.5218
" />
<path d="M160.6521 78.5218
L160.8336 78.5218
" />
<path d="M160.8336 78.5218
L160.9545 78.5822
" />
<path d="M160.9545 78.5822
L161.0150 78.7032
" />
<path d="M161.0150 78.7032
L161.0150 79.3684
" />
<path d="M162.1640 79.3080
L162.0431 79.3684
" />
<path d="M162.0431 79.3684
L161.8012 79.3684
" />
<path d="M161.8012 79.3684
L161.6802 79.3080
" />
<path d="M161.6802 79.3080
L161.6197 79.2475
" />
<path d="M161.6197 79.2475
L161.5593 79.1265
" />
<path d="M161.5593 79.1265
L161.5593 78.7637
" />
<path d="M161.5593 78.7637
L161.6197 78.6427
" />
<path d="M161.6197 78.6427
L161.6802 78.5822
" />
<path d="M161.6802 78.5822
L161.8012 78.5218
" />
<path d="M161.8012 78.5218
L162.0431 78.5218
" />
<path d="M162.0431 78.5218
L162.1640 78.5822
" />
<path d="M163.3131 78.0984
L162.7083 78.0984
" />
<path d="M162.7083 78.0984
L162.6479 78.7032
" />
<path d="M162.6479 78.7032
L162.7083 78.6427
" />
<path d="M162.7083 78.6427
L162.8293 78.5822
" />
<path d="M162.8293 78.5822
L163.1317 78.5822
" />
<path d="M163.1317 78.5822
L163.2526 78.6427
" />
<path d="M163.2526 78.6427
L163.3131 78.7032
" />
<path d="M163.3131 78.7032
L163.3736 78.8241
" />
<path d="M163.3736 78.8241
L163.3736 79.1265
" />
<path d="M163.3736 79.1265
L163.3131 79.2475
" />
<path d="M163.3131 79.2475
L163.2526 79.3080
" />
<path d="M163.2526 79.3080
L163.1317 79.3684
" />
<path d="M163.1317 79.3684
L162.8293 79.3684
" />
<path d="M162.8293 79.3684
L162.7083 79.3080
" />
<path d="M162.7083 79.3080
L162.6479 79.2475
" />
<path d="M164.5831 79.3684
L163.8574 79.3684
" />
<path d="M164.2202 79.3684
L164.2202 78.0984
" />
<path d="M164.2202 78.0984
L164.0993 78.2799
" />
<path d="M164.0993 78.2799
L163.9783 78.4008
" />
<path d="M163.9783 78.4008
L163.8574 78.4613
" />
<path d="M165.0064 79.3684
L165.6716 78.5218
" />
<path d="M165.0064 78.5218
L165.6716 79.3684
" />
<path d="M166.3973 78.0984
L166.5183 78.0984
" />
<path d="M166.5183 78.0984
L166.6392 78.1589
" />
<path d="M166.6392 78.1589
L166.6997 78.2194
" />
<path d="M166.6997 78.2194
L166.7602 78.3403
" />
<path d="M166.7602 78.3403
L166.8207 78.5822
" />
<path d="M166.8207 78.5822
L166.8207 78.8846
" />
<path d="M166.8207 78.8846
L166.7602 79.1265
" />
<path d="M166.7602 79.1265
L166.6997 79.2475
" />
<path d="M166.6997 79.2475
L166.6392 79.3080
" />
<path d="M166.6392 79.3080
L166.5183 79.3684
" />
<path d="M166.5183 79.3684
L166.3973 79.3684
" />
<path d="M166.3973 79.3684
L166.2764 79.3080
" />
<path d="M166.2764 79.3080
L166.2159 79.2475
" />
<path d="M166.2159 79.2475
L166.1554 79.1265
" />
<path d="M166.1554 79.1265
L166.0950 78.8846
" />
<path d="M166.0950 78.8846
L166.0950 78.5822
" />
<path d="M166.0950 78.5822
L166.1554 78.3403
" />
<path d="M166.1554 78.3403
L166.2159 78.2194
" />
<path d="M166.2159 78.2194
L166.2764 78.1589
" />
<path d="M166.2764 78.1589
L166.3973 78.0984
" />
<path d="M167.3649 78.8846
L168.3326 78.8846
" />
<path d="M169.4211 79.3080
L169.3002 79.3684
" />
<path d="M169.3002 79.3684
L169.0583 79.3684
" />
<path d="M169.0583 79.3684
L168.9373 79.3080
" />
<path d="M168.9373 79.3080
L168.8769 79.1870
" />
<path d="M168.8769 79.1870
L168.8769 78.7032
" />
<path d="M168.8769 78.7032
L168.9373 78.5822
" />
<path d="M168.9373 78.5822
L169.0583 78.5218
" />
<path d="M169.0583 78.5218
L169.3002 78.5218
" />
<path d="M169.3002 78.5218
L169.4211 78.5822
" />
<path d="M169.4211 78.5822
L169.4816 78.7032
" />
<path d="M169.4816 78.7032
L169.4816 78.8241
" />
<path d="M169.4816 78.8241
L168.8769 78.9451
" />
<path d="M169.9050 78.5218
L170.2074 79.3684
" />
<path d="M170.2074 79.3684
L170.5097 78.5218
" />
<path d="M171.5378 79.3684
L171.5378 78.7032
" />
<path d="M171.5378 78.7032
L171.4773 78.5822
" />
<path d="M171.4773 78.5822
L171.3564 78.5218
" />
<path d="M171.3564 78.5218
L171.1145 78.5218
" />
<path d="M171.1145 78.5218
L170.9935 78.5822
" />
<path d="M171.5378 79.3080
L171.4169 79.3684
" />
<path d="M171.4169 79.3684
L171.1145 79.3684
" />
<path d="M171.1145 79.3684
L170.9935 79.3080
" />
<path d="M170.9935 79.3080
L170.9331 79.1870
" />
<path d="M170.9331 79.1870
L170.9331 79.0660
" />
<path d="M170.9331 79.0660
L170.9935 78.9451
" />
<path d="M170.9935 78.9451
L171.1145 78.8846
" />
<path d="M171.1145 78.8846
L171.4169 78.8846
" />
<path d="M171.4169 78.8846
L171.5378 78.8241
" />
<path d="M172.3240 79.3684
L172.2030 79.3080
" />
<path d="M172.2030 79.3080
L172.1425 79.1870
" />
<path d="M172.1425 79.1870
L172.1425 78.0984
" />
<path d="M172.8077 79.2475
L172.8682 79.3080
" />
<path d="M172.8682 79.3080
L172.8077 79.3684
" />
<path d="M172.8077 79.3684
L172.7473 79.3080
" />
<path d="M172.7473 79.3080
L172.8077 79.2475
" />
<path d="M172.8077 79.2475
L172.8077 79.3684
" />
<path d="M173.4125 79.3684
L173.4125 78.0984
" />
<path d="M173.5335 78.8846
L173.8963 79.3684
" />
<path d="M173.8963 78.5218
L173.4125 79.0056
" />
<path d="M174.4406 79.3684
L174.4406 78.5218
" />
<path d="M174.4406 78.0984
L174.3802 78.1589
" />
<path d="M174.3802 78.1589
L174.4406 78.2194
" />
<path d="M174.4406 78.2194
L174.5011 78.1589
" />
<path d="M174.5011 78.1589
L174.4406 78.0984
" />
<path d="M174.4406 78.0984
L174.4406 78.2194
" />
<path d="M175.5897 79.3080
L175.4688 79.3684
" />
<path d="M175.4688 79.3684
L175.2269 79.3684
" />
<path d="M175.2269 79.3684
L175.1059 79.3080
" />
<path d="M175.1059 79.3080
L175.0454 79.2475
" />
<path d="M175.0454 79.2475
L174.9850 79.1265
" />
<path d="M174.9850 79.1265
L174.9850 78.7637
" />
<path d="M174.9850 78.7637
L175.0454 78.6427
" />
<path d="M175.0454 78.6427
L175.1059 78.5822
" />
<path d="M175.1059 78.5822
L175.2269 78.5218
" />
<path d="M175.2269 78.5218
L175.4688 78.5218
" />
<path d="M175.4688 78.5218
L175.5897 78.5822
" />
<path d="M176.6783 79.3684
L176.6783 78.7032
" />
<path d="M176.6783 78.7032
L176.6178 78.5822
" />
<path d="M176.6178 78.5822
L176.4969 78.5218
" />
<path d="M176.4969 78.5218
L176.2550 78.5218
" />
<path d="M176.2550 78.5218
L176.1340 78.5822
" />
<path d="M176.6783 79.3080
L176.5574 79.3684
" />
<path d="M176.5574 79.3684
L176.2550 79.3684
" />
<path d="M176.2550 79.3684
L176.1340 79.3080
" />
<path d="M176.1340 79.3080
L176.0736 79.1870
" />
<path d="M176.0736 79.1870
L176.0736 79.0660
" />
<path d="M176.0736 79.0660
L176.1340 78.9451
" />
<path d="M176.1340 78.9451
L176.2550 78.8846
" />
<path d="M176.2550 78.8846
L176.5574 78.8846
" />
<path d="M176.5574 78.8846
L176.6783 78.8241
" />
<path d="M177.8273 79.3684
L177.8273 78.0984
" />
<path d="M177.8273 79.3080
L177.7064 79.3684
" />
<path d="M177.7064 79.3684
L177.4645 79.3684
" />
<path d="M177.4645 79.3684
L177.3435 79.3080
" />
<path d="M177.3435 79.3080
L177.2830 79.2475
" />
<path d="M177.2830 79.2475
L177.2226 79.1265
" />
<path d="M177.2226 79.1265
L177.2226 78.7637
" />
<path d="M177.2226 78.7637
L177.2830 78.6427
" />
<path d="M177.2830 78.6427
L177.3435 78.5822
" />
<path d="M177.3435 78.5822
L177.4645 78.5218
" />
<path d="M177.4645 78.5218
L177.7064 78.5218
" />
<path d="M177.7064 78.5218
L177.8273 78.5822
" />
<path d="M178.1297 79.4894
L179.0973 79.4894
" />
<path d="M179.3392 79.3080
L179.4601 79.3684
" />
<path d="M179.4601 79.3684
L179.7020 79.3684
" />
<path d="M179.7020 79.3684
L179.8230 79.3080
" />
<path d="M179.8230 79.3080
L179.8834 79.1870
" />
<path d="M179.8834 79.1870
L179.8834 79.1265
" />
<path d="M179.8834 79.1265
L179.8230 79.0056
" />
<path d="M179.8230 79.0056
L179.7020 78.9451
" />
<path d="M179.7020 78.9451
L179.5206 78.9451
" />
<path d="M179.5206 78.9451
L179.3996 78.8846
" />
<path d="M179.3996 78.8846
L179.3392 78.7637
" />
<path d="M179.3392 78.7637
L179.3392 78.7032
" />
<path d="M179.3392 78.7032
L179.3996 78.5822
" />
<path d="M179.3996 78.5822
L179.5206 78.5218
" />
<path d="M179.5206 78.5218
L179.7020 78.5218
" />
<path d="M179.7020 78.5218
L179.8230 78.5822
" />
<path d="M180.9720 79.3080
L180.8511 79.3684
" />
<path d="M180.8511 79.3684
L180.6092 79.3684
" />
<path d="M180.6092 79.3684
L180.4882 79.3080
" />
<path d="M180.4882 79.3080
L180.4277 79.2475
" />
<path d="M180.4277 79.2475
L180.3673 79.1265
" />
<path d="M180.3673 79.1265
L180.3673 78.7637
" />
<path d="M180.3673 78.7637
L180.4277 78.6427
" />
<path d="M180.4277 78.6427
L180.4882 78.5822
" />
<path d="M180.4882 78.5822
L180.6092 78.5218
" />
<path d="M180.6092 78.5218
L180.8511 78.5218
" />
<path d="M180.8511 78.5218
L180.9720 78.5822
" />
<path d="M181.5163 79.3684
L181.5163 78.0984
" />
<path d="M182.0606 79.3684
L182.0606 78.7032
" />
<path d="M182.0606 78.7032
L182.0001 78.5822
" />
<path d="M182.0001 78.5822
L181.8792 78.5218
" />
<path d="M181.8792 78.5218
L181.6978 78.5218
" />
<path d="M181.6978 78.5218
L181.5768 78.5822
" />
<path d="M181.5768 78.5822
L181.5163 78.6427
" />
</g></g>
<g style="fill:#6C71C4; fill-opacity:0.0; 
stroke:#6C71C4; stroke-width:0.1524; stroke-opacity:1; 
stroke-linecap:round; stroke-linejoin:round;">
</g>
<g style="fill:#586E75; fill-opacity:0.0; 
stroke:#586E75; stroke-width:0.1524; stroke-opacity:1; 
stroke-linecap:round; stroke-linejoin:round;">
</g>
<g style="fill:#586E75; fill-opacity:0.0; 
stroke:#586E75; stroke-width:0.4000; stroke-opacity:1; 
stroke-linecap:round; stroke-linejoin:round;">
<rect x="102.870000" y="72.390000" width="12.700000" height="5.080000" rx="0.000000" />
</g>
<g style="fill:#268BD2; fill-opacity:0.0; 
stroke:#268BD2; stroke-width:0.4000; stroke-opacity:1; 
stroke-linecap:round; stroke-linejoin:round;">
</g>
<g style="fill:#268BD2; fill-opacity:0.0; 
stroke:#268BD2; stroke-width:0.3175; stroke-opacity:1; 
stroke-linecap:round; stroke-linejoin:round;">
<text x="102.8700" y="71.6784"
textLength="13.8822" font-size="1.6933" lengthAdjust="spacingAndGlyphs"
text-anchor="start" opacity="0">tmc51x0-bob</text>
<g class="stroked-text"><desc>tmc51x0-bob</desc>
<path d="M103.1997 70.6597
L103.6835 70.6597
" />
<path d="M103.3811 70.2363
L103.3811 71.3249
" />
<path d="M103.3811 71.3249
L103.4416 71.4459
" />
<path d="M103.4416 71.4459
L103.5626 71.5063
" />
<path d="M103.5626 71.5063
L103.6835 71.5063
" />
<path d="M104.1068 71.5063
L104.1068 70.6597
" />
<path d="M104.1068 70.7806
L104.1673 70.7201
" />
<path d="M104.1673 70.7201
L104.2883 70.6597
" />
<path d="M104.2883 70.6597
L104.4697 70.6597
" />
<path d="M104.4697 70.6597
L104.5906 70.7201
" />
<path d="M104.5906 70.7201
L104.6511 70.8411
" />
<path d="M104.6511 70.8411
L104.6511 71.5063
" />
<path d="M104.6511 70.8411
L104.7116 70.7201
" />
<path d="M104.7116 70.7201
L104.8325 70.6597
" />
<path d="M104.8325 70.6597
L105.0140 70.6597
" />
<path d="M105.0140 70.6597
L105.1349 70.7201
" />
<path d="M105.1349 70.7201
L105.1954 70.8411
" />
<path d="M105.1954 70.8411
L105.1954 71.5063
" />
<path d="M106.3444 71.4459
L106.2235 71.5063
" />
<path d="M106.2235 71.5063
L105.9816 71.5063
" />
<path d="M105.9816 71.5063
L105.8606 71.4459
" />
<path d="M105.8606 71.4459
L105.8001 71.3854
" />
<path d="M105.8001 71.3854
L105.7397 71.2644
" />
<path d="M105.7397 71.2644
L105.7397 70.9016
" />
<path d="M105.7397 70.9016
L105.8001 70.7806
" />
<path d="M105.8001 70.7806
L105.8606 70.7201
" />
<path d="M105.8606 70.7201
L105.9816 70.6597
" />
<path d="M105.9816 70.6597
L106.2235 70.6597
" />
<path d="M106.2235 70.6597
L106.3444 70.7201
" />
<path d="M107.4935 70.2363
L106.8887 70.2363
" />
<path d="M106.8887 70.2363
L106.8283 70.8411
" />
<path d="M106.8283 70.8411
L106.8887 70.7806
" />
<path d="M106.8887 70.7806
L107.0097 70.7201
" />
<path d="M107.0097 70.7201
L107.3121 70.7201
" />
<path d="M107.3121 70.7201
L107.4330 70.7806
" />
<path d="M107.4330 70.7806
L107.4935 70.8411
" />
<path d="M107.4935 70.8411
L107.5540 70.9620
" />
<path d="M107.5540 70.9620
L107.5540 71.2644
" />
<path d="M107.5540 71.2644
L107.4935 71.3854
" />
<path d="M107.4935 71.3854
L107.4330 71.4459
" />
<path d="M107.4330 71.4459
L107.3121 71.5063
" />
<path d="M107.3121 71.5063
L107.0097 71.5063
" />
<path d="M107.0097 71.5063
L106.8887 71.4459
" />
<path d="M106.8887 71.4459
L106.8283 71.3854
" />
<path d="M108.7635 71.5063
L108.0378 71.5063
" />
<path d="M108.4006 71.5063
L108.4006 70.2363
" />
<path d="M108.4006 70.2363
L108.2797 70.4178
" />
<path d="M108.2797 70.4178
L108.1587 70.5387
" />
<path d="M108.1587 70.5387
L108.0378 70.5992
" />
<path d="M109.1868 71.5063
L109.8520 70.6597
" />
<path d="M109.1868 70.6597
L109.8520 71.5063
" />
<path d="M110.5777 70.2363
L110.6987 70.2363
" />
<path d="M110.6987 70.2363
L110.8196 70.2968
" />
<path d="M110.8196 70.2968
L110.8801 70.3573
" />
<path d="M110.8801 70.3573
L110.9406 70.4782
" />
<path d="M110.9406 70.4782
L111.0011 70.7201
" />
<path d="M111.0011 70.7201
L111.0011 71.0225
" />
<path d="M111.0011 71.0225
L110.9406 71.2644
" />
<path d="M110.9406 71.2644
L110.8801 71.3854
" />
<path d="M110.8801 71.3854
L110.8196 71.4459
" />
<path d="M110.8196 71.4459
L110.6987 71.5063
" />
<path d="M110.6987 71.5063
L110.5777 71.5063
" />
<path d="M110.5777 71.5063
L110.4568 71.4459
" />
<path d="M110.4568 71.4459
L110.3963 71.3854
" />
<path d="M110.3963 71.3854
L110.3358 71.2644
" />
<path d="M110.3358 71.2644
L110.2754 71.0225
" />
<path d="M110.2754 71.0225
L110.2754 70.7201
" />
<path d="M110.2754 70.7201
L110.3358 70.4782
" />
<path d="M110.3358 70.4782
L110.3963 70.3573
" />
<path d="M110.3963 70.3573
L110.4568 70.2968
" />
<path d="M110.4568 70.2968
L110.5777 70.2363
" />
<path d="M111.5453 71.0225
L112.5130 71.0225
" />
<path d="M113.1177 71.5063
L113.1177 70.2363
" />
<path d="M113.1177 70.7201
L113.2387 70.6597
" />
<path d="M113.2387 70.6597
L113.4806 70.6597
" />
<path d="M113.4806 70.6597
L113.6015 70.7201
" />
<path d="M113.6015 70.7201
L113.6620 70.7806
" />
<path d="M113.6620 70.7806
L113.7225 70.9016
" />
<path d="M113.7225 70.9016
L113.7225 71.2644
" />
<path d="M113.7225 71.2644
L113.6620 71.3854
" />
<path d="M113.6620 71.3854
L113.6015 71.4459
" />
<path d="M113.6015 71.4459
L113.4806 71.5063
" />
<path d="M113.4806 71.5063
L113.2387 71.5063
" />
<path d="M113.2387 71.5063
L113.1177 71.4459
" />
<path d="M114.4482 71.5063
L114.3272 71.4459
" />
<path d="M114.3272 71.4459
L114.2667 71.3854
" />
<path d="M114.2667 71.3854
L114.2063 71.2644
" />
<path d="M114.2063 71.2644
L114.2063 70.9016
" />
<path d="M114.2063 70.9016
L114.2667 70.7806
" />
<path d="M114.2667 70.7806
L114.3272 70.7201
" />
<path d="M114.3272 70.7201
L114.4482 70.6597
" />
<path d="M114.4482 70.6597
L114.6296 70.6597
" />
<path d="M114.6296 70.6597
L114.7505 70.7201
" />
<path d="M114.7505 70.7201
L114.8110 70.7806
" />
<path d="M114.8110 70.7806
L114.8715 70.9016
" />
<path d="M114.8715 70.9016
L114.8715 71.2644
" />
<path d="M114.8715 71.2644
L114.8110 71.3854
" />
<path d="M114.8110 71.3854
L114.7505 71.4459
" />
<path d="M114.7505 71.4459
L114.6296 71.5063
" />
<path d="M114.6296 71.5063
L114.4482 71.5063
" />
<path d="M115.4157 71.5063
L115.4157 70.2363
" />
<path d="M115.4157 70.7201
L115.5367 70.6597
" />
<path d="M115.5367 70.6597
L115.7786 70.6597
" />
<path d="M115.7786 70.6597
L115.8995 70.7201
" />
<path d="M115.8995 70.7201
L115.9600 70.7806
" />
<path d="M115.9600 70.7806
L116.0205 70.9016
" />
<path d="M116.0205 70.9016
L116.0205 71.2644
" />
<path d="M116.0205 71.2644
L115.9600 71.3854
" />
<path d="M115.9600 71.3854
L115.8995 71.4459
" />
<path d="M115.8995 71.4459
L115.7786 71.5063
" />
<path d="M115.7786 71.5063
L115.5367 71.5063
" />
<path d="M115.5367 71.5063
L115.4157 71.4459
" />
</g></g>
<g style="fill:#6C71C4; fill-opacity:0.0; 
stroke:#6C71C4; stroke-width:0.3175; stroke-opacity:1; 
stroke-linecap:round; stroke-linejoin:round;">
<text x="102.8700" y="79.3246"
textLength="28.7594" font-size="1.6933" lengthAdjust="spacingAndGlyphs"
text-anchor="start" opacity="0">File: tmc51x0-bob.kicad_sch</text>
<g class="stroked-text"><desc>File: tmc51x0-bob.kicad_sch</desc>
<path d="M103.8045 78.7032
L103.3811 78.7032
" />
<path d="M103.3811 79.3684
L103.3811 78.0984
" />
<path d="M103.3811 78.0984
L103.9859 78.0984
" />
<path d="M104.4697 79.3684
L104.4697 78.5218
" />
<path d="M104.4697 78.0984
L104.4093 78.1589
" />
<path d="M104.4093 78.1589
L104.4697 78.2194
" />
<path d="M104.4697 78.2194
L104.5302 78.1589
" />
<path d="M104.5302 78.1589
L104.4697 78.0984
" />
<path d="M104.4697 78.0984
L104.4697 78.2194
" />
<path d="M105.2560 79.3684
L105.1350 79.3080
" />
<path d="M105.1350 79.3080
L105.0745 79.1870
" />
<path d="M105.0745 79.1870
L105.0745 78.0984
" />
<path d="M106.2235 79.3080
L106.1026 79.3684
" />
<path d="M106.1026 79.3684
L105.8607 79.3684
" />
<path d="M105.8607 79.3684
L105.7397 79.3080
" />
<path d="M105.7397 79.3080
L105.6793 79.1870
" />
<path d="M105.6793 79.1870
L105.6793 78.7032
" />
<path d="M105.6793 78.7032
L105.7397 78.5822
" />
<path d="M105.7397 78.5822
L105.8607 78.5218
" />
<path d="M105.8607 78.5218
L106.1026 78.5218
" />
<path d="M106.1026 78.5218
L106.2235 78.5822
" />
<path d="M106.2235 78.5822
L106.2840 78.7032
" />
<path d="M106.2840 78.7032
L106.2840 78.8241
" />
<path d="M106.2840 78.8241
L105.6793 78.9451
" />
<path d="M106.8283 79.2475
L106.8888 79.3080
" />
<path d="M106.8888 79.3080
L106.8283 79.3684
" />
<path d="M106.8283 79.3684
L106.7679 79.3080
" />
<path d="M106.7679 79.3080
L106.8283 79.2475
" />
<path d="M106.8283 79.2475
L106.8283 79.3684
" />
<path d="M106.8283 78.5822
L106.8888 78.6427
" />
<path d="M106.8888 78.6427
L106.8283 78.7032
" />
<path d="M106.8283 78.7032
L106.7679 78.6427
" />
<path d="M106.7679 78.6427
L106.8283 78.5822
" />
<path d="M106.8283 78.5822
L106.8283 78.7032
" />
<path d="M108.2193 78.5218
L108.7031 78.5218
" />
<path d="M108.4007 78.0984
L108.4007 79.1870
" />
<path d="M108.4007 79.1870
L108.4612 79.3080
" />
<path d="M108.4612 79.3080
L108.5822 79.3684
" />
<path d="M108.5822 79.3684
L108.7031 79.3684
" />
<path d="M109.1264 79.3684
L109.1264 78.5218
" />
<path d="M109.1264 78.6427
L109.1869 78.5822
" />
<path d="M109.1869 78.5822
L109.3079 78.5218
" />
<path d="M109.3079 78.5218
L109.4893 78.5218
" />
<path d="M109.4893 78.5218
L109.6102 78.5822
" />
<path d="M109.6102 78.5822
L109.6707 78.7032
" />
<path d="M109.6707 78.7032
L109.6707 79.3684
" />
<path d="M109.6707 78.7032
L109.7312 78.5822
" />
<path d="M109.7312 78.5822
L109.8521 78.5218
" />
<path d="M109.8521 78.5218
L110.0336 78.5218
" />
<path d="M110.0336 78.5218
L110.1545 78.5822
" />
<path d="M110.1545 78.5822
L110.2150 78.7032
" />
<path d="M110.2150 78.7032
L110.2150 79.3684
" />
<path d="M111.3640 79.3080
L111.2431 79.3684
" />
<path d="M111.2431 79.3684
L111.0012 79.3684
" />
<path d="M111.0012 79.3684
L110.8802 79.3080
" />
<path d="M110.8802 79.3080
L110.8197 79.2475
" />
<path d="M110.8197 79.2475
L110.7593 79.1265
" />
<path d="M110.7593 79.1265
L110.7593 78.7637
" />
<path d="M110.7593 78.7637
L110.8197 78.6427
" />
<path d="M110.8197 78.6427
L110.8802 78.5822
" />
<path d="M110.8802 78.5822
L111.0012 78.5218
" />
<path d="M111.0012 78.5218
L111.2431 78.5218
" />
<path d="M111.2431 78.5218
L111.3640 78.5822
" />
<path d="M112.5131 78.0984
L111.9083 78.0984
" />
<path d="M111.9083 78.0984
L111.8479 78.7032
" />
<path d="M111.8479 78.7032
L111.9083 78.6427
" />
<path d="M111.9083 78.6427
L112.0293 78.5822
" />
<path d="M112.0293 78.5822
L112.3317 78.5822
" />
<path d="M112.3317 78.5822
L112.4526 78.6427
" />
<path d="M112.4526 78.6427
L112.5131 78.7032
" />
<path d="M112.5131 78.7032
L112.5736 78.8241
" />
<path d="M112.5736 78.8241
L112.5736 79.1265
" />
<path d="M112.5736 79.1265
L112.5131 79.2475
" />
<path d="M112.5131 79.2475
L112.4526 79.3080
" />
<path d="M112.4526 79.3080
L112.3317 79.3684
" />
<path d="M112.3317 79.3684
L112.0293 79.3684
" />
<path d="M112.0293 79.3684
L111.9083 79.3080
" />
<path d="M111.9083 79.3080
L111.8479 79.2475
" />
<path d="M113.7831 79.3684
L113.0574 79.3684
" />
<path d="M113.4202 79.3684
L113.4202 78.0984
" />
<path d="M113.4202 78.0984
L113.2993 78.2799
" />
<path d="M113.2993 78.2799
L113.1783 78.4008
" />
<path d="M113.1783 78.4008
L113.0574 78.4613
" />
<path d="M114.2064 79.3684
L114.8716 78.5218
" />
<path d="M114.2064 78.5218
L114.8716 79.3684
" />
<path d="M115.5973 78.0984
L115.7183 78.0984
" />
<path d="M115.7183 78.0984
L115.8392 78.1589
" />
<path d="M115.8392 78.1589
L115.8997 78.2194
" />
<path d="M115.8997 78.2194
L115.9602 78.3403
" />
<path d="M115.9602 78.3403
L116.0207 78.5822
" />
<path d="M116.0207 78.5822
L116.0207 78.8846
" />
<path d="M116.0207 78.8846
L115.9602 79.1265
" />
<path d="M115.9602 79.1265
L115.8997 79.2475
" />
<path d="M115.8997 79.2475
L115.8392 79.3080
" />
<path d="M115.8392 79.3080
L115.7183 79.3684
" />
<path d="M115.7183 79.3684
L115.5973 79.3684
" />
<path d="M115.5973 79.3684
L115.4764 79.3080
" />
<path d="M115.4764 79.3080
L115.4159 79.2475
" />
<path d="M115.4159 79.2475
L115.3554 79.1265
" />
<path d="M115.3554 79.1265
L115.2950 78.8846
" />
<path d="M115.2950 78.8846
L115.2950 78.5822
" />
<path d="M115.2950 78.5822
L115.3554 78.3403
" />
<path d="M115.3554 78.3403
L115.4159 78.2194
" />
<path d="M115.4159 78.2194
L115.4764 78.1589
" />
<path d="M115.4764 78.1589
L115.5973 78.0984
" />
<path d="M116.5649 78.8846
L117.5326 78.8846
" />
<path d="M118.1373 79.3684
L118.1373 78.0984
" />
<path d="M118.1373 78.5822
L118.2583 78.5218
" />
<path d="M118.2583 78.5218
L118.5002 78.5218
" />
<path d="M118.5002 78.5218
L118.6211 78.5822
" />
<path d="M118.6211 78.5822
L118.6816 78.6427
" />
<path d="M118.6816 78.6427
L118.7421 78.7637
" />
<path d="M118.7421 78.7637
L118.7421 79.1265
" />
<path d="M118.7421 79.1265
L118.6816 79.2475
" />
<path d="M118.6816 79.2475
L118.6211 79.3080
" />
<path d="M118.6211 79.3080
L118.5002 79.3684
" />
<path d="M118.5002 79.3684
L118.2583 79.3684
" />
<path d="M118.2583 79.3684
L118.1373 79.3080
" />
<path d="M119.4678 79.3684
L119.3468 79.3080
" />
<path d="M119.3468 79.3080
L119.2863 79.2475
" />
<path d="M119.2863 79.2475
L119.2259 79.1265
" />
<path d="M119.2259 79.1265
L119.2259 78.7637
" />
<path d="M119.2259 78.7637
L119.2863 78.6427
" />
<path d="M119.2863 78.6427
L119.3468 78.5822
" />
<path d="M119.3468 78.5822
L119.4678 78.5218
" />
<path d="M119.4678 78.5218
L119.6492 78.5218
" />
<path d="M119.6492 78.5218
L119.7701 78.5822
" />
<path d="M119.7701 78.5822
L119.8306 78.6427
" />
<path d="M119.8306 78.6427
L119.8911 78.7637
" />
<path d="M119.8911 78.7637
L119.8911 79.1265
" />
<path d="M119.8911 79.1265
L119.8306 79.2475
" />
<path d="M119.8306 79.2475
L119.7701 79.3080
" />
<path d="M119.7701 79.3080
L119.6492 79.3684
" />
<path d="M119.6492 79.3684
L119.4678 79.3684
" />
<path d="M120.4353 79.3684
L120.4353 78.0984
" />
<path d="M120.4353 78.5822
L120.5563 78.5218
" />
<path d="M120.5563 78.5218
L120.7982 78.5218
" />
<path d="M120.7982 78.5218
L120.9191 78.5822
" />
<path d="M120.9191 78.5822
L120.9796 78.6427
" />
<path d="M120.9796 78.6427
L121.0401 78.7637
" />
<path d="M121.0401 78.7637
L121.0401 79.1265
" />
<path d="M121.0401 79.1265
L120.9796 79.2475
" />
<path d="M120.9796 79.2475
L120.9191 79.3080
" />
<path d="M120.9191 79.3080
L120.7982 79.3684
" />
<path d="M120.7982 79.3684
L120.5563 79.3684
" />
<path d="M120.5563 79.3684
L120.4353 79.3080
" />
<path d="M121.5843 79.2475
L121.6448 79.3080
" />
<path d="M121.6448 79.3080
L121.5843 79.3684
" />
<path d="M121.5843 79.3684
L121.5239 79.3080
" />
<path d="M121.5239 79.3080
L121.5843 79.2475
" />
<path d="M121.5843 79.2475
L121.5843 79.3684
" />
<path d="M122.1891 79.3684
L122.1891 78.0984
" />
<path d="M122.3101 78.8846
L122.6729 79.3684
" />
<path d="M122.6729 78.5218
L122.1891 79.0056
" />
<path d="M123.2172 79.3684
L123.2172 78.5218
" />
<path d="M123.2172 78.0984
L123.1568 78.1589
" />
<path d="M123.1568 78.1589
L123.2172 78.2194
" />
<path d="M123.2172 78.2194
L123.2777 78.1589
" />
<path d="M123.2777 78.1589
L123.2172 78.0984
" />
<path d="M123.2172 78.0984
L123.2172 78.2194
" />
<path d="M124.3663 79.3080
L124.2454 79.3684
" />
<path d="M124.2454 79.3684
L124.0035 79.3684
" />
<path d="M124.0035 79.3684
L123.8825 79.3080
" />
<path d="M123.8825 79.3080
L123.8220 79.2475
" />
<path d="M123.8220 79.2475
L123.7616 79.1265
" />
<path d="M123.7616 79.1265
L123.7616 78.7637
" />
<path d="M123.7616 78.7637
L123.8220 78.6427
" />
<path d="M123.8220 78.6427
L123.8825 78.5822
" />
<path d="M123.8825 78.5822
L124.0035 78.5218
" />
<path d="M124.0035 78.5218
L124.2454 78.5218
" />
<path d="M124.2454 78.5218
L124.3663 78.5822
" />
<path d="M125.4549 79.3684
L125.4549 78.7032
" />
<path d="M125.4549 78.7032
L125.3944 78.5822
" />
<path d="M125.3944 78.5822
L125.2735 78.5218
" />
<path d="M125.2735 78.5218
L125.0316 78.5218
" />
<path d="M125.0316 78.5218
L124.9106 78.5822
" />
<path d="M125.4549 79.3080
L125.3340 79.3684
" />
<path d="M125.3340 79.3684
L125.0316 79.3684
" />
<path d="M125.0316 79.3684
L124.9106 79.3080
" />
<path d="M124.9106 79.3080
L124.8502 79.1870
" />
<path d="M124.8502 79.1870
L124.8502 79.0660
" />
<path d="M124.8502 79.0660
L124.9106 78.9451
" />
<path d="M124.9106 78.9451
L125.0316 78.8846
" />
<path d="M125.0316 78.8846
L125.3340 78.8846
" />
<path d="M125.3340 78.8846
L125.4549 78.8241
" />
<path d="M126.6039 79.3684
L126.6039 78.0984
" />
<path d="M126.6039 79.3080
L126.4830 79.3684
" />
<path d="M126.4830 79.3684
L126.2411 79.3684
" />
<path d="M126.2411 79.3684
L126.1201 79.3080
" />
<path d="M126.1201 79.3080
L126.0596 79.2475
" />
<path d="M126.0596 79.2475
L125.9992 79.1265
" />
<path d="M125.9992 79.1265
L125.9992 78.7637
" />
<path d="M125.9992 78.7637
L126.0596 78.6427
" />
<path d="M126.0596 78.6427
L126.1201 78.5822
" />
<path d="M126.1201 78.5822
L126.2411 78.5218
" />
<path d="M126.2411 78.5218
L126.4830 78.5218
" />
<path d="M126.4830 78.5218
L126.6039 78.5822
" />
<path d="M126.9063 79.4894
L127.8739 79.4894
" />
<path d="M128.1158 79.3080
L128.2367 79.3684
" />
<path d="M128.2367 79.3684
L128.4786 79.3684
" />
<path d="M128.4786 79.3684
L128.5996 79.3080
" />
<path d="M128.5996 79.3080
L128.6600 79.1870
" />
<path d="M128.6600 79.1870
L128.6600 79.1265
" />
<path d="M128.6600 79.1265
L128.5996 79.0056
" />
<path d="M128.5996 79.0056
L128.4786 78.9451
" />
<path d="M128.4786 78.9451
L128.2972 78.9451
" />
<path d="M128.2972 78.9451
L128.1762 78.8846
" />
<path d="M128.1762 78.8846
L128.1158 78.7637
" />
<path d="M128.1158 78.7637
L128.1158 78.7032
" />
<path d="M128.1158 78.7032
L128.1762 78.5822
" />
<path d="M128.1762 78.5822
L128.2972 78.5218
" />
<path d="M128.2972 78.5218
L128.4786 78.5218
" />
<path d="M128.4786 78.5218
L128.5996 78.5822
" />
<path d="M129.7486 79.3080
L129.6277 79.3684
" />
<path d="M129.6277 79.3684
L129.3858 79.3684
" />
<path d="M129.3858 79.3684
L129.2648 79.3080
" />
<path d="M129.2648 79.3080
L129.2043 79.2475
" />
<path d="M129.2043 79.2475
L129.1439 79.1265
" />
<path d="M129.1439 79.1265
L129.1439 78.7637
" />
<path d="M129.1439 78.7637
L129.2043 78.6427
" />
<path d="M129.2043 78.6427
L129.2648 78.5822
" />
<path d="M129.2648 78.5822
L129.3858 78.5218
" />
<path d="M129.3858 78.5218
L129.6277 78.5218
" />
<path d="M129.6277 78.5218
L129.7486 78.5822
" />
<path d="M130.2929 79.3684
L130.2929 78.0984
" />
<path d="M130.8372 79.3684
L130.8372 78.7032
" />
<path d="M130.8372 78.7032
L130.7767 78.5822
" />
<path d="M130.7767 78.5822
L130.6558 78.5218
" />
<path d="M130.6558 78.5218
L130.4744 78.5218
" />
<path d="M130.4744 78.5218
L130.3534 78.5822
" />
<path d="M130.3534 78.5822
L130.2929 78.6427
" />
</g></g> 
</svg>
