<?xml version="1.0" standalone="no"?>
 <!DOCTYPE svg PUBLIC "-//W3C//DTD SVG 1.1//EN" 
 "http://www.w3.org/Graphics/SVG/1.1/DTD/svg11.dtd"> 
<svg
  xmlns:svg="http://www.w3.org/2000/svg"
  xmlns="http://www.w3.org/2000/svg"
  xmlns:xlink="http://www.w3.org/1999/xlink"
  version="1.1"
  width="297.0022mm" height="210.0072mm" viewBox="0.0000 0.0000 297.0022 210.0072">
<title>SVG Image created as trinamic-wiring-TMC51X0-microcontroller.svg date 2024/08/01 14:17:40 </title>
  <desc>Image generated by Eeschema-SVG </desc>
<g style="fill:#000000; fill-opacity:1.0000;stroke:#000000; stroke-opacity:1.0000;
stroke-linecap:round; stroke-linejoin:round;"
 transform="translate(0 0) scale(1 1)">
</g>
<g style="fill:#000000; fill-opacity:0.0; 
stroke:#000000; stroke-width:0.1524; stroke-opacity:1; 
stroke-linecap:round; stroke-linejoin:round;">
</g>
<g style="fill:#000000; fill-opacity:0.0; 
stroke:#000000; stroke-width:0.1588; stroke-opacity:1; 
stroke-linecap:round; stroke-linejoin:round;">
</g>
<g style="fill:#000000; fill-opacity:0.0; 
stroke:#000000; stroke-width:0.4000; stroke-opacity:1; 
stroke-linecap:round; stroke-linejoin:round;">
</g>
<g style="fill:#000000; fill-opacity:0.0; 
stroke:#000000; stroke-width:0.1588; stroke-opacity:1; 
stroke-linecap:round; stroke-linejoin:round;">
</g>
<g style="fill:#000000; fill-opacity:0.0; 
stroke:#000000; stroke-width:0.4000; stroke-opacity:1; 
stroke-linecap:round; stroke-linejoin:round;">
</g>
<g style="fill:#000000; fill-opacity:0.0; 
stroke:#000000; stroke-width:0.1588; stroke-opacity:1; 
stroke-linecap:round; stroke-linejoin:round;">
</g>
<g style="fill:#000000; fill-opacity:0.0; 
stroke:#000000; stroke-width:0.4000; stroke-opacity:1; 
stroke-linecap:round; stroke-linejoin:round;">
</g>
<g style="fill:#000000; fill-opacity:0.0; 
stroke:#000000; stroke-width:0.1588; stroke-opacity:1; 
stroke-linecap:round; stroke-linejoin:round;">
</g>
<g style="fill:#000000; fill-opacity:0.0; 
stroke:#000000; stroke-width:0.4000; stroke-opacity:1; 
stroke-linecap:round; stroke-linejoin:round;">
</g>
<g style="fill:#000000; fill-opacity:0.0; 
stroke:#000000; stroke-width:0.1588; stroke-opacity:1; 
stroke-linecap:round; stroke-linejoin:round;">
</g>
<g style="fill:#000000; fill-opacity:0.0; 
stroke:#000000; stroke-width:0.4000; stroke-opacity:1; 
stroke-linecap:round; stroke-linejoin:round;">
</g>
<g style="fill:#000000; fill-opacity:0.0; 
stroke:#000000; stroke-width:0.1588; stroke-opacity:1; 
stroke-linecap:round; stroke-linejoin:round;">
</g>
<g style="fill:#000000; fill-opacity:0.0; 
stroke:#000000; stroke-width:0.4000; stroke-opacity:1; 
stroke-linecap:round; stroke-linejoin:round;">
</g>
<g style="fill:#000000; fill-opacity:0.0; 
stroke:#000000; stroke-width:0.1588; stroke-opacity:1; 
stroke-linecap:round; stroke-linejoin:round;">
</g>
<g style="fill:#000000; fill-opacity:0.0; 
stroke:#000000; stroke-width:0.4000; stroke-opacity:1; 
stroke-linecap:round; stroke-linejoin:round;">
</g>
<g style="fill:#000000; fill-opacity:0.0; 
stroke:#000000; stroke-width:0.1588; stroke-opacity:1; 
stroke-linecap:round; stroke-linejoin:round;">
</g>
<g style="fill:#000000; fill-opacity:0.0; 
stroke:#000000; stroke-width:0.4000; stroke-opacity:1; 
stroke-linecap:round; stroke-linejoin:round;">
</g>
<g style="fill:#000000; fill-opacity:0.0; 
stroke:#000000; stroke-width:0.1524; stroke-opacity:1; 
stroke-linecap:round; stroke-linejoin:round;">
<g >
</g>
<g style="fill:#586E75; fill-opacity:0.0; 
stroke:#586E75; stroke-width:0.1524; stroke-opacity:1; 
stroke-linecap:round; stroke-linejoin:round;">
</g>
<g style="fill:#586E75; fill-opacity:0.0; 
stroke:#586E75; stroke-width:0.4000; stroke-opacity:1; 
stroke-linecap:round; stroke-linejoin:round;">
<rect x="88.900000" y="78.740000" width="20.320000" height="25.400000" rx="0.000000" />
<text x="99.0600" y="92.0750"
textLength="18.8470" font-size="1.6933" lengthAdjust="spacingAndGlyphs"
text-anchor="middle" opacity="0">MICROCONTROLLER</text>
<g class="stroked-text"><desc>MICROCONTROLLER</desc>
<path d="M90.4118 92.0067
L90.4118 90.7367
" />
<path d="M90.4118 90.7367
L90.8352 91.6439
" />
<path d="M90.8352 91.6439
L91.2585 90.7367
" />
<path d="M91.2585 90.7367
L91.2585 92.0067
" />
<path d="M91.8632 92.0067
L91.8632 90.7367
" />
<path d="M93.1937 91.8858
L93.1333 91.9463
" />
<path d="M93.1333 91.9463
L92.9518 92.0067
" />
<path d="M92.9518 92.0067
L92.8309 92.0067
" />
<path d="M92.8309 92.0067
L92.6495 91.9463
" />
<path d="M92.6495 91.9463
L92.5285 91.8253
" />
<path d="M92.5285 91.8253
L92.4680 91.7043
" />
<path d="M92.4680 91.7043
L92.4076 91.4624
" />
<path d="M92.4076 91.4624
L92.4076 91.2810
" />
<path d="M92.4076 91.2810
L92.4680 91.0391
" />
<path d="M92.4680 91.0391
L92.5285 90.9182
" />
<path d="M92.5285 90.9182
L92.6495 90.7972
" />
<path d="M92.6495 90.7972
L92.8309 90.7367
" />
<path d="M92.8309 90.7367
L92.9518 90.7367
" />
<path d="M92.9518 90.7367
L93.1333 90.7972
" />
<path d="M93.1333 90.7972
L93.1937 90.8577
" />
<path d="M94.4637 92.0067
L94.0404 91.4020
" />
<path d="M93.7380 92.0067
L93.7380 90.7367
" />
<path d="M93.7380 90.7367
L94.2218 90.7367
" />
<path d="M94.2218 90.7367
L94.3428 90.7972
" />
<path d="M94.3428 90.7972
L94.4033 90.8577
" />
<path d="M94.4033 90.8577
L94.4637 90.9786
" />
<path d="M94.4637 90.9786
L94.4637 91.1601
" />
<path d="M94.4637 91.1601
L94.4033 91.2810
" />
<path d="M94.4033 91.2810
L94.3428 91.3415
" />
<path d="M94.3428 91.3415
L94.2218 91.4020
" />
<path d="M94.2218 91.4020
L93.7380 91.4020
" />
<path d="M95.2499 90.7367
L95.4918 90.7367
" />
<path d="M95.4918 90.7367
L95.6128 90.7972
" />
<path d="M95.6128 90.7972
L95.7337 90.9182
" />
<path d="M95.7337 90.9182
L95.7942 91.1601
" />
<path d="M95.7942 91.1601
L95.7942 91.5834
" />
<path d="M95.7942 91.5834
L95.7337 91.8253
" />
<path d="M95.7337 91.8253
L95.6128 91.9463
" />
<path d="M95.6128 91.9463
L95.4918 92.0067
" />
<path d="M95.4918 92.0067
L95.2499 92.0067
" />
<path d="M95.2499 92.0067
L95.1290 91.9463
" />
<path d="M95.1290 91.9463
L95.0080 91.8253
" />
<path d="M95.0080 91.8253
L94.9476 91.5834
" />
<path d="M94.9476 91.5834
L94.9476 91.1601
" />
<path d="M94.9476 91.1601
L95.0080 90.9182
" />
<path d="M95.0080 90.9182
L95.1290 90.7972
" />
<path d="M95.1290 90.7972
L95.2499 90.7367
" />
<path d="M97.0642 91.8858
L97.0038 91.9463
" />
<path d="M97.0038 91.9463
L96.8223 92.0067
" />
<path d="M96.8223 92.0067
L96.7014 92.0067
" />
<path d="M96.7014 92.0067
L96.5200 91.9463
" />
<path d="M96.5200 91.9463
L96.3990 91.8253
" />
<path d="M96.3990 91.8253
L96.3385 91.7043
" />
<path d="M96.3385 91.7043
L96.2781 91.4624
" />
<path d="M96.2781 91.4624
L96.2781 91.2810
" />
<path d="M96.2781 91.2810
L96.3385 91.0391
" />
<path d="M96.3385 91.0391
L96.3990 90.9182
" />
<path d="M96.3990 90.9182
L96.5200 90.7972
" />
<path d="M96.5200 90.7972
L96.7014 90.7367
" />
<path d="M96.7014 90.7367
L96.8223 90.7367
" />
<path d="M96.8223 90.7367
L97.0038 90.7972
" />
<path d="M97.0038 90.7972
L97.0642 90.8577
" />
<path d="M97.8504 90.7367
L98.0923 90.7367
" />
<path d="M98.0923 90.7367
L98.2133 90.7972
" />
<path d="M98.2133 90.7972
L98.3342 90.9182
" />
<path d="M98.3342 90.9182
L98.3947 91.1601
" />
<path d="M98.3947 91.1601
L98.3947 91.5834
" />
<path d="M98.3947 91.5834
L98.3342 91.8253
" />
<path d="M98.3342 91.8253
L98.2133 91.9463
" />
<path d="M98.2133 91.9463
L98.0923 92.0067
" />
<path d="M98.0923 92.0067
L97.8504 92.0067
" />
<path d="M97.8504 92.0067
L97.7295 91.9463
" />
<path d="M97.7295 91.9463
L97.6085 91.8253
" />
<path d="M97.6085 91.8253
L97.5481 91.5834
" />
<path d="M97.5481 91.5834
L97.5481 91.1601
" />
<path d="M97.5481 91.1601
L97.6085 90.9182
" />
<path d="M97.6085 90.9182
L97.7295 90.7972
" />
<path d="M97.7295 90.7972
L97.8504 90.7367
" />
<path d="M98.9390 92.0067
L98.9390 90.7367
" />
<path d="M98.9390 90.7367
L99.6647 92.0067
" />
<path d="M99.6647 92.0067
L99.6647 90.7367
" />
<path d="M100.0881 90.7367
L100.8138 90.7367
" />
<path d="M100.4510 92.0067
L100.4510 90.7367
" />
<path d="M101.9628 92.0067
L101.5395 91.4020
" />
<path d="M101.2371 92.0067
L101.2371 90.7367
" />
<path d="M101.2371 90.7367
L101.7209 90.7367
" />
<path d="M101.7209 90.7367
L101.8419 90.7972
" />
<path d="M101.8419 90.7972
L101.9024 90.8577
" />
<path d="M101.9024 90.8577
L101.9628 90.9786
" />
<path d="M101.9628 90.9786
L101.9628 91.1601
" />
<path d="M101.9628 91.1601
L101.9024 91.2810
" />
<path d="M101.9024 91.2810
L101.8419 91.3415
" />
<path d="M101.8419 91.3415
L101.7209 91.4020
" />
<path d="M101.7209 91.4020
L101.2371 91.4020
" />
<path d="M102.7490 90.7367
L102.9909 90.7367
" />
<path d="M102.9909 90.7367
L103.1119 90.7972
" />
<path d="M103.1119 90.7972
L103.2328 90.9182
" />
<path d="M103.2328 90.9182
L103.2933 91.1601
" />
<path d="M103.2933 91.1601
L103.2933 91.5834
" />
<path d="M103.2933 91.5834
L103.2328 91.8253
" />
<path d="M103.2328 91.8253
L103.1119 91.9463
" />
<path d="M103.1119 91.9463
L102.9909 92.0067
" />
<path d="M102.9909 92.0067
L102.7490 92.0067
" />
<path d="M102.7490 92.0067
L102.6281 91.9463
" />
<path d="M102.6281 91.9463
L102.5071 91.8253
" />
<path d="M102.5071 91.8253
L102.4467 91.5834
" />
<path d="M102.4467 91.5834
L102.4467 91.1601
" />
<path d="M102.4467 91.1601
L102.5071 90.9182
" />
<path d="M102.5071 90.9182
L102.6281 90.7972
" />
<path d="M102.6281 90.7972
L102.7490 90.7367
" />
<path d="M104.4424 92.0067
L103.8376 92.0067
" />
<path d="M103.8376 92.0067
L103.8376 90.7367
" />
<path d="M105.4705 92.0067
L104.8657 92.0067
" />
<path d="M104.8657 92.0067
L104.8657 90.7367
" />
<path d="M105.8938 91.3415
L106.3172 91.3415
" />
<path d="M106.4986 92.0067
L105.8938 92.0067
" />
<path d="M105.8938 92.0067
L105.8938 90.7367
" />
<path d="M105.8938 90.7367
L106.4986 90.7367
" />
<path d="M107.7685 92.0067
L107.3452 91.4020
" />
<path d="M107.0428 92.0067
L107.0428 90.7367
" />
<path d="M107.0428 90.7367
L107.5266 90.7367
" />
<path d="M107.5266 90.7367
L107.6476 90.7972
" />
<path d="M107.6476 90.7972
L107.7081 90.8577
" />
<path d="M107.7081 90.8577
L107.7685 90.9786
" />
<path d="M107.7685 90.9786
L107.7685 91.1601
" />
<path d="M107.7685 91.1601
L107.7081 91.2810
" />
<path d="M107.7081 91.2810
L107.6476 91.3415
" />
<path d="M107.6476 91.3415
L107.5266 91.4020
" />
<path d="M107.5266 91.4020
L107.0428 91.4020
" />
</g><path d="M109.2200 81.2800
L111.7600 81.2800
" />
</g>
<g style="fill:#CB4B16; fill-opacity:0.0; 
stroke:#CB4B16; stroke-width:0.4000; stroke-opacity:1; 
stroke-linecap:round; stroke-linejoin:round;">
</g>
<g style="fill:#CB4B16; fill-opacity:0.0; 
stroke:#CB4B16; stroke-width:0.1524; stroke-opacity:1; 
stroke-linecap:round; stroke-linejoin:round;">
<text x="108.2040" y="81.9150"
textLength="9.2747" font-size="1.6933" lengthAdjust="spacingAndGlyphs"
text-anchor="end" opacity="0">SPI/UART</text>
<g class="stroked-text"><desc>SPI/UART</desc>
<path d="M99.2742 81.7991
L99.4556 81.8595
" />
<path d="M99.4556 81.8595
L99.7580 81.8595
" />
<path d="M99.7580 81.8595
L99.8789 81.7991
" />
<path d="M99.8789 81.7991
L99.9394 81.7386
" />
<path d="M99.9394 81.7386
L99.9999 81.6176
" />
<path d="M99.9999 81.6176
L99.9999 81.4967
" />
<path d="M99.9999 81.4967
L99.9394 81.3757
" />
<path d="M99.9394 81.3757
L99.8789 81.3152
" />
<path d="M99.8789 81.3152
L99.7580 81.2548
" />
<path d="M99.7580 81.2548
L99.5161 81.1943
" />
<path d="M99.5161 81.1943
L99.3951 81.1338
" />
<path d="M99.3951 81.1338
L99.3346 81.0733
" />
<path d="M99.3346 81.0733
L99.2742 80.9524
" />
<path d="M99.2742 80.9524
L99.2742 80.8314
" />
<path d="M99.2742 80.8314
L99.3346 80.7105
" />
<path d="M99.3346 80.7105
L99.3951 80.6500
" />
<path d="M99.3951 80.6500
L99.5161 80.5895
" />
<path d="M99.5161 80.5895
L99.8184 80.5895
" />
<path d="M99.8184 80.5895
L99.9999 80.6500
" />
<path d="M100.5441 81.8595
L100.5441 80.5895
" />
<path d="M100.5441 80.5895
L101.0279 80.5895
" />
<path d="M101.0279 80.5895
L101.1489 80.6500
" />
<path d="M101.1489 80.6500
L101.2094 80.7105
" />
<path d="M101.2094 80.7105
L101.2698 80.8314
" />
<path d="M101.2698 80.8314
L101.2698 81.0129
" />
<path d="M101.2698 81.0129
L101.2094 81.1338
" />
<path d="M101.2094 81.1338
L101.1489 81.1943
" />
<path d="M101.1489 81.1943
L101.0279 81.2548
" />
<path d="M101.0279 81.2548
L100.5441 81.2548
" />
<path d="M101.8141 81.8595
L101.8141 80.5895
" />
<path d="M103.3261 80.5291
L102.2375 82.1619
" />
<path d="M103.7494 80.5895
L103.7494 81.6176
" />
<path d="M103.7494 81.6176
L103.8099 81.7386
" />
<path d="M103.8099 81.7386
L103.8704 81.7991
" />
<path d="M103.8704 81.7991
L103.9913 81.8595
" />
<path d="M103.9913 81.8595
L104.2332 81.8595
" />
<path d="M104.2332 81.8595
L104.3542 81.7991
" />
<path d="M104.3542 81.7991
L104.4147 81.7386
" />
<path d="M104.4147 81.7386
L104.4751 81.6176
" />
<path d="M104.4751 81.6176
L104.4751 80.5895
" />
<path d="M105.0195 81.4967
L105.6242 81.4967
" />
<path d="M104.8985 81.8595
L105.3218 80.5895
" />
<path d="M105.3218 80.5895
L105.7452 81.8595
" />
<path d="M106.8942 81.8595
L106.4709 81.2548
" />
<path d="M106.1685 81.8595
L106.1685 80.5895
" />
<path d="M106.1685 80.5895
L106.6523 80.5895
" />
<path d="M106.6523 80.5895
L106.7733 80.6500
" />
<path d="M106.7733 80.6500
L106.8338 80.7105
" />
<path d="M106.8338 80.7105
L106.8942 80.8314
" />
<path d="M106.8942 80.8314
L106.8942 81.0129
" />
<path d="M106.8942 81.0129
L106.8338 81.1338
" />
<path d="M106.8338 81.1338
L106.7733 81.1943
" />
<path d="M106.7733 81.1943
L106.6523 81.2548
" />
<path d="M106.6523 81.2548
L106.1685 81.2548
" />
<path d="M107.2571 80.5895
L107.9828 80.5895
" />
<path d="M107.6200 81.8595
L107.6200 80.5895
" />
</g></g>
</g>
<g style="fill:#CB4B16; fill-opacity:0.0; 
stroke:#CB4B16; stroke-width:0.1524; stroke-opacity:1; 
stroke-linecap:round; stroke-linejoin:round;">
<g >
</g>
<g style="fill:#586E75; fill-opacity:0.0; 
stroke:#586E75; stroke-width:0.1524; stroke-opacity:1; 
stroke-linecap:round; stroke-linejoin:round;">
</g>
<g style="fill:#586E75; fill-opacity:0.0; 
stroke:#586E75; stroke-width:0.4000; stroke-opacity:1; 
stroke-linecap:round; stroke-linejoin:round;">
<path style="fill:#586E75; fill-opacity:0.0; 
stroke:#586E75; stroke-width:0.4000; stroke-opacity:1; 
stroke-linecap:round; stroke-linejoin:round;fill:none"
d="M 139.7000,97.7900
139.7000,104.1400
119.3800,104.1400
119.3800,78.7400
139.7000,78.7400
139.7000,85.0900
" /> 
</g>
<g style="fill:#586E75; fill-opacity:0.0; 
stroke:#586E75; stroke-width:0.4000; stroke-opacity:1; 
stroke-linecap:round; stroke-linejoin:round;stroke-dasharray:4.4000,1.6000;">
<rect x="137.160000" y="85.090000" width="5.080000" height="12.700000" rx="0.000000" />
</g>
<g style="fill:#586E75; fill-opacity:0.0; 
stroke:#586E75; stroke-width:0.4000; stroke-opacity:1; 
stroke-linecap:round; stroke-linejoin:round;">
<text x="129.5400" y="92.0750"
textLength="9.4730" font-size="1.6933" lengthAdjust="spacingAndGlyphs"
text-anchor="middle" opacity="0">TMC51X0</text>
<g class="stroked-text"><desc>TMC51X0</desc>
<path d="M125.3974 90.7367
L126.1231 90.7367
" />
<path d="M125.7603 92.0067
L125.7603 90.7367
" />
<path d="M126.5464 92.0067
L126.5464 90.7367
" />
<path d="M126.5464 90.7367
L126.9698 91.6439
" />
<path d="M126.9698 91.6439
L127.3931 90.7367
" />
<path d="M127.3931 90.7367
L127.3931 92.0067
" />
<path d="M128.7235 91.8858
L128.6631 91.9463
" />
<path d="M128.6631 91.9463
L128.4816 92.0067
" />
<path d="M128.4816 92.0067
L128.3607 92.0067
" />
<path d="M128.3607 92.0067
L128.1793 91.9463
" />
<path d="M128.1793 91.9463
L128.0583 91.8253
" />
<path d="M128.0583 91.8253
L127.9978 91.7043
" />
<path d="M127.9978 91.7043
L127.9374 91.4624
" />
<path d="M127.9374 91.4624
L127.9374 91.2810
" />
<path d="M127.9374 91.2810
L127.9978 91.0391
" />
<path d="M127.9978 91.0391
L128.0583 90.9182
" />
<path d="M128.0583 90.9182
L128.1793 90.7972
" />
<path d="M128.1793 90.7972
L128.3607 90.7367
" />
<path d="M128.3607 90.7367
L128.4816 90.7367
" />
<path d="M128.4816 90.7367
L128.6631 90.7972
" />
<path d="M128.6631 90.7972
L128.7235 90.8577
" />
<path d="M129.8726 90.7367
L129.2678 90.7367
" />
<path d="M129.2678 90.7367
L129.2074 91.3415
" />
<path d="M129.2074 91.3415
L129.2678 91.2810
" />
<path d="M129.2678 91.2810
L129.3888 91.2205
" />
<path d="M129.3888 91.2205
L129.6912 91.2205
" />
<path d="M129.6912 91.2205
L129.8121 91.2810
" />
<path d="M129.8121 91.2810
L129.8726 91.3415
" />
<path d="M129.8726 91.3415
L129.9331 91.4624
" />
<path d="M129.9331 91.4624
L129.9331 91.7648
" />
<path d="M129.9331 91.7648
L129.8726 91.8858
" />
<path d="M129.8726 91.8858
L129.8121 91.9463
" />
<path d="M129.8121 91.9463
L129.6912 92.0067
" />
<path d="M129.6912 92.0067
L129.3888 92.0067
" />
<path d="M129.3888 92.0067
L129.2678 91.9463
" />
<path d="M129.2678 91.9463
L129.2074 91.8858
" />
<path d="M131.1426 92.0067
L130.4169 92.0067
" />
<path d="M130.7797 92.0067
L130.7797 90.7367
" />
<path d="M130.7797 90.7367
L130.6588 90.9182
" />
<path d="M130.6588 90.9182
L130.5378 91.0391
" />
<path d="M130.5378 91.0391
L130.4169 91.0996
" />
<path d="M131.5659 90.7367
L132.4125 92.0067
" />
<path d="M132.4125 90.7367
L131.5659 92.0067
" />
<path d="M133.1382 90.7367
L133.2592 90.7367
" />
<path d="M133.2592 90.7367
L133.3801 90.7972
" />
<path d="M133.3801 90.7972
L133.4406 90.8577
" />
<path d="M133.4406 90.8577
L133.5011 90.9786
" />
<path d="M133.5011 90.9786
L133.5616 91.2205
" />
<path d="M133.5616 91.2205
L133.5616 91.5229
" />
<path d="M133.5616 91.5229
L133.5011 91.7648
" />
<path d="M133.5011 91.7648
L133.4406 91.8858
" />
<path d="M133.4406 91.8858
L133.3801 91.9463
" />
<path d="M133.3801 91.9463
L133.2592 92.0067
" />
<path d="M133.2592 92.0067
L133.1382 92.0067
" />
<path d="M133.1382 92.0067
L133.0173 91.9463
" />
<path d="M133.0173 91.9463
L132.9568 91.8858
" />
<path d="M132.9568 91.8858
L132.8963 91.7648
" />
<path d="M132.8963 91.7648
L132.8359 91.5229
" />
<path d="M132.8359 91.5229
L132.8359 91.2205
" />
<path d="M132.8359 91.2205
L132.8963 90.9786
" />
<path d="M132.8963 90.9786
L132.9568 90.8577
" />
<path d="M132.9568 90.8577
L133.0173 90.7972
" />
<path d="M133.0173 90.7972
L133.1382 90.7367
" />
</g><path d="M119.3800 81.2800
L116.8400 81.2800
" />
<path d="M142.2400 86.3600
L144.7800 86.3600
" />
<path d="M142.2400 88.9000
L144.7800 88.9000
" />
<path d="M142.2400 93.9800
L144.7800 93.9800
" />
<path d="M142.2400 96.5200
L144.7800 96.5200
" />
</g>
</g>
<g style="fill:#586E75; fill-opacity:0.0; 
stroke:#586E75; stroke-width:0.1524; stroke-opacity:1; 
stroke-linecap:round; stroke-linejoin:round;">
<g >
</g>
<g style="fill:#586E75; fill-opacity:0.0; 
stroke:#586E75; stroke-width:0.4000; stroke-opacity:1; 
stroke-linecap:round; stroke-linejoin:round;">
<path style="fill:#586E75; fill-opacity:0.0; 
stroke:#586E75; stroke-width:0.4000; stroke-opacity:1; 
stroke-linecap:round; stroke-linejoin:round;fill:none"
d="M 168.9100,89.4080
168.9100,85.5980
170.1800,88.1380
171.4500,85.5980
171.4500,89.4080
" /> 
<path d="M165.7350 90.1700 A0.6350 0.6350 0.0 0 0 165.7350 88.9000" />
<path d="M165.7350 88.9000 A0.6350 0.6350 0.0 0 0 165.7350 87.6300" />
<path d="M165.7350 87.6300 A0.6350 0.6350 0.0 0 0 165.7350 86.3600" />
<path d="M165.7350 86.3600 A0.6350 0.6350 0.0 0 0 165.7350 85.0900" />
<path d="M168.9100 92.0750 A0.6350 0.6350 0.0 0 0 167.6400 92.0750" />
<path d="M170.1800 92.0750 A0.6350 0.6350 0.0 0 0 168.9100 92.0750" />
<path style="fill:#586E75; fill-opacity:0.0; 
stroke:#586E75; stroke-width:0.4000; stroke-opacity:1; 
stroke-linecap:round; stroke-linejoin:round;fill:none"
d="M 165.1000,90.1700
165.7350,90.1700
" /> 
<path style="fill:#586E75; fill-opacity:0.0; 
stroke:#586E75; stroke-width:0.4000; stroke-opacity:1; 
stroke-linecap:round; stroke-linejoin:round;fill:none"
d="M 165.1000,85.0900
165.7350,85.0900
" /> 
<path style="fill:#586E75; fill-opacity:0.0; 
stroke:#586E75; stroke-width:0.4000; stroke-opacity:1; 
stroke-linecap:round; stroke-linejoin:round;fill:none"
d="M 167.6400,92.7100
167.6400,92.0750
" /> 
<path style="fill:#586E75; fill-opacity:0.0; 
stroke:#586E75; stroke-width:0.4000; stroke-opacity:1; 
stroke-linecap:round; stroke-linejoin:round;fill:none"
d="M 172.7200,92.7100
172.7200,92.0750
" /> 
<circle cx="170.1800" cy="87.6300" r="3.2512" /> 
<path d="M171.4500 92.0750 A0.6350 0.6350 0.0 0 0 170.1800 92.0750" />
<path d="M172.7200 92.0750 A0.6350 0.6350 0.0 0 0 171.4500 92.0750" />
<path d="M165.1000 85.0900
L161.2900 85.0900
" />
<path d="M165.1000 90.1700
L161.2900 90.1700
" />
<path d="M167.6400 92.7100
L167.6400 96.5200
" />
<path d="M172.7200 92.7100
L172.7200 96.5200
" />
</g>
</g>
<g style="fill:#586E75; fill-opacity:0.0; 
stroke:#586E75; stroke-width:0.1588; stroke-opacity:1; 
stroke-linecap:round; stroke-linejoin:round;">
</g>
<g style="fill:#586E75; fill-opacity:0.0; 
stroke:#586E75; stroke-width:0.4000; stroke-opacity:1; 
stroke-linecap:round; stroke-linejoin:round;">
</g>
<g style="fill:#2AA198; fill-opacity:0.0; 
stroke:#2AA198; stroke-width:0.4000; stroke-opacity:1; 
stroke-linecap:round; stroke-linejoin:round;">
<g transform="rotate(-90.000000 167.2907 99.0600)">
<text x="167.2907" y="99.0600"
textLength="3.7884" font-size="1.6933" lengthAdjust="spacingAndGlyphs"
text-anchor="end" opacity="0">B+</text>
</g>
<g class="stroked-text"><desc>B+</desc>
<path d="M166.4492 101.4397
L166.5097 101.2583
" />
<path d="M166.5097 101.2583
L166.5701 101.1978
" />
<path d="M166.5701 101.1978
L166.6911 101.1374
" />
<path d="M166.6911 101.1374
L166.8725 101.1374
" />
<path d="M166.8725 101.1374
L166.9935 101.1978
" />
<path d="M166.9935 101.1978
L167.0540 101.2583
" />
<path d="M167.0540 101.2583
L167.1144 101.3793
" />
<path d="M167.1144 101.3793
L167.1144 101.8631
" />
<path d="M167.1144 101.8631
L165.8444 101.8631
" />
<path d="M165.8444 101.8631
L165.8444 101.4397
" />
<path d="M165.8444 101.4397
L165.9049 101.3188
" />
<path d="M165.9049 101.3188
L165.9654 101.2583
" />
<path d="M165.9654 101.2583
L166.0863 101.1978
" />
<path d="M166.0863 101.1978
L166.2073 101.1978
" />
<path d="M166.2073 101.1978
L166.3282 101.2583
" />
<path d="M166.3282 101.2583
L166.3887 101.3188
" />
<path d="M166.3887 101.3188
L166.4492 101.4397
" />
<path d="M166.4492 101.4397
L166.4492 101.8631
" />
<path d="M166.6306 100.5931
L166.6306 99.6255
" />
<path d="M167.1144 100.1093
L166.1468 100.1093
" />
</g></g>
<g style="fill:#2AA198; fill-opacity:0.0; 
stroke:#2AA198; stroke-width:0.1588; stroke-opacity:1; 
stroke-linecap:round; stroke-linejoin:round;">
</g>
<g style="fill:#2AA198; fill-opacity:0.0; 
stroke:#2AA198; stroke-width:0.4000; stroke-opacity:1; 
stroke-linecap:round; stroke-linejoin:round;">
<text x="158.7500" y="89.8207"
textLength="3.6070" font-size="1.6933" lengthAdjust="spacingAndGlyphs"
text-anchor="end" opacity="0">A-</text>
<g class="stroked-text"><desc>A-</desc>
<path d="M156.0678 89.2816
L156.6725 89.2816
" />
<path d="M155.9468 89.6444
L156.3701 88.3744
" />
<path d="M156.3701 88.3744
L156.7935 89.6444
" />
<path d="M157.2168 89.1606
L158.1845 89.1606
" />
</g></g>
<g style="fill:#2AA198; fill-opacity:0.0; 
stroke:#2AA198; stroke-width:0.1588; stroke-opacity:1; 
stroke-linecap:round; stroke-linejoin:round;">
</g>
<g style="fill:#2AA198; fill-opacity:0.0; 
stroke:#2AA198; stroke-width:0.4000; stroke-opacity:1; 
stroke-linecap:round; stroke-linejoin:round;">
<text x="158.7500" y="84.7407"
textLength="3.6070" font-size="1.6933" lengthAdjust="spacingAndGlyphs"
text-anchor="end" opacity="0">A+</text>
<g class="stroked-text"><desc>A+</desc>
<path d="M156.0678 84.2016
L156.6725 84.2016
" />
<path d="M155.9468 84.5644
L156.3701 83.2944
" />
<path d="M156.3701 83.2944
L156.7935 84.5644
" />
<path d="M157.2168 84.0806
L158.1845 84.0806
" />
<path d="M157.7006 84.5644
L157.7006 83.5968
" />
</g></g>
<g style="fill:#2AA198; fill-opacity:0.0; 
stroke:#2AA198; stroke-width:0.1588; stroke-opacity:1; 
stroke-linecap:round; stroke-linejoin:round;">
</g>
<g style="fill:#2AA198; fill-opacity:0.0; 
stroke:#2AA198; stroke-width:0.4000; stroke-opacity:1; 
stroke-linecap:round; stroke-linejoin:round;">
<text x="147.3200" y="96.1707"
textLength="3.7884" font-size="1.6933" lengthAdjust="spacingAndGlyphs"
text-anchor="start" opacity="0">B-</text>
<g class="stroked-text"><desc>B-</desc>
<path d="M148.3088 95.3292
L148.4902 95.3897
" />
<path d="M148.4902 95.3897
L148.5507 95.4501
" />
<path d="M148.5507 95.4501
L148.6111 95.5711
" />
<path d="M148.6111 95.5711
L148.6111 95.7525
" />
<path d="M148.6111 95.7525
L148.5507 95.8735
" />
<path d="M148.5507 95.8735
L148.4902 95.9340
" />
<path d="M148.4902 95.9340
L148.3692 95.9944
" />
<path d="M148.3692 95.9944
L147.8854 95.9944
" />
<path d="M147.8854 95.9944
L147.8854 94.7244
" />
<path d="M147.8854 94.7244
L148.3088 94.7244
" />
<path d="M148.3088 94.7244
L148.4297 94.7849
" />
<path d="M148.4297 94.7849
L148.4902 94.8454
" />
<path d="M148.4902 94.8454
L148.5507 94.9663
" />
<path d="M148.5507 94.9663
L148.5507 95.0873
" />
<path d="M148.5507 95.0873
L148.4902 95.2082
" />
<path d="M148.4902 95.2082
L148.4297 95.2687
" />
<path d="M148.4297 95.2687
L148.3088 95.3292
" />
<path d="M148.3088 95.3292
L147.8854 95.3292
" />
<path d="M149.1554 95.5106
L150.1231 95.5106
" />
</g></g>
<g style="fill:#2AA198; fill-opacity:0.0; 
stroke:#2AA198; stroke-width:0.1588; stroke-opacity:1; 
stroke-linecap:round; stroke-linejoin:round;">
</g>
<g style="fill:#2AA198; fill-opacity:0.0; 
stroke:#2AA198; stroke-width:0.4000; stroke-opacity:1; 
stroke-linecap:round; stroke-linejoin:round;">
<text x="147.3200" y="86.0107"
textLength="3.6070" font-size="1.6933" lengthAdjust="spacingAndGlyphs"
text-anchor="start" opacity="0">A+</text>
<g class="stroked-text"><desc>A+</desc>
<path d="M147.8250 85.4716
L148.4297 85.4716
" />
<path d="M147.7040 85.8344
L148.1273 84.5644
" />
<path d="M148.1273 84.5644
L148.5507 85.8344
" />
<path d="M148.9740 85.3506
L149.9417 85.3506
" />
<path d="M149.4578 85.8344
L149.4578 84.8668
" />
</g></g>
<g style="fill:#2AA198; fill-opacity:0.0; 
stroke:#2AA198; stroke-width:0.1588; stroke-opacity:1; 
stroke-linecap:round; stroke-linejoin:round;">
</g>
<g style="fill:#2AA198; fill-opacity:0.0; 
stroke:#2AA198; stroke-width:0.4000; stroke-opacity:1; 
stroke-linecap:round; stroke-linejoin:round;">
<text x="147.3200" y="93.6307"
textLength="3.7884" font-size="1.6933" lengthAdjust="spacingAndGlyphs"
text-anchor="start" opacity="0">B+</text>
<g class="stroked-text"><desc>B+</desc>
<path d="M148.3088 92.7892
L148.4902 92.8497
" />
<path d="M148.4902 92.8497
L148.5507 92.9101
" />
<path d="M148.5507 92.9101
L148.6111 93.0311
" />
<path d="M148.6111 93.0311
L148.6111 93.2125
" />
<path d="M148.6111 93.2125
L148.5507 93.3335
" />
<path d="M148.5507 93.3335
L148.4902 93.3940
" />
<path d="M148.4902 93.3940
L148.3692 93.4544
" />
<path d="M148.3692 93.4544
L147.8854 93.4544
" />
<path d="M147.8854 93.4544
L147.8854 92.1844
" />
<path d="M147.8854 92.1844
L148.3088 92.1844
" />
<path d="M148.3088 92.1844
L148.4297 92.2449
" />
<path d="M148.4297 92.2449
L148.4902 92.3054
" />
<path d="M148.4902 92.3054
L148.5507 92.4263
" />
<path d="M148.5507 92.4263
L148.5507 92.5473
" />
<path d="M148.5507 92.5473
L148.4902 92.6682
" />
<path d="M148.4902 92.6682
L148.4297 92.7287
" />
<path d="M148.4297 92.7287
L148.3088 92.7892
" />
<path d="M148.3088 92.7892
L147.8854 92.7892
" />
<path d="M149.1554 92.9706
L150.1231 92.9706
" />
<path d="M149.6392 93.4544
L149.6392 92.4868
" />
</g></g>
<g style="fill:#2AA198; fill-opacity:0.0; 
stroke:#2AA198; stroke-width:0.1588; stroke-opacity:1; 
stroke-linecap:round; stroke-linejoin:round;">
</g>
<g style="fill:#2AA198; fill-opacity:0.0; 
stroke:#2AA198; stroke-width:0.4000; stroke-opacity:1; 
stroke-linecap:round; stroke-linejoin:round;">
<text x="147.3200" y="88.5507"
textLength="3.6070" font-size="1.6933" lengthAdjust="spacingAndGlyphs"
text-anchor="start" opacity="0">A-</text>
<g class="stroked-text"><desc>A-</desc>
<path d="M147.8250 88.0116
L148.4297 88.0116
" />
<path d="M147.7040 88.3744
L148.1273 87.1044
" />
<path d="M148.1273 87.1044
L148.5507 88.3744
" />
<path d="M148.9740 87.8906
L149.9417 87.8906
" />
</g></g>
<g style="fill:#2AA198; fill-opacity:0.0; 
stroke:#2AA198; stroke-width:0.1588; stroke-opacity:1; 
stroke-linecap:round; stroke-linejoin:round;">
</g>
<g style="fill:#2AA198; fill-opacity:0.0; 
stroke:#2AA198; stroke-width:0.4000; stroke-opacity:1; 
stroke-linecap:round; stroke-linejoin:round;">
<g transform="rotate(-90.000000 172.3707 99.0600)">
<text x="172.3707" y="99.0600"
textLength="3.7884" font-size="1.6933" lengthAdjust="spacingAndGlyphs"
text-anchor="end" opacity="0">B-</text>
</g>
<g class="stroked-text"><desc>B-</desc>
<path d="M171.5292 101.4397
L171.5897 101.2583
" />
<path d="M171.5897 101.2583
L171.6501 101.1978
" />
<path d="M171.6501 101.1978
L171.7711 101.1374
" />
<path d="M171.7711 101.1374
L171.9525 101.1374
" />
<path d="M171.9525 101.1374
L172.0735 101.1978
" />
<path d="M172.0735 101.1978
L172.1340 101.2583
" />
<path d="M172.1340 101.2583
L172.1944 101.3793
" />
<path d="M172.1944 101.3793
L172.1944 101.8631
" />
<path d="M172.1944 101.8631
L170.9244 101.8631
" />
<path d="M170.9244 101.8631
L170.9244 101.4397
" />
<path d="M170.9244 101.4397
L170.9849 101.3188
" />
<path d="M170.9849 101.3188
L171.0454 101.2583
" />
<path d="M171.0454 101.2583
L171.1663 101.1978
" />
<path d="M171.1663 101.1978
L171.2873 101.1978
" />
<path d="M171.2873 101.1978
L171.4082 101.2583
" />
<path d="M171.4082 101.2583
L171.4687 101.3188
" />
<path d="M171.4687 101.3188
L171.5292 101.4397
" />
<path d="M171.5292 101.4397
L171.5292 101.8631
" />
<path d="M171.7106 100.5931
L171.7106 99.6255
" />
</g></g>
<g style="fill:#2AA198; fill-opacity:0.0; 
stroke:#2AA198; stroke-width:0.1524; stroke-opacity:1; 
stroke-linecap:round; stroke-linejoin:round;">
</g>
<g style="fill:#859900; fill-opacity:0.0; 
stroke:#859900; stroke-width:0.1524; stroke-opacity:1; 
stroke-linecap:round; stroke-linejoin:round;">
</g>
<g style="fill:#859900; fill-opacity:0.0; 
stroke:#859900; stroke-width:0.4000; stroke-opacity:1; 
stroke-linecap:round; stroke-linejoin:round;">
<path d="M147.3200 93.9800
L144.7800 93.9800
" />
</g>
<g style="fill:#859900; fill-opacity:0.0; 
stroke:#859900; stroke-width:0.1524; stroke-opacity:1; 
stroke-linecap:round; stroke-linejoin:round;">
</g>
<g style="fill:#859900; fill-opacity:0.0; 
stroke:#859900; stroke-width:0.4000; stroke-opacity:1; 
stroke-linecap:round; stroke-linejoin:round;">
<path d="M158.7500 85.0900
L161.2900 85.0900
" />
</g>
<g style="fill:#859900; fill-opacity:0.0; 
stroke:#859900; stroke-width:0.1524; stroke-opacity:1; 
stroke-linecap:round; stroke-linejoin:round;">
</g>
<g style="fill:#859900; fill-opacity:0.0; 
stroke:#859900; stroke-width:0.4000; stroke-opacity:1; 
stroke-linecap:round; stroke-linejoin:round;">
<path d="M147.3200 96.5200
L144.7800 96.5200
" />
</g>
<g style="fill:#859900; fill-opacity:0.0; 
stroke:#859900; stroke-width:0.1524; stroke-opacity:1; 
stroke-linecap:round; stroke-linejoin:round;">
</g>
<g style="fill:#859900; fill-opacity:0.0; 
stroke:#859900; stroke-width:0.4000; stroke-opacity:1; 
stroke-linecap:round; stroke-linejoin:round;">
<path d="M167.6400 99.0600
L167.6400 96.5200
" />
</g>
<g style="fill:#859900; fill-opacity:0.0; 
stroke:#859900; stroke-width:0.1524; stroke-opacity:1; 
stroke-linecap:round; stroke-linejoin:round;">
</g>
<g style="fill:#859900; fill-opacity:0.0; 
stroke:#859900; stroke-width:0.4000; stroke-opacity:1; 
stroke-linecap:round; stroke-linejoin:round;">
<path d="M172.7200 99.0600
L172.7200 96.5200
" />
</g>
<g style="fill:#859900; fill-opacity:0.0; 
stroke:#859900; stroke-width:0.1524; stroke-opacity:1; 
stroke-linecap:round; stroke-linejoin:round;">
</g>
<g style="fill:#859900; fill-opacity:0.0; 
stroke:#859900; stroke-width:0.4000; stroke-opacity:1; 
stroke-linecap:round; stroke-linejoin:round;">
<path d="M158.7500 90.1700
L161.2900 90.1700
" />
</g>
<g style="fill:#859900; fill-opacity:0.0; 
stroke:#859900; stroke-width:0.1524; stroke-opacity:1; 
stroke-linecap:round; stroke-linejoin:round;">
</g>
<g style="fill:#859900; fill-opacity:0.0; 
stroke:#859900; stroke-width:0.4000; stroke-opacity:1; 
stroke-linecap:round; stroke-linejoin:round;">
<path d="M147.3200 88.9000
L144.7800 88.9000
" />
</g>
<g style="fill:#859900; fill-opacity:0.0; 
stroke:#859900; stroke-width:0.1524; stroke-opacity:1; 
stroke-linecap:round; stroke-linejoin:round;">
</g>
<g style="fill:#859900; fill-opacity:0.0; 
stroke:#859900; stroke-width:0.4000; stroke-opacity:1; 
stroke-linecap:round; stroke-linejoin:round;">
<path d="M147.3200 86.3600
L144.7800 86.3600
" />
</g>
<g style="fill:#859900; fill-opacity:0.0; 
stroke:#859900; stroke-width:0.1524; stroke-opacity:1; 
stroke-linecap:round; stroke-linejoin:round;">
</g>
<g style="fill:#859900; fill-opacity:0.0; 
stroke:#859900; stroke-width:0.4000; stroke-opacity:1; 
stroke-linecap:round; stroke-linejoin:round;">
<path d="M111.7600 81.2800
L116.8400 81.2800
" />
</g> 
</svg>
