<?xml version="1.0" standalone="no"?>
 <!DOCTYPE svg PUBLIC "-//W3C//DTD SVG 1.1//EN" 
 "http://www.w3.org/Graphics/SVG/1.1/DTD/svg11.dtd"> 
<svg
  xmlns:svg="http://www.w3.org/2000/svg"
  xmlns="http://www.w3.org/2000/svg"
  xmlns:xlink="http://www.w3.org/1999/xlink"
  version="1.1"
  width="297.0022mm" height="210.0072mm" viewBox="0.0000 0.0000 297.0022 210.0072">
<title>SVG Image created as trinamic-wiring-TMC51X0-tmc51x0-spi-tmc51x0-bob.svg date 2024/08/01 14:17:40 </title>
  <desc>Image generated by Eeschema-SVG </desc>
<g style="fill:#000000; fill-opacity:1.0000;stroke:#000000; stroke-opacity:1.0000;
stroke-linecap:round; stroke-linejoin:round;"
 transform="translate(0 0) scale(1 1)">
</g>
<g style="fill:#000000; fill-opacity:0.0; 
stroke:#000000; stroke-width:0.1524; stroke-opacity:1; 
stroke-linecap:round; stroke-linejoin:round;">
</g>
<g style="fill:#FFFFFF; fill-opacity:0.0; 
stroke:#FFFFFF; stroke-width:0.1524; stroke-opacity:1; 
stroke-linecap:round; stroke-linejoin:round;">
</g>
<g style="fill:#FFFFFF; fill-opacity:0.0000; 
stroke:#FFFFFF; stroke-width:0.0001; stroke-opacity:1; 
stroke-linecap:round; stroke-linejoin:round;">
<rect x="110.490000" y="59.690000" width="12.700000" height="3.810000" rx="0.000000" />
</g>
<g style="fill:#FFFFFF; fill-opacity:0.0000; 
stroke:#FFFFFF; stroke-width:0.1524; stroke-opacity:1; 
stroke-linecap:round; stroke-linejoin:round;">
</g>
<g style="fill:#FFFFFF; fill-opacity:0.0000; 
stroke:#FFFFFF; stroke-width:0.0001; stroke-opacity:1; 
stroke-linecap:round; stroke-linejoin:round;">
<rect x="162.560000" y="59.690000" width="12.700000" height="3.810000" rx="0.000000" />
</g>
<g style="fill:#FFFFFF; fill-opacity:0.0000; 
stroke:#FFFFFF; stroke-width:0.1524; stroke-opacity:1; 
stroke-linecap:round; stroke-linejoin:round;">
</g>
<g style="fill:#586E75; fill-opacity:1.0000; 
stroke:#586E75; stroke-width:0.1524; stroke-opacity:1; 
stroke-linecap:round; stroke-linejoin:round;">
</g>
<g style="fill:#586E75; fill-opacity:0.0; 
stroke:#586E75; stroke-width:0.4000; stroke-opacity:1; 
stroke-linecap:round; stroke-linejoin:round;">
<rect x="110.490000" y="59.690000" width="12.700000" height="3.810000" rx="0.000000" />
</g>
<g style="fill:#268BD2; fill-opacity:0.0; 
stroke:#268BD2; stroke-width:0.4000; stroke-opacity:1; 
stroke-linecap:round; stroke-linejoin:round;">
</g>
<g style="fill:#268BD2; fill-opacity:0.0; 
stroke:#268BD2; stroke-width:0.3175; stroke-opacity:1; 
stroke-linecap:round; stroke-linejoin:round;">
<text x="110.4900" y="58.9784"
textLength="9.1652" font-size="1.6933" lengthAdjust="spacingAndGlyphs"
text-anchor="start" opacity="0">teensy40</text>
<g class="stroked-text"><desc>teensy40</desc>
<path d="M110.8197 57.9597
L111.3035 57.9597
" />
<path d="M111.0011 57.5363
L111.0011 58.6249
" />
<path d="M111.0011 58.6249
L111.0616 58.7459
" />
<path d="M111.0616 58.7459
L111.1826 58.8063
" />
<path d="M111.1826 58.8063
L111.3035 58.8063
" />
<path d="M112.2106 58.7459
L112.0897 58.8063
" />
<path d="M112.0897 58.8063
L111.8478 58.8063
" />
<path d="M111.8478 58.8063
L111.7268 58.7459
" />
<path d="M111.7268 58.7459
L111.6664 58.6249
" />
<path d="M111.6664 58.6249
L111.6664 58.1411
" />
<path d="M111.6664 58.1411
L111.7268 58.0201
" />
<path d="M111.7268 58.0201
L111.8478 57.9597
" />
<path d="M111.8478 57.9597
L112.0897 57.9597
" />
<path d="M112.0897 57.9597
L112.2106 58.0201
" />
<path d="M112.2106 58.0201
L112.2711 58.1411
" />
<path d="M112.2711 58.1411
L112.2711 58.2620
" />
<path d="M112.2711 58.2620
L111.6664 58.3830
" />
<path d="M113.2992 58.7459
L113.1783 58.8063
" />
<path d="M113.1783 58.8063
L112.9364 58.8063
" />
<path d="M112.9364 58.8063
L112.8154 58.7459
" />
<path d="M112.8154 58.7459
L112.7550 58.6249
" />
<path d="M112.7550 58.6249
L112.7550 58.1411
" />
<path d="M112.7550 58.1411
L112.8154 58.0201
" />
<path d="M112.8154 58.0201
L112.9364 57.9597
" />
<path d="M112.9364 57.9597
L113.1783 57.9597
" />
<path d="M113.1783 57.9597
L113.2992 58.0201
" />
<path d="M113.2992 58.0201
L113.3597 58.1411
" />
<path d="M113.3597 58.1411
L113.3597 58.2620
" />
<path d="M113.3597 58.2620
L112.7550 58.3830
" />
<path d="M113.9040 57.9597
L113.9040 58.8063
" />
<path d="M113.9040 58.0806
L113.9645 58.0201
" />
<path d="M113.9645 58.0201
L114.0855 57.9597
" />
<path d="M114.0855 57.9597
L114.2669 57.9597
" />
<path d="M114.2669 57.9597
L114.3878 58.0201
" />
<path d="M114.3878 58.0201
L114.4483 58.1411
" />
<path d="M114.4483 58.1411
L114.4483 58.8063
" />
<path d="M114.9926 58.7459
L115.1135 58.8063
" />
<path d="M115.1135 58.8063
L115.3554 58.8063
" />
<path d="M115.3554 58.8063
L115.4764 58.7459
" />
<path d="M115.4764 58.7459
L115.5368 58.6249
" />
<path d="M115.5368 58.6249
L115.5368 58.5644
" />
<path d="M115.5368 58.5644
L115.4764 58.4435
" />
<path d="M115.4764 58.4435
L115.3554 58.3830
" />
<path d="M115.3554 58.3830
L115.1740 58.3830
" />
<path d="M115.1740 58.3830
L115.0530 58.3225
" />
<path d="M115.0530 58.3225
L114.9926 58.2016
" />
<path d="M114.9926 58.2016
L114.9926 58.1411
" />
<path d="M114.9926 58.1411
L115.0530 58.0201
" />
<path d="M115.0530 58.0201
L115.1740 57.9597
" />
<path d="M115.1740 57.9597
L115.3554 57.9597
" />
<path d="M115.3554 57.9597
L115.4764 58.0201
" />
<path d="M115.9602 57.9597
L116.2626 58.8063
" />
<path d="M116.5649 57.9597
L116.2626 58.8063
" />
<path d="M116.2626 58.8063
L116.1416 59.1087
" />
<path d="M116.1416 59.1087
L116.0811 59.1692
" />
<path d="M116.0811 59.1692
L115.9602 59.2297
" />
<path d="M117.5930 57.9597
L117.5930 58.8063
" />
<path d="M117.2906 57.4759
L116.9883 58.3830
" />
<path d="M116.9883 58.3830
L117.7744 58.3830
" />
<path d="M118.5001 57.5363
L118.6211 57.5363
" />
<path d="M118.6211 57.5363
L118.7420 57.5968
" />
<path d="M118.7420 57.5968
L118.8025 57.6573
" />
<path d="M118.8025 57.6573
L118.8630 57.7782
" />
<path d="M118.8630 57.7782
L118.9235 58.0201
" />
<path d="M118.9235 58.0201
L118.9235 58.3225
" />
<path d="M118.9235 58.3225
L118.8630 58.5644
" />
<path d="M118.8630 58.5644
L118.8025 58.6854
" />
<path d="M118.8025 58.6854
L118.7420 58.7459
" />
<path d="M118.7420 58.7459
L118.6211 58.8063
" />
<path d="M118.6211 58.8063
L118.5001 58.8063
" />
<path d="M118.5001 58.8063
L118.3792 58.7459
" />
<path d="M118.3792 58.7459
L118.3187 58.6854
" />
<path d="M118.3187 58.6854
L118.2582 58.5644
" />
<path d="M118.2582 58.5644
L118.1978 58.3225
" />
<path d="M118.1978 58.3225
L118.1978 58.0201
" />
<path d="M118.1978 58.0201
L118.2582 57.7782
" />
<path d="M118.2582 57.7782
L118.3187 57.6573
" />
<path d="M118.3187 57.6573
L118.3792 57.5968
" />
<path d="M118.3792 57.5968
L118.5001 57.5363
" />
</g></g>
<g style="fill:#6C71C4; fill-opacity:0.0; 
stroke:#6C71C4; stroke-width:0.3175; stroke-opacity:1; 
stroke-linecap:round; stroke-linejoin:round;">
<text x="110.4900" y="65.3546"
textLength="48.5350" font-size="1.6933" lengthAdjust="spacingAndGlyphs"
text-anchor="start" opacity="0">File: tmc51x0-tmc51x0-bob-teensy40.kicad_sch</text>
<g class="stroked-text"><desc>File: tmc51x0-tmc51x0-bob-teensy40.kicad_sch</desc>
<path d="M111.4245 64.7332
L111.0011 64.7332
" />
<path d="M111.0011 65.3984
L111.0011 64.1284
" />
<path d="M111.0011 64.1284
L111.6059 64.1284
" />
<path d="M112.0897 65.3984
L112.0897 64.5518
" />
<path d="M112.0897 64.1284
L112.0293 64.1889
" />
<path d="M112.0293 64.1889
L112.0897 64.2494
" />
<path d="M112.0897 64.2494
L112.1502 64.1889
" />
<path d="M112.1502 64.1889
L112.0897 64.1284
" />
<path d="M112.0897 64.1284
L112.0897 64.2494
" />
<path d="M112.8760 65.3984
L112.7550 65.3380
" />
<path d="M112.7550 65.3380
L112.6945 65.2170
" />
<path d="M112.6945 65.2170
L112.6945 64.1284
" />
<path d="M113.8435 65.3380
L113.7226 65.3984
" />
<path d="M113.7226 65.3984
L113.4807 65.3984
" />
<path d="M113.4807 65.3984
L113.3597 65.3380
" />
<path d="M113.3597 65.3380
L113.2993 65.2170
" />
<path d="M113.2993 65.2170
L113.2993 64.7332
" />
<path d="M113.2993 64.7332
L113.3597 64.6122
" />
<path d="M113.3597 64.6122
L113.4807 64.5518
" />
<path d="M113.4807 64.5518
L113.7226 64.5518
" />
<path d="M113.7226 64.5518
L113.8435 64.6122
" />
<path d="M113.8435 64.6122
L113.9040 64.7332
" />
<path d="M113.9040 64.7332
L113.9040 64.8541
" />
<path d="M113.9040 64.8541
L113.2993 64.9751
" />
<path d="M114.4483 65.2775
L114.5088 65.3380
" />
<path d="M114.5088 65.3380
L114.4483 65.3984
" />
<path d="M114.4483 65.3984
L114.3879 65.3380
" />
<path d="M114.3879 65.3380
L114.4483 65.2775
" />
<path d="M114.4483 65.2775
L114.4483 65.3984
" />
<path d="M114.4483 64.6122
L114.5088 64.6727
" />
<path d="M114.5088 64.6727
L114.4483 64.7332
" />
<path d="M114.4483 64.7332
L114.3879 64.6727
" />
<path d="M114.3879 64.6727
L114.4483 64.6122
" />
<path d="M114.4483 64.6122
L114.4483 64.7332
" />
<path d="M115.8393 64.5518
L116.3231 64.5518
" />
<path d="M116.0207 64.1284
L116.0207 65.2170
" />
<path d="M116.0207 65.2170
L116.0812 65.3380
" />
<path d="M116.0812 65.3380
L116.2022 65.3984
" />
<path d="M116.2022 65.3984
L116.3231 65.3984
" />
<path d="M116.7464 65.3984
L116.7464 64.5518
" />
<path d="M116.7464 64.6727
L116.8069 64.6122
" />
<path d="M116.8069 64.6122
L116.9279 64.5518
" />
<path d="M116.9279 64.5518
L117.1093 64.5518
" />
<path d="M117.1093 64.5518
L117.2302 64.6122
" />
<path d="M117.2302 64.6122
L117.2907 64.7332
" />
<path d="M117.2907 64.7332
L117.2907 65.3984
" />
<path d="M117.2907 64.7332
L117.3512 64.6122
" />
<path d="M117.3512 64.6122
L117.4721 64.5518
" />
<path d="M117.4721 64.5518
L117.6536 64.5518
" />
<path d="M117.6536 64.5518
L117.7745 64.6122
" />
<path d="M117.7745 64.6122
L117.8350 64.7332
" />
<path d="M117.8350 64.7332
L117.8350 65.3984
" />
<path d="M118.9840 65.3380
L118.8631 65.3984
" />
<path d="M118.8631 65.3984
L118.6212 65.3984
" />
<path d="M118.6212 65.3984
L118.5002 65.3380
" />
<path d="M118.5002 65.3380
L118.4397 65.2775
" />
<path d="M118.4397 65.2775
L118.3793 65.1565
" />
<path d="M118.3793 65.1565
L118.3793 64.7937
" />
<path d="M118.3793 64.7937
L118.4397 64.6727
" />
<path d="M118.4397 64.6727
L118.5002 64.6122
" />
<path d="M118.5002 64.6122
L118.6212 64.5518
" />
<path d="M118.6212 64.5518
L118.8631 64.5518
" />
<path d="M118.8631 64.5518
L118.9840 64.6122
" />
<path d="M120.1331 64.1284
L119.5283 64.1284
" />
<path d="M119.5283 64.1284
L119.4679 64.7332
" />
<path d="M119.4679 64.7332
L119.5283 64.6727
" />
<path d="M119.5283 64.6727
L119.6493 64.6122
" />
<path d="M119.6493 64.6122
L119.9517 64.6122
" />
<path d="M119.9517 64.6122
L120.0726 64.6727
" />
<path d="M120.0726 64.6727
L120.1331 64.7332
" />
<path d="M120.1331 64.7332
L120.1936 64.8541
" />
<path d="M120.1936 64.8541
L120.1936 65.1565
" />
<path d="M120.1936 65.1565
L120.1331 65.2775
" />
<path d="M120.1331 65.2775
L120.0726 65.3380
" />
<path d="M120.0726 65.3380
L119.9517 65.3984
" />
<path d="M119.9517 65.3984
L119.6493 65.3984
" />
<path d="M119.6493 65.3984
L119.5283 65.3380
" />
<path d="M119.5283 65.3380
L119.4679 65.2775
" />
<path d="M121.4031 65.3984
L120.6774 65.3984
" />
<path d="M121.0402 65.3984
L121.0402 64.1284
" />
<path d="M121.0402 64.1284
L120.9193 64.3099
" />
<path d="M120.9193 64.3099
L120.7983 64.4308
" />
<path d="M120.7983 64.4308
L120.6774 64.4913
" />
<path d="M121.8264 65.3984
L122.4916 64.5518
" />
<path d="M121.8264 64.5518
L122.4916 65.3984
" />
<path d="M123.2173 64.1284
L123.3383 64.1284
" />
<path d="M123.3383 64.1284
L123.4592 64.1889
" />
<path d="M123.4592 64.1889
L123.5197 64.2494
" />
<path d="M123.5197 64.2494
L123.5802 64.3703
" />
<path d="M123.5802 64.3703
L123.6407 64.6122
" />
<path d="M123.6407 64.6122
L123.6407 64.9146
" />
<path d="M123.6407 64.9146
L123.5802 65.1565
" />
<path d="M123.5802 65.1565
L123.5197 65.2775
" />
<path d="M123.5197 65.2775
L123.4592 65.3380
" />
<path d="M123.4592 65.3380
L123.3383 65.3984
" />
<path d="M123.3383 65.3984
L123.2173 65.3984
" />
<path d="M123.2173 65.3984
L123.0964 65.3380
" />
<path d="M123.0964 65.3380
L123.0359 65.2775
" />
<path d="M123.0359 65.2775
L122.9754 65.1565
" />
<path d="M122.9754 65.1565
L122.9150 64.9146
" />
<path d="M122.9150 64.9146
L122.9150 64.6122
" />
<path d="M122.9150 64.6122
L122.9754 64.3703
" />
<path d="M122.9754 64.3703
L123.0359 64.2494
" />
<path d="M123.0359 64.2494
L123.0964 64.1889
" />
<path d="M123.0964 64.1889
L123.2173 64.1284
" />
<path d="M124.1849 64.9146
L125.1526 64.9146
" />
<path d="M125.5759 64.5518
L126.0597 64.5518
" />
<path d="M125.7573 64.1284
L125.7573 65.2170
" />
<path d="M125.7573 65.2170
L125.8178 65.3380
" />
<path d="M125.8178 65.3380
L125.9388 65.3984
" />
<path d="M125.9388 65.3984
L126.0597 65.3984
" />
<path d="M126.4830 65.3984
L126.4830 64.5518
" />
<path d="M126.4830 64.6727
L126.5435 64.6122
" />
<path d="M126.5435 64.6122
L126.6645 64.5518
" />
<path d="M126.6645 64.5518
L126.8459 64.5518
" />
<path d="M126.8459 64.5518
L126.9668 64.6122
" />
<path d="M126.9668 64.6122
L127.0273 64.7332
" />
<path d="M127.0273 64.7332
L127.0273 65.3984
" />
<path d="M127.0273 64.7332
L127.0878 64.6122
" />
<path d="M127.0878 64.6122
L127.2087 64.5518
" />
<path d="M127.2087 64.5518
L127.3902 64.5518
" />
<path d="M127.3902 64.5518
L127.5111 64.6122
" />
<path d="M127.5111 64.6122
L127.5716 64.7332
" />
<path d="M127.5716 64.7332
L127.5716 65.3984
" />
<path d="M128.7206 65.3380
L128.5997 65.3984
" />
<path d="M128.5997 65.3984
L128.3578 65.3984
" />
<path d="M128.3578 65.3984
L128.2368 65.3380
" />
<path d="M128.2368 65.3380
L128.1763 65.2775
" />
<path d="M128.1763 65.2775
L128.1159 65.1565
" />
<path d="M128.1159 65.1565
L128.1159 64.7937
" />
<path d="M128.1159 64.7937
L128.1763 64.6727
" />
<path d="M128.1763 64.6727
L128.2368 64.6122
" />
<path d="M128.2368 64.6122
L128.3578 64.5518
" />
<path d="M128.3578 64.5518
L128.5997 64.5518
" />
<path d="M128.5997 64.5518
L128.7206 64.6122
" />
<path d="M129.8697 64.1284
L129.2649 64.1284
" />
<path d="M129.2649 64.1284
L129.2045 64.7332
" />
<path d="M129.2045 64.7332
L129.2649 64.6727
" />
<path d="M129.2649 64.6727
L129.3859 64.6122
" />
<path d="M129.3859 64.6122
L129.6883 64.6122
" />
<path d="M129.6883 64.6122
L129.8092 64.6727
" />
<path d="M129.8092 64.6727
L129.8697 64.7332
" />
<path d="M129.8697 64.7332
L129.9302 64.8541
" />
<path d="M129.9302 64.8541
L129.9302 65.1565
" />
<path d="M129.9302 65.1565
L129.8697 65.2775
" />
<path d="M129.8697 65.2775
L129.8092 65.3380
" />
<path d="M129.8092 65.3380
L129.6883 65.3984
" />
<path d="M129.6883 65.3984
L129.3859 65.3984
" />
<path d="M129.3859 65.3984
L129.2649 65.3380
" />
<path d="M129.2649 65.3380
L129.2045 65.2775
" />
<path d="M131.1397 65.3984
L130.4140 65.3984
" />
<path d="M130.7768 65.3984
L130.7768 64.1284
" />
<path d="M130.7768 64.1284
L130.6559 64.3099
" />
<path d="M130.6559 64.3099
L130.5349 64.4308
" />
<path d="M130.5349 64.4308
L130.4140 64.4913
" />
<path d="M131.5630 65.3984
L132.2282 64.5518
" />
<path d="M131.5630 64.5518
L132.2282 65.3984
" />
<path d="M132.9539 64.1284
L133.0749 64.1284
" />
<path d="M133.0749 64.1284
L133.1958 64.1889
" />
<path d="M133.1958 64.1889
L133.2563 64.2494
" />
<path d="M133.2563 64.2494
L133.3168 64.3703
" />
<path d="M133.3168 64.3703
L133.3773 64.6122
" />
<path d="M133.3773 64.6122
L133.3773 64.9146
" />
<path d="M133.3773 64.9146
L133.3168 65.1565
" />
<path d="M133.3168 65.1565
L133.2563 65.2775
" />
<path d="M133.2563 65.2775
L133.1958 65.3380
" />
<path d="M133.1958 65.3380
L133.0749 65.3984
" />
<path d="M133.0749 65.3984
L132.9539 65.3984
" />
<path d="M132.9539 65.3984
L132.8330 65.3380
" />
<path d="M132.8330 65.3380
L132.7725 65.2775
" />
<path d="M132.7725 65.2775
L132.7120 65.1565
" />
<path d="M132.7120 65.1565
L132.6516 64.9146
" />
<path d="M132.6516 64.9146
L132.6516 64.6122
" />
<path d="M132.6516 64.6122
L132.7120 64.3703
" />
<path d="M132.7120 64.3703
L132.7725 64.2494
" />
<path d="M132.7725 64.2494
L132.8330 64.1889
" />
<path d="M132.8330 64.1889
L132.9539 64.1284
" />
<path d="M133.9215 64.9146
L134.8892 64.9146
" />
<path d="M135.4939 65.3984
L135.4939 64.1284
" />
<path d="M135.4939 64.6122
L135.6149 64.5518
" />
<path d="M135.6149 64.5518
L135.8568 64.5518
" />
<path d="M135.8568 64.5518
L135.9777 64.6122
" />
<path d="M135.9777 64.6122
L136.0382 64.6727
" />
<path d="M136.0382 64.6727
L136.0987 64.7937
" />
<path d="M136.0987 64.7937
L136.0987 65.1565
" />
<path d="M136.0987 65.1565
L136.0382 65.2775
" />
<path d="M136.0382 65.2775
L135.9777 65.3380
" />
<path d="M135.9777 65.3380
L135.8568 65.3984
" />
<path d="M135.8568 65.3984
L135.6149 65.3984
" />
<path d="M135.6149 65.3984
L135.4939 65.3380
" />
<path d="M136.8244 65.3984
L136.7034 65.3380
" />
<path d="M136.7034 65.3380
L136.6429 65.2775
" />
<path d="M136.6429 65.2775
L136.5825 65.1565
" />
<path d="M136.5825 65.1565
L136.5825 64.7937
" />
<path d="M136.5825 64.7937
L136.6429 64.6727
" />
<path d="M136.6429 64.6727
L136.7034 64.6122
" />
<path d="M136.7034 64.6122
L136.8244 64.5518
" />
<path d="M136.8244 64.5518
L137.0058 64.5518
" />
<path d="M137.0058 64.5518
L137.1267 64.6122
" />
<path d="M137.1267 64.6122
L137.1872 64.6727
" />
<path d="M137.1872 64.6727
L137.2477 64.7937
" />
<path d="M137.2477 64.7937
L137.2477 65.1565
" />
<path d="M137.2477 65.1565
L137.1872 65.2775
" />
<path d="M137.1872 65.2775
L137.1267 65.3380
" />
<path d="M137.1267 65.3380
L137.0058 65.3984
" />
<path d="M137.0058 65.3984
L136.8244 65.3984
" />
<path d="M137.7919 65.3984
L137.7919 64.1284
" />
<path d="M137.7919 64.6122
L137.9129 64.5518
" />
<path d="M137.9129 64.5518
L138.1548 64.5518
" />
<path d="M138.1548 64.5518
L138.2757 64.6122
" />
<path d="M138.2757 64.6122
L138.3362 64.6727
" />
<path d="M138.3362 64.6727
L138.3967 64.7937
" />
<path d="M138.3967 64.7937
L138.3967 65.1565
" />
<path d="M138.3967 65.1565
L138.3362 65.2775
" />
<path d="M138.3362 65.2775
L138.2757 65.3380
" />
<path d="M138.2757 65.3380
L138.1548 65.3984
" />
<path d="M138.1548 65.3984
L137.9129 65.3984
" />
<path d="M137.9129 65.3984
L137.7919 65.3380
" />
<path d="M138.9409 64.9146
L139.9086 64.9146
" />
<path d="M140.3319 64.5518
L140.8157 64.5518
" />
<path d="M140.5133 64.1284
L140.5133 65.2170
" />
<path d="M140.5133 65.2170
L140.5738 65.3380
" />
<path d="M140.5738 65.3380
L140.6948 65.3984
" />
<path d="M140.6948 65.3984
L140.8157 65.3984
" />
<path d="M141.7228 65.3380
L141.6019 65.3984
" />
<path d="M141.6019 65.3984
L141.3600 65.3984
" />
<path d="M141.3600 65.3984
L141.2390 65.3380
" />
<path d="M141.2390 65.3380
L141.1786 65.2170
" />
<path d="M141.1786 65.2170
L141.1786 64.7332
" />
<path d="M141.1786 64.7332
L141.2390 64.6122
" />
<path d="M141.2390 64.6122
L141.3600 64.5518
" />
<path d="M141.3600 64.5518
L141.6019 64.5518
" />
<path d="M141.6019 64.5518
L141.7228 64.6122
" />
<path d="M141.7228 64.6122
L141.7833 64.7332
" />
<path d="M141.7833 64.7332
L141.7833 64.8541
" />
<path d="M141.7833 64.8541
L141.1786 64.9751
" />
<path d="M142.8114 65.3380
L142.6905 65.3984
" />
<path d="M142.6905 65.3984
L142.4486 65.3984
" />
<path d="M142.4486 65.3984
L142.3276 65.3380
" />
<path d="M142.3276 65.3380
L142.2672 65.2170
" />
<path d="M142.2672 65.2170
L142.2672 64.7332
" />
<path d="M142.2672 64.7332
L142.3276 64.6122
" />
<path d="M142.3276 64.6122
L142.4486 64.5518
" />
<path d="M142.4486 64.5518
L142.6905 64.5518
" />
<path d="M142.6905 64.5518
L142.8114 64.6122
" />
<path d="M142.8114 64.6122
L142.8719 64.7332
" />
<path d="M142.8719 64.7332
L142.8719 64.8541
" />
<path d="M142.8719 64.8541
L142.2672 64.9751
" />
<path d="M143.4162 64.5518
L143.4162 65.3984
" />
<path d="M143.4162 64.6727
L143.4767 64.6122
" />
<path d="M143.4767 64.6122
L143.5977 64.5518
" />
<path d="M143.5977 64.5518
L143.7791 64.5518
" />
<path d="M143.7791 64.5518
L143.9000 64.6122
" />
<path d="M143.9000 64.6122
L143.9605 64.7332
" />
<path d="M143.9605 64.7332
L143.9605 65.3984
" />
<path d="M144.5048 65.3380
L144.6257 65.3984
" />
<path d="M144.6257 65.3984
L144.8676 65.3984
" />
<path d="M144.8676 65.3984
L144.9886 65.3380
" />
<path d="M144.9886 65.3380
L145.0490 65.2170
" />
<path d="M145.0490 65.2170
L145.0490 65.1565
" />
<path d="M145.0490 65.1565
L144.9886 65.0356
" />
<path d="M144.9886 65.0356
L144.8676 64.9751
" />
<path d="M144.8676 64.9751
L144.6862 64.9751
" />
<path d="M144.6862 64.9751
L144.5652 64.9146
" />
<path d="M144.5652 64.9146
L144.5048 64.7937
" />
<path d="M144.5048 64.7937
L144.5048 64.7332
" />
<path d="M144.5048 64.7332
L144.5652 64.6122
" />
<path d="M144.5652 64.6122
L144.6862 64.5518
" />
<path d="M144.6862 64.5518
L144.8676 64.5518
" />
<path d="M144.8676 64.5518
L144.9886 64.6122
" />
<path d="M145.4724 64.5518
L145.7748 65.3984
" />
<path d="M146.0771 64.5518
L145.7748 65.3984
" />
<path d="M145.7748 65.3984
L145.6538 65.7008
" />
<path d="M145.6538 65.7008
L145.5933 65.7613
" />
<path d="M145.5933 65.7613
L145.4724 65.8218
" />
<path d="M147.1052 64.5518
L147.1052 65.3984
" />
<path d="M146.8028 64.0680
L146.5005 64.9751
" />
<path d="M146.5005 64.9751
L147.2866 64.9751
" />
<path d="M148.0123 64.1284
L148.1333 64.1284
" />
<path d="M148.1333 64.1284
L148.2542 64.1889
" />
<path d="M148.2542 64.1889
L148.3147 64.2494
" />
<path d="M148.3147 64.2494
L148.3752 64.3703
" />
<path d="M148.3752 64.3703
L148.4357 64.6122
" />
<path d="M148.4357 64.6122
L148.4357 64.9146
" />
<path d="M148.4357 64.9146
L148.3752 65.1565
" />
<path d="M148.3752 65.1565
L148.3147 65.2775
" />
<path d="M148.3147 65.2775
L148.2542 65.3380
" />
<path d="M148.2542 65.3380
L148.1333 65.3984
" />
<path d="M148.1333 65.3984
L148.0123 65.3984
" />
<path d="M148.0123 65.3984
L147.8914 65.3380
" />
<path d="M147.8914 65.3380
L147.8309 65.2775
" />
<path d="M147.8309 65.2775
L147.7704 65.1565
" />
<path d="M147.7704 65.1565
L147.7100 64.9146
" />
<path d="M147.7100 64.9146
L147.7100 64.6122
" />
<path d="M147.7100 64.6122
L147.7704 64.3703
" />
<path d="M147.7704 64.3703
L147.8309 64.2494
" />
<path d="M147.8309 64.2494
L147.8914 64.1889
" />
<path d="M147.8914 64.1889
L148.0123 64.1284
" />
<path d="M148.9799 65.2775
L149.0404 65.3380
" />
<path d="M149.0404 65.3380
L148.9799 65.3984
" />
<path d="M148.9799 65.3984
L148.9195 65.3380
" />
<path d="M148.9195 65.3380
L148.9799 65.2775
" />
<path d="M148.9799 65.2775
L148.9799 65.3984
" />
<path d="M149.5847 65.3984
L149.5847 64.1284
" />
<path d="M149.7057 64.9146
L150.0685 65.3984
" />
<path d="M150.0685 64.5518
L149.5847 65.0356
" />
<path d="M150.6128 65.3984
L150.6128 64.5518
" />
<path d="M150.6128 64.1284
L150.5524 64.1889
" />
<path d="M150.5524 64.1889
L150.6128 64.2494
" />
<path d="M150.6128 64.2494
L150.6733 64.1889
" />
<path d="M150.6733 64.1889
L150.6128 64.1284
" />
<path d="M150.6128 64.1284
L150.6128 64.2494
" />
<path d="M151.7619 65.3380
L151.6410 65.3984
" />
<path d="M151.6410 65.3984
L151.3991 65.3984
" />
<path d="M151.3991 65.3984
L151.2781 65.3380
" />
<path d="M151.2781 65.3380
L151.2176 65.2775
" />
<path d="M151.2176 65.2775
L151.1572 65.1565
" />
<path d="M151.1572 65.1565
L151.1572 64.7937
" />
<path d="M151.1572 64.7937
L151.2176 64.6727
" />
<path d="M151.2176 64.6727
L151.2781 64.6122
" />
<path d="M151.2781 64.6122
L151.3991 64.5518
" />
<path d="M151.3991 64.5518
L151.6410 64.5518
" />
<path d="M151.6410 64.5518
L151.7619 64.6122
" />
<path d="M152.8505 65.3984
L152.8505 64.7332
" />
<path d="M152.8505 64.7332
L152.7900 64.6122
" />
<path d="M152.7900 64.6122
L152.6691 64.5518
" />
<path d="M152.6691 64.5518
L152.4272 64.5518
" />
<path d="M152.4272 64.5518
L152.3062 64.6122
" />
<path d="M152.8505 65.3380
L152.7296 65.3984
" />
<path d="M152.7296 65.3984
L152.4272 65.3984
" />
<path d="M152.4272 65.3984
L152.3062 65.3380
" />
<path d="M152.3062 65.3380
L152.2458 65.2170
" />
<path d="M152.2458 65.2170
L152.2458 65.0960
" />
<path d="M152.2458 65.0960
L152.3062 64.9751
" />
<path d="M152.3062 64.9751
L152.4272 64.9146
" />
<path d="M152.4272 64.9146
L152.7296 64.9146
" />
<path d="M152.7296 64.9146
L152.8505 64.8541
" />
<path d="M153.9995 65.3984
L153.9995 64.1284
" />
<path d="M153.9995 65.3380
L153.8786 65.3984
" />
<path d="M153.8786 65.3984
L153.6367 65.3984
" />
<path d="M153.6367 65.3984
L153.5157 65.3380
" />
<path d="M153.5157 65.3380
L153.4552 65.2775
" />
<path d="M153.4552 65.2775
L153.3948 65.1565
" />
<path d="M153.3948 65.1565
L153.3948 64.7937
" />
<path d="M153.3948 64.7937
L153.4552 64.6727
" />
<path d="M153.4552 64.6727
L153.5157 64.6122
" />
<path d="M153.5157 64.6122
L153.6367 64.5518
" />
<path d="M153.6367 64.5518
L153.8786 64.5518
" />
<path d="M153.8786 64.5518
L153.9995 64.6122
" />
<path d="M154.3019 65.5194
L155.2695 65.5194
" />
<path d="M155.5114 65.3380
L155.6323 65.3984
" />
<path d="M155.6323 65.3984
L155.8742 65.3984
" />
<path d="M155.8742 65.3984
L155.9952 65.3380
" />
<path d="M155.9952 65.3380
L156.0556 65.2170
" />
<path d="M156.0556 65.2170
L156.0556 65.1565
" />
<path d="M156.0556 65.1565
L155.9952 65.0356
" />
<path d="M155.9952 65.0356
L155.8742 64.9751
" />
<path d="M155.8742 64.9751
L155.6928 64.9751
" />
<path d="M155.6928 64.9751
L155.5718 64.9146
" />
<path d="M155.5718 64.9146
L155.5114 64.7937
" />
<path d="M155.5114 64.7937
L155.5114 64.7332
" />
<path d="M155.5114 64.7332
L155.5718 64.6122
" />
<path d="M155.5718 64.6122
L155.6928 64.5518
" />
<path d="M155.6928 64.5518
L155.8742 64.5518
" />
<path d="M155.8742 64.5518
L155.9952 64.6122
" />
<path d="M157.1442 65.3380
L157.0233 65.3984
" />
<path d="M157.0233 65.3984
L156.7814 65.3984
" />
<path d="M156.7814 65.3984
L156.6604 65.3380
" />
<path d="M156.6604 65.3380
L156.5999 65.2775
" />
<path d="M156.5999 65.2775
L156.5395 65.1565
" />
<path d="M156.5395 65.1565
L156.5395 64.7937
" />
<path d="M156.5395 64.7937
L156.5999 64.6727
" />
<path d="M156.5999 64.6727
L156.6604 64.6122
" />
<path d="M156.6604 64.6122
L156.7814 64.5518
" />
<path d="M156.7814 64.5518
L157.0233 64.5518
" />
<path d="M157.0233 64.5518
L157.1442 64.6122
" />
<path d="M157.6885 65.3984
L157.6885 64.1284
" />
<path d="M158.2328 65.3984
L158.2328 64.7332
" />
<path d="M158.2328 64.7332
L158.1723 64.6122
" />
<path d="M158.1723 64.6122
L158.0514 64.5518
" />
<path d="M158.0514 64.5518
L157.8700 64.5518
" />
<path d="M157.8700 64.5518
L157.7490 64.6122
" />
<path d="M157.7490 64.6122
L157.6885 64.6727
" />
</g></g>
<g style="fill:#6C71C4; fill-opacity:0.0; 
stroke:#6C71C4; stroke-width:0.1524; stroke-opacity:1; 
stroke-linecap:round; stroke-linejoin:round;">
</g>
<g style="fill:#586E75; fill-opacity:0.0; 
stroke:#586E75; stroke-width:0.1524; stroke-opacity:1; 
stroke-linecap:round; stroke-linejoin:round;">
</g>
<g style="fill:#586E75; fill-opacity:0.0; 
stroke:#586E75; stroke-width:0.4000; stroke-opacity:1; 
stroke-linecap:round; stroke-linejoin:round;">
<rect x="162.560000" y="59.690000" width="12.700000" height="3.810000" rx="0.000000" />
</g>
<g style="fill:#268BD2; fill-opacity:0.0; 
stroke:#268BD2; stroke-width:0.4000; stroke-opacity:1; 
stroke-linecap:round; stroke-linejoin:round;">
</g>
<g style="fill:#268BD2; fill-opacity:0.0; 
stroke:#268BD2; stroke-width:0.3175; stroke-opacity:1; 
stroke-linecap:round; stroke-linejoin:round;">
<text x="162.5600" y="58.9784"
textLength="4.6900" font-size="1.6933" lengthAdjust="spacingAndGlyphs"
text-anchor="start" opacity="0">pico</text>
<g class="stroked-text"><desc>pico</desc>
<path d="M163.0711 57.9597
L163.0711 59.2297
" />
<path d="M163.0711 58.0201
L163.1921 57.9597
" />
<path d="M163.1921 57.9597
L163.4340 57.9597
" />
<path d="M163.4340 57.9597
L163.5549 58.0201
" />
<path d="M163.5549 58.0201
L163.6154 58.0806
" />
<path d="M163.6154 58.0806
L163.6759 58.2016
" />
<path d="M163.6759 58.2016
L163.6759 58.5644
" />
<path d="M163.6759 58.5644
L163.6154 58.6854
" />
<path d="M163.6154 58.6854
L163.5549 58.7459
" />
<path d="M163.5549 58.7459
L163.4340 58.8063
" />
<path d="M163.4340 58.8063
L163.1921 58.8063
" />
<path d="M163.1921 58.8063
L163.0711 58.7459
" />
<path d="M164.2201 58.8063
L164.2201 57.9597
" />
<path d="M164.2201 57.5363
L164.1597 57.5968
" />
<path d="M164.1597 57.5968
L164.2201 57.6573
" />
<path d="M164.2201 57.6573
L164.2806 57.5968
" />
<path d="M164.2806 57.5968
L164.2201 57.5363
" />
<path d="M164.2201 57.5363
L164.2201 57.6573
" />
<path d="M165.3692 58.7459
L165.2483 58.8063
" />
<path d="M165.2483 58.8063
L165.0064 58.8063
" />
<path d="M165.0064 58.8063
L164.8854 58.7459
" />
<path d="M164.8854 58.7459
L164.8249 58.6854
" />
<path d="M164.8249 58.6854
L164.7645 58.5644
" />
<path d="M164.7645 58.5644
L164.7645 58.2016
" />
<path d="M164.7645 58.2016
L164.8249 58.0806
" />
<path d="M164.8249 58.0806
L164.8854 58.0201
" />
<path d="M164.8854 58.0201
L165.0064 57.9597
" />
<path d="M165.0064 57.9597
L165.2483 57.9597
" />
<path d="M165.2483 57.9597
L165.3692 58.0201
" />
<path d="M166.0950 58.8063
L165.9740 58.7459
" />
<path d="M165.9740 58.7459
L165.9135 58.6854
" />
<path d="M165.9135 58.6854
L165.8531 58.5644
" />
<path d="M165.8531 58.5644
L165.8531 58.2016
" />
<path d="M165.8531 58.2016
L165.9135 58.0806
" />
<path d="M165.9135 58.0806
L165.9740 58.0201
" />
<path d="M165.9740 58.0201
L166.0950 57.9597
" />
<path d="M166.0950 57.9597
L166.2764 57.9597
" />
<path d="M166.2764 57.9597
L166.3973 58.0201
" />
<path d="M166.3973 58.0201
L166.4578 58.0806
" />
<path d="M166.4578 58.0806
L166.5183 58.2016
" />
<path d="M166.5183 58.2016
L166.5183 58.5644
" />
<path d="M166.5183 58.5644
L166.4578 58.6854
" />
<path d="M166.4578 58.6854
L166.3973 58.7459
" />
<path d="M166.3973 58.7459
L166.2764 58.8063
" />
<path d="M166.2764 58.8063
L166.0950 58.8063
" />
</g></g>
<g style="fill:#6C71C4; fill-opacity:0.0; 
stroke:#6C71C4; stroke-width:0.3175; stroke-opacity:1; 
stroke-linecap:round; stroke-linejoin:round;">
<text x="162.5600" y="65.3546"
textLength="44.0598" font-size="1.6933" lengthAdjust="spacingAndGlyphs"
text-anchor="start" opacity="0">File: tmc51x0-tmc51x0-bob-pico.kicad_sch</text>
<g class="stroked-text"><desc>File: tmc51x0-tmc51x0-bob-pico.kicad_sch</desc>
<path d="M163.4945 64.7332
L163.0711 64.7332
" />
<path d="M163.0711 65.3984
L163.0711 64.1284
" />
<path d="M163.0711 64.1284
L163.6759 64.1284
" />
<path d="M164.1597 65.3984
L164.1597 64.5518
" />
<path d="M164.1597 64.1284
L164.0993 64.1889
" />
<path d="M164.0993 64.1889
L164.1597 64.2494
" />
<path d="M164.1597 64.2494
L164.2202 64.1889
" />
<path d="M164.2202 64.1889
L164.1597 64.1284
" />
<path d="M164.1597 64.1284
L164.1597 64.2494
" />
<path d="M164.9460 65.3984
L164.8250 65.3380
" />
<path d="M164.8250 65.3380
L164.7645 65.2170
" />
<path d="M164.7645 65.2170
L164.7645 64.1284
" />
<path d="M165.9135 65.3380
L165.7926 65.3984
" />
<path d="M165.7926 65.3984
L165.5507 65.3984
" />
<path d="M165.5507 65.3984
L165.4297 65.3380
" />
<path d="M165.4297 65.3380
L165.3693 65.2170
" />
<path d="M165.3693 65.2170
L165.3693 64.7332
" />
<path d="M165.3693 64.7332
L165.4297 64.6122
" />
<path d="M165.4297 64.6122
L165.5507 64.5518
" />
<path d="M165.5507 64.5518
L165.7926 64.5518
" />
<path d="M165.7926 64.5518
L165.9135 64.6122
" />
<path d="M165.9135 64.6122
L165.9740 64.7332
" />
<path d="M165.9740 64.7332
L165.9740 64.8541
" />
<path d="M165.9740 64.8541
L165.3693 64.9751
" />
<path d="M166.5183 65.2775
L166.5788 65.3380
" />
<path d="M166.5788 65.3380
L166.5183 65.3984
" />
<path d="M166.5183 65.3984
L166.4579 65.3380
" />
<path d="M166.4579 65.3380
L166.5183 65.2775
" />
<path d="M166.5183 65.2775
L166.5183 65.3984
" />
<path d="M166.5183 64.6122
L166.5788 64.6727
" />
<path d="M166.5788 64.6727
L166.5183 64.7332
" />
<path d="M166.5183 64.7332
L166.4579 64.6727
" />
<path d="M166.4579 64.6727
L166.5183 64.6122
" />
<path d="M166.5183 64.6122
L166.5183 64.7332
" />
<path d="M167.9093 64.5518
L168.3931 64.5518
" />
<path d="M168.0907 64.1284
L168.0907 65.2170
" />
<path d="M168.0907 65.2170
L168.1512 65.3380
" />
<path d="M168.1512 65.3380
L168.2722 65.3984
" />
<path d="M168.2722 65.3984
L168.3931 65.3984
" />
<path d="M168.8164 65.3984
L168.8164 64.5518
" />
<path d="M168.8164 64.6727
L168.8769 64.6122
" />
<path d="M168.8769 64.6122
L168.9979 64.5518
" />
<path d="M168.9979 64.5518
L169.1793 64.5518
" />
<path d="M169.1793 64.5518
L169.3002 64.6122
" />
<path d="M169.3002 64.6122
L169.3607 64.7332
" />
<path d="M169.3607 64.7332
L169.3607 65.3984
" />
<path d="M169.3607 64.7332
L169.4212 64.6122
" />
<path d="M169.4212 64.6122
L169.5421 64.5518
" />
<path d="M169.5421 64.5518
L169.7236 64.5518
" />
<path d="M169.7236 64.5518
L169.8445 64.6122
" />
<path d="M169.8445 64.6122
L169.9050 64.7332
" />
<path d="M169.9050 64.7332
L169.9050 65.3984
" />
<path d="M171.0540 65.3380
L170.9331 65.3984
" />
<path d="M170.9331 65.3984
L170.6912 65.3984
" />
<path d="M170.6912 65.3984
L170.5702 65.3380
" />
<path d="M170.5702 65.3380
L170.5097 65.2775
" />
<path d="M170.5097 65.2775
L170.4493 65.1565
" />
<path d="M170.4493 65.1565
L170.4493 64.7937
" />
<path d="M170.4493 64.7937
L170.5097 64.6727
" />
<path d="M170.5097 64.6727
L170.5702 64.6122
" />
<path d="M170.5702 64.6122
L170.6912 64.5518
" />
<path d="M170.6912 64.5518
L170.9331 64.5518
" />
<path d="M170.9331 64.5518
L171.0540 64.6122
" />
<path d="M172.2031 64.1284
L171.5983 64.1284
" />
<path d="M171.5983 64.1284
L171.5379 64.7332
" />
<path d="M171.5379 64.7332
L171.5983 64.6727
" />
<path d="M171.5983 64.6727
L171.7193 64.6122
" />
<path d="M171.7193 64.6122
L172.0217 64.6122
" />
<path d="M172.0217 64.6122
L172.1426 64.6727
" />
<path d="M172.1426 64.6727
L172.2031 64.7332
" />
<path d="M172.2031 64.7332
L172.2636 64.8541
" />
<path d="M172.2636 64.8541
L172.2636 65.1565
" />
<path d="M172.2636 65.1565
L172.2031 65.2775
" />
<path d="M172.2031 65.2775
L172.1426 65.3380
" />
<path d="M172.1426 65.3380
L172.0217 65.3984
" />
<path d="M172.0217 65.3984
L171.7193 65.3984
" />
<path d="M171.7193 65.3984
L171.5983 65.3380
" />
<path d="M171.5983 65.3380
L171.5379 65.2775
" />
<path d="M173.4731 65.3984
L172.7474 65.3984
" />
<path d="M173.1102 65.3984
L173.1102 64.1284
" />
<path d="M173.1102 64.1284
L172.9893 64.3099
" />
<path d="M172.9893 64.3099
L172.8683 64.4308
" />
<path d="M172.8683 64.4308
L172.7474 64.4913
" />
<path d="M173.8964 65.3984
L174.5616 64.5518
" />
<path d="M173.8964 64.5518
L174.5616 65.3984
" />
<path d="M175.2873 64.1284
L175.4083 64.1284
" />
<path d="M175.4083 64.1284
L175.5292 64.1889
" />
<path d="M175.5292 64.1889
L175.5897 64.2494
" />
<path d="M175.5897 64.2494
L175.6502 64.3703
" />
<path d="M175.6502 64.3703
L175.7107 64.6122
" />
<path d="M175.7107 64.6122
L175.7107 64.9146
" />
<path d="M175.7107 64.9146
L175.6502 65.1565
" />
<path d="M175.6502 65.1565
L175.5897 65.2775
" />
<path d="M175.5897 65.2775
L175.5292 65.3380
" />
<path d="M175.5292 65.3380
L175.4083 65.3984
" />
<path d="M175.4083 65.3984
L175.2873 65.3984
" />
<path d="M175.2873 65.3984
L175.1664 65.3380
" />
<path d="M175.1664 65.3380
L175.1059 65.2775
" />
<path d="M175.1059 65.2775
L175.0454 65.1565
" />
<path d="M175.0454 65.1565
L174.9850 64.9146
" />
<path d="M174.9850 64.9146
L174.9850 64.6122
" />
<path d="M174.9850 64.6122
L175.0454 64.3703
" />
<path d="M175.0454 64.3703
L175.1059 64.2494
" />
<path d="M175.1059 64.2494
L175.1664 64.1889
" />
<path d="M175.1664 64.1889
L175.2873 64.1284
" />
<path d="M176.2549 64.9146
L177.2226 64.9146
" />
<path d="M177.6459 64.5518
L178.1297 64.5518
" />
<path d="M177.8273 64.1284
L177.8273 65.2170
" />
<path d="M177.8273 65.2170
L177.8878 65.3380
" />
<path d="M177.8878 65.3380
L178.0088 65.3984
" />
<path d="M178.0088 65.3984
L178.1297 65.3984
" />
<path d="M178.5530 65.3984
L178.5530 64.5518
" />
<path d="M178.5530 64.6727
L178.6135 64.6122
" />
<path d="M178.6135 64.6122
L178.7345 64.5518
" />
<path d="M178.7345 64.5518
L178.9159 64.5518
" />
<path d="M178.9159 64.5518
L179.0368 64.6122
" />
<path d="M179.0368 64.6122
L179.0973 64.7332
" />
<path d="M179.0973 64.7332
L179.0973 65.3984
" />
<path d="M179.0973 64.7332
L179.1578 64.6122
" />
<path d="M179.1578 64.6122
L179.2787 64.5518
" />
<path d="M179.2787 64.5518
L179.4602 64.5518
" />
<path d="M179.4602 64.5518
L179.5811 64.6122
" />
<path d="M179.5811 64.6122
L179.6416 64.7332
" />
<path d="M179.6416 64.7332
L179.6416 65.3984
" />
<path d="M180.7906 65.3380
L180.6697 65.3984
" />
<path d="M180.6697 65.3984
L180.4278 65.3984
" />
<path d="M180.4278 65.3984
L180.3068 65.3380
" />
<path d="M180.3068 65.3380
L180.2463 65.2775
" />
<path d="M180.2463 65.2775
L180.1859 65.1565
" />
<path d="M180.1859 65.1565
L180.1859 64.7937
" />
<path d="M180.1859 64.7937
L180.2463 64.6727
" />
<path d="M180.2463 64.6727
L180.3068 64.6122
" />
<path d="M180.3068 64.6122
L180.4278 64.5518
" />
<path d="M180.4278 64.5518
L180.6697 64.5518
" />
<path d="M180.6697 64.5518
L180.7906 64.6122
" />
<path d="M181.9397 64.1284
L181.3349 64.1284
" />
<path d="M181.3349 64.1284
L181.2745 64.7332
" />
<path d="M181.2745 64.7332
L181.3349 64.6727
" />
<path d="M181.3349 64.6727
L181.4559 64.6122
" />
<path d="M181.4559 64.6122
L181.7583 64.6122
" />
<path d="M181.7583 64.6122
L181.8792 64.6727
" />
<path d="M181.8792 64.6727
L181.9397 64.7332
" />
<path d="M181.9397 64.7332
L182.0002 64.8541
" />
<path d="M182.0002 64.8541
L182.0002 65.1565
" />
<path d="M182.0002 65.1565
L181.9397 65.2775
" />
<path d="M181.9397 65.2775
L181.8792 65.3380
" />
<path d="M181.8792 65.3380
L181.7583 65.3984
" />
<path d="M181.7583 65.3984
L181.4559 65.3984
" />
<path d="M181.4559 65.3984
L181.3349 65.3380
" />
<path d="M181.3349 65.3380
L181.2745 65.2775
" />
<path d="M183.2097 65.3984
L182.4840 65.3984
" />
<path d="M182.8468 65.3984
L182.8468 64.1284
" />
<path d="M182.8468 64.1284
L182.7259 64.3099
" />
<path d="M182.7259 64.3099
L182.6049 64.4308
" />
<path d="M182.6049 64.4308
L182.4840 64.4913
" />
<path d="M183.6330 65.3984
L184.2982 64.5518
" />
<path d="M183.6330 64.5518
L184.2982 65.3984
" />
<path d="M185.0239 64.1284
L185.1449 64.1284
" />
<path d="M185.1449 64.1284
L185.2658 64.1889
" />
<path d="M185.2658 64.1889
L185.3263 64.2494
" />
<path d="M185.3263 64.2494
L185.3868 64.3703
" />
<path d="M185.3868 64.3703
L185.4473 64.6122
" />
<path d="M185.4473 64.6122
L185.4473 64.9146
" />
<path d="M185.4473 64.9146
L185.3868 65.1565
" />
<path d="M185.3868 65.1565
L185.3263 65.2775
" />
<path d="M185.3263 65.2775
L185.2658 65.3380
" />
<path d="M185.2658 65.3380
L185.1449 65.3984
" />
<path d="M185.1449 65.3984
L185.0239 65.3984
" />
<path d="M185.0239 65.3984
L184.9030 65.3380
" />
<path d="M184.9030 65.3380
L184.8425 65.2775
" />
<path d="M184.8425 65.2775
L184.7820 65.1565
" />
<path d="M184.7820 65.1565
L184.7216 64.9146
" />
<path d="M184.7216 64.9146
L184.7216 64.6122
" />
<path d="M184.7216 64.6122
L184.7820 64.3703
" />
<path d="M184.7820 64.3703
L184.8425 64.2494
" />
<path d="M184.8425 64.2494
L184.9030 64.1889
" />
<path d="M184.9030 64.1889
L185.0239 64.1284
" />
<path d="M185.9915 64.9146
L186.9592 64.9146
" />
<path d="M187.5639 65.3984
L187.5639 64.1284
" />
<path d="M187.5639 64.6122
L187.6849 64.5518
" />
<path d="M187.6849 64.5518
L187.9268 64.5518
" />
<path d="M187.9268 64.5518
L188.0477 64.6122
" />
<path d="M188.0477 64.6122
L188.1082 64.6727
" />
<path d="M188.1082 64.6727
L188.1687 64.7937
" />
<path d="M188.1687 64.7937
L188.1687 65.1565
" />
<path d="M188.1687 65.1565
L188.1082 65.2775
" />
<path d="M188.1082 65.2775
L188.0477 65.3380
" />
<path d="M188.0477 65.3380
L187.9268 65.3984
" />
<path d="M187.9268 65.3984
L187.6849 65.3984
" />
<path d="M187.6849 65.3984
L187.5639 65.3380
" />
<path d="M188.8944 65.3984
L188.7734 65.3380
" />
<path d="M188.7734 65.3380
L188.7129 65.2775
" />
<path d="M188.7129 65.2775
L188.6525 65.1565
" />
<path d="M188.6525 65.1565
L188.6525 64.7937
" />
<path d="M188.6525 64.7937
L188.7129 64.6727
" />
<path d="M188.7129 64.6727
L188.7734 64.6122
" />
<path d="M188.7734 64.6122
L188.8944 64.5518
" />
<path d="M188.8944 64.5518
L189.0758 64.5518
" />
<path d="M189.0758 64.5518
L189.1967 64.6122
" />
<path d="M189.1967 64.6122
L189.2572 64.6727
" />
<path d="M189.2572 64.6727
L189.3177 64.7937
" />
<path d="M189.3177 64.7937
L189.3177 65.1565
" />
<path d="M189.3177 65.1565
L189.2572 65.2775
" />
<path d="M189.2572 65.2775
L189.1967 65.3380
" />
<path d="M189.1967 65.3380
L189.0758 65.3984
" />
<path d="M189.0758 65.3984
L188.8944 65.3984
" />
<path d="M189.8619 65.3984
L189.8619 64.1284
" />
<path d="M189.8619 64.6122
L189.9829 64.5518
" />
<path d="M189.9829 64.5518
L190.2248 64.5518
" />
<path d="M190.2248 64.5518
L190.3457 64.6122
" />
<path d="M190.3457 64.6122
L190.4062 64.6727
" />
<path d="M190.4062 64.6727
L190.4667 64.7937
" />
<path d="M190.4667 64.7937
L190.4667 65.1565
" />
<path d="M190.4667 65.1565
L190.4062 65.2775
" />
<path d="M190.4062 65.2775
L190.3457 65.3380
" />
<path d="M190.3457 65.3380
L190.2248 65.3984
" />
<path d="M190.2248 65.3984
L189.9829 65.3984
" />
<path d="M189.9829 65.3984
L189.8619 65.3380
" />
<path d="M191.0109 64.9146
L191.9786 64.9146
" />
<path d="M192.5833 64.5518
L192.5833 65.8218
" />
<path d="M192.5833 64.6122
L192.7043 64.5518
" />
<path d="M192.7043 64.5518
L192.9462 64.5518
" />
<path d="M192.9462 64.5518
L193.0671 64.6122
" />
<path d="M193.0671 64.6122
L193.1276 64.6727
" />
<path d="M193.1276 64.6727
L193.1881 64.7937
" />
<path d="M193.1881 64.7937
L193.1881 65.1565
" />
<path d="M193.1881 65.1565
L193.1276 65.2775
" />
<path d="M193.1276 65.2775
L193.0671 65.3380
" />
<path d="M193.0671 65.3380
L192.9462 65.3984
" />
<path d="M192.9462 65.3984
L192.7043 65.3984
" />
<path d="M192.7043 65.3984
L192.5833 65.3380
" />
<path d="M193.7323 65.3984
L193.7323 64.5518
" />
<path d="M193.7323 64.1284
L193.6719 64.1889
" />
<path d="M193.6719 64.1889
L193.7323 64.2494
" />
<path d="M193.7323 64.2494
L193.7928 64.1889
" />
<path d="M193.7928 64.1889
L193.7323 64.1284
" />
<path d="M193.7323 64.1284
L193.7323 64.2494
" />
<path d="M194.8814 65.3380
L194.7605 65.3984
" />
<path d="M194.7605 65.3984
L194.5186 65.3984
" />
<path d="M194.5186 65.3984
L194.3976 65.3380
" />
<path d="M194.3976 65.3380
L194.3371 65.2775
" />
<path d="M194.3371 65.2775
L194.2767 65.1565
" />
<path d="M194.2767 65.1565
L194.2767 64.7937
" />
<path d="M194.2767 64.7937
L194.3371 64.6727
" />
<path d="M194.3371 64.6727
L194.3976 64.6122
" />
<path d="M194.3976 64.6122
L194.5186 64.5518
" />
<path d="M194.5186 64.5518
L194.7605 64.5518
" />
<path d="M194.7605 64.5518
L194.8814 64.6122
" />
<path d="M195.6072 65.3984
L195.4862 65.3380
" />
<path d="M195.4862 65.3380
L195.4257 65.2775
" />
<path d="M195.4257 65.2775
L195.3653 65.1565
" />
<path d="M195.3653 65.1565
L195.3653 64.7937
" />
<path d="M195.3653 64.7937
L195.4257 64.6727
" />
<path d="M195.4257 64.6727
L195.4862 64.6122
" />
<path d="M195.4862 64.6122
L195.6072 64.5518
" />
<path d="M195.6072 64.5518
L195.7886 64.5518
" />
<path d="M195.7886 64.5518
L195.9095 64.6122
" />
<path d="M195.9095 64.6122
L195.9700 64.6727
" />
<path d="M195.9700 64.6727
L196.0305 64.7937
" />
<path d="M196.0305 64.7937
L196.0305 65.1565
" />
<path d="M196.0305 65.1565
L195.9700 65.2775
" />
<path d="M195.9700 65.2775
L195.9095 65.3380
" />
<path d="M195.9095 65.3380
L195.7886 65.3984
" />
<path d="M195.7886 65.3984
L195.6072 65.3984
" />
<path d="M196.5747 65.2775
L196.6352 65.3380
" />
<path d="M196.6352 65.3380
L196.5747 65.3984
" />
<path d="M196.5747 65.3984
L196.5143 65.3380
" />
<path d="M196.5143 65.3380
L196.5747 65.2775
" />
<path d="M196.5747 65.2775
L196.5747 65.3984
" />
<path d="M197.1795 65.3984
L197.1795 64.1284
" />
<path d="M197.3005 64.9146
L197.6633 65.3984
" />
<path d="M197.6633 64.5518
L197.1795 65.0356
" />
<path d="M198.2076 65.3984
L198.2076 64.5518
" />
<path d="M198.2076 64.1284
L198.1472 64.1889
" />
<path d="M198.1472 64.1889
L198.2076 64.2494
" />
<path d="M198.2076 64.2494
L198.2681 64.1889
" />
<path d="M198.2681 64.1889
L198.2076 64.1284
" />
<path d="M198.2076 64.1284
L198.2076 64.2494
" />
<path d="M199.3567 65.3380
L199.2358 65.3984
" />
<path d="M199.2358 65.3984
L198.9939 65.3984
" />
<path d="M198.9939 65.3984
L198.8729 65.3380
" />
<path d="M198.8729 65.3380
L198.8124 65.2775
" />
<path d="M198.8124 65.2775
L198.7520 65.1565
" />
<path d="M198.7520 65.1565
L198.7520 64.7937
" />
<path d="M198.7520 64.7937
L198.8124 64.6727
" />
<path d="M198.8124 64.6727
L198.8729 64.6122
" />
<path d="M198.8729 64.6122
L198.9939 64.5518
" />
<path d="M198.9939 64.5518
L199.2358 64.5518
" />
<path d="M199.2358 64.5518
L199.3567 64.6122
" />
<path d="M200.4453 65.3984
L200.4453 64.7332
" />
<path d="M200.4453 64.7332
L200.3848 64.6122
" />
<path d="M200.3848 64.6122
L200.2639 64.5518
" />
<path d="M200.2639 64.5518
L200.0220 64.5518
" />
<path d="M200.0220 64.5518
L199.9010 64.6122
" />
<path d="M200.4453 65.3380
L200.3244 65.3984
" />
<path d="M200.3244 65.3984
L200.0220 65.3984
" />
<path d="M200.0220 65.3984
L199.9010 65.3380
" />
<path d="M199.9010 65.3380
L199.8406 65.2170
" />
<path d="M199.8406 65.2170
L199.8406 65.0960
" />
<path d="M199.8406 65.0960
L199.9010 64.9751
" />
<path d="M199.9010 64.9751
L200.0220 64.9146
" />
<path d="M200.0220 64.9146
L200.3244 64.9146
" />
<path d="M200.3244 64.9146
L200.4453 64.8541
" />
<path d="M201.5943 65.3984
L201.5943 64.1284
" />
<path d="M201.5943 65.3380
L201.4734 65.3984
" />
<path d="M201.4734 65.3984
L201.2315 65.3984
" />
<path d="M201.2315 65.3984
L201.1105 65.3380
" />
<path d="M201.1105 65.3380
L201.0500 65.2775
" />
<path d="M201.0500 65.2775
L200.9896 65.1565
" />
<path d="M200.9896 65.1565
L200.9896 64.7937
" />
<path d="M200.9896 64.7937
L201.0500 64.6727
" />
<path d="M201.0500 64.6727
L201.1105 64.6122
" />
<path d="M201.1105 64.6122
L201.2315 64.5518
" />
<path d="M201.2315 64.5518
L201.4734 64.5518
" />
<path d="M201.4734 64.5518
L201.5943 64.6122
" />
<path d="M201.8967 65.5194
L202.8643 65.5194
" />
<path d="M203.1062 65.3380
L203.2271 65.3984
" />
<path d="M203.2271 65.3984
L203.4690 65.3984
" />
<path d="M203.4690 65.3984
L203.5900 65.3380
" />
<path d="M203.5900 65.3380
L203.6504 65.2170
" />
<path d="M203.6504 65.2170
L203.6504 65.1565
" />
<path d="M203.6504 65.1565
L203.5900 65.0356
" />
<path d="M203.5900 65.0356
L203.4690 64.9751
" />
<path d="M203.4690 64.9751
L203.2876 64.9751
" />
<path d="M203.2876 64.9751
L203.1666 64.9146
" />
<path d="M203.1666 64.9146
L203.1062 64.7937
" />
<path d="M203.1062 64.7937
L203.1062 64.7332
" />
<path d="M203.1062 64.7332
L203.1666 64.6122
" />
<path d="M203.1666 64.6122
L203.2876 64.5518
" />
<path d="M203.2876 64.5518
L203.4690 64.5518
" />
<path d="M203.4690 64.5518
L203.5900 64.6122
" />
<path d="M204.7390 65.3380
L204.6181 65.3984
" />
<path d="M204.6181 65.3984
L204.3762 65.3984
" />
<path d="M204.3762 65.3984
L204.2552 65.3380
" />
<path d="M204.2552 65.3380
L204.1947 65.2775
" />
<path d="M204.1947 65.2775
L204.1343 65.1565
" />
<path d="M204.1343 65.1565
L204.1343 64.7937
" />
<path d="M204.1343 64.7937
L204.1947 64.6727
" />
<path d="M204.1947 64.6727
L204.2552 64.6122
" />
<path d="M204.2552 64.6122
L204.3762 64.5518
" />
<path d="M204.3762 64.5518
L204.6181 64.5518
" />
<path d="M204.6181 64.5518
L204.7390 64.6122
" />
<path d="M205.2833 65.3984
L205.2833 64.1284
" />
<path d="M205.8276 65.3984
L205.8276 64.7332
" />
<path d="M205.8276 64.7332
L205.7671 64.6122
" />
<path d="M205.7671 64.6122
L205.6462 64.5518
" />
<path d="M205.6462 64.5518
L205.4648 64.5518
" />
<path d="M205.4648 64.5518
L205.3438 64.6122
" />
<path d="M205.3438 64.6122
L205.2833 64.6727
" />
</g></g> 
</svg>
