<?xml version="1.0" standalone="no"?>
 <!DOCTYPE svg PUBLIC "-//W3C//DTD SVG 1.1//EN" 
 "http://www.w3.org/Graphics/SVG/1.1/DTD/svg11.dtd"> 
<svg
  xmlns:svg="http://www.w3.org/2000/svg"
  xmlns="http://www.w3.org/2000/svg"
  xmlns:xlink="http://www.w3.org/1999/xlink"
  version="1.1"
  width="297.0022mm" height="210.0072mm" viewBox="0.0000 0.0000 297.0022 210.0072">
<title>SVG Image created as trinamic-wiring-TMC51X0-description.svg date 2024/08/01 14:17:40 </title>
  <desc>Image generated by Eeschema-SVG </desc>
<g style="fill:#000000; fill-opacity:1.0000;stroke:#000000; stroke-opacity:1.0000;
stroke-linecap:round; stroke-linejoin:round;"
 transform="translate(0 0) scale(1 1)">
</g>
<g style="fill:#000000; fill-opacity:0.0; 
stroke:#000000; stroke-width:0.1524; stroke-opacity:1; 
stroke-linecap:round; stroke-linejoin:round;">
</g>
<g style="fill:#000000; fill-opacity:0.0; 
stroke:#000000; stroke-width:0.1588; stroke-opacity:1; 
stroke-linecap:round; stroke-linejoin:round;">
</g>
<g style="fill:#000000; fill-opacity:0.0; 
stroke:#000000; stroke-width:0.4000; stroke-opacity:1; 
stroke-linecap:round; stroke-linejoin:round;">
</g>
<g style="fill:#000000; fill-opacity:0.0; 
stroke:#000000; stroke-width:0.1588; stroke-opacity:1; 
stroke-linecap:round; stroke-linejoin:round;">
</g>
<g style="fill:#000000; fill-opacity:0.0; 
stroke:#000000; stroke-width:0.4000; stroke-opacity:1; 
stroke-linecap:round; stroke-linejoin:round;">
</g>
<g style="fill:#000000; fill-opacity:0.0; 
stroke:#000000; stroke-width:0.1588; stroke-opacity:1; 
stroke-linecap:round; stroke-linejoin:round;">
</g>
<g style="fill:#000000; fill-opacity:0.0; 
stroke:#000000; stroke-width:0.4000; stroke-opacity:1; 
stroke-linecap:round; stroke-linejoin:round;">
</g>
<g style="fill:#000000; fill-opacity:0.0; 
stroke:#000000; stroke-width:0.1588; stroke-opacity:1; 
stroke-linecap:round; stroke-linejoin:round;">
</g>
<g style="fill:#000000; fill-opacity:0.0; 
stroke:#000000; stroke-width:0.4000; stroke-opacity:1; 
stroke-linecap:round; stroke-linejoin:round;">
</g>
<g style="fill:#000000; fill-opacity:0.0; 
stroke:#000000; stroke-width:0.1588; stroke-opacity:1; 
stroke-linecap:round; stroke-linejoin:round;">
</g>
<g style="fill:#000000; fill-opacity:0.0; 
stroke:#000000; stroke-width:0.4000; stroke-opacity:1; 
stroke-linecap:round; stroke-linejoin:round;">
</g>
<g style="fill:#000000; fill-opacity:0.0; 
stroke:#000000; stroke-width:0.1588; stroke-opacity:1; 
stroke-linecap:round; stroke-linejoin:round;">
</g>
<g style="fill:#000000; fill-opacity:0.0; 
stroke:#000000; stroke-width:0.4000; stroke-opacity:1; 
stroke-linecap:round; stroke-linejoin:round;">
</g>
<g style="fill:#000000; fill-opacity:0.0; 
stroke:#000000; stroke-width:0.1588; stroke-opacity:1; 
stroke-linecap:round; stroke-linejoin:round;">
</g>
<g style="fill:#000000; fill-opacity:0.0; 
stroke:#000000; stroke-width:0.4000; stroke-opacity:1; 
stroke-linecap:round; stroke-linejoin:round;">
</g>
<g style="fill:#000000; fill-opacity:0.0; 
stroke:#000000; stroke-width:0.1588; stroke-opacity:1; 
stroke-linecap:round; stroke-linejoin:round;">
</g>
<g style="fill:#000000; fill-opacity:0.0; 
stroke:#000000; stroke-width:0.4000; stroke-opacity:1; 
stroke-linecap:round; stroke-linejoin:round;">
</g>
<g style="fill:#000000; fill-opacity:0.0; 
stroke:#000000; stroke-width:0.1588; stroke-opacity:1; 
stroke-linecap:round; stroke-linejoin:round;">
</g>
<g style="fill:#000000; fill-opacity:0.0; 
stroke:#000000; stroke-width:0.4000; stroke-opacity:1; 
stroke-linecap:round; stroke-linejoin:round;">
</g>
<g style="fill:#000000; fill-opacity:0.0; 
stroke:#000000; stroke-width:0.1524; stroke-opacity:1; 
stroke-linecap:round; stroke-linejoin:round;">
<g >
</g>
<g style="fill:#586E75; fill-opacity:0.0; 
stroke:#586E75; stroke-width:0.1524; stroke-opacity:1; 
stroke-linecap:round; stroke-linejoin:round;">
</g>
<g style="fill:#586E75; fill-opacity:0.0; 
stroke:#586E75; stroke-width:0.4000; stroke-opacity:1; 
stroke-linecap:round; stroke-linejoin:round;">
<path style="fill:#586E75; fill-opacity:0.0; 
stroke:#586E75; stroke-width:0.4000; stroke-opacity:1; 
stroke-linecap:round; stroke-linejoin:round;fill:none"
d="M 168.9100,89.4080
168.9100,85.5980
170.1800,88.1380
171.4500,85.5980
171.4500,89.4080
" /> 
<path d="M165.7350 90.1700 A0.6350 0.6350 0.0 0 0 165.7350 88.9000" />
<path d="M165.7350 88.9000 A0.6350 0.6350 0.0 0 0 165.7350 87.6300" />
<path d="M165.7350 87.6300 A0.6350 0.6350 0.0 0 0 165.7350 86.3600" />
<path d="M165.7350 86.3600 A0.6350 0.6350 0.0 0 0 165.7350 85.0900" />
<path d="M168.9100 92.0750 A0.6350 0.6350 0.0 0 0 167.6400 92.0750" />
<path d="M170.1800 92.0750 A0.6350 0.6350 0.0 0 0 168.9100 92.0750" />
<path style="fill:#586E75; fill-opacity:0.0; 
stroke:#586E75; stroke-width:0.4000; stroke-opacity:1; 
stroke-linecap:round; stroke-linejoin:round;fill:none"
d="M 165.1000,90.1700
165.7350,90.1700
" /> 
<path style="fill:#586E75; fill-opacity:0.0; 
stroke:#586E75; stroke-width:0.4000; stroke-opacity:1; 
stroke-linecap:round; stroke-linejoin:round;fill:none"
d="M 165.1000,85.0900
165.7350,85.0900
" /> 
<path style="fill:#586E75; fill-opacity:0.0; 
stroke:#586E75; stroke-width:0.4000; stroke-opacity:1; 
stroke-linecap:round; stroke-linejoin:round;fill:none"
d="M 167.6400,92.7100
167.6400,92.0750
" /> 
<path style="fill:#586E75; fill-opacity:0.0; 
stroke:#586E75; stroke-width:0.4000; stroke-opacity:1; 
stroke-linecap:round; stroke-linejoin:round;fill:none"
d="M 172.7200,92.7100
172.7200,92.0750
" /> 
<circle cx="170.1800" cy="87.6300" r="3.2512" /> 
<path d="M171.4500 92.0750 A0.6350 0.6350 0.0 0 0 170.1800 92.0750" />
<path d="M172.7200 92.0750 A0.6350 0.6350 0.0 0 0 171.4500 92.0750" />
<path d="M165.1000 85.0900
L161.2900 85.0900
" />
<path d="M165.1000 90.1700
L161.2900 90.1700
" />
<path d="M167.6400 92.7100
L167.6400 96.5200
" />
<path d="M172.7200 92.7100
L172.7200 96.5200
" />
</g>
</g>
<g style="fill:#586E75; fill-opacity:0.0; 
stroke:#586E75; stroke-width:0.1524; stroke-opacity:1; 
stroke-linecap:round; stroke-linejoin:round;">
<g >
</g>
<g style="fill:#586E75; fill-opacity:0.0; 
stroke:#586E75; stroke-width:0.4000; stroke-opacity:1; 
stroke-linecap:round; stroke-linejoin:round;">
<path style="fill:#586E75; fill-opacity:0.0; 
stroke:#586E75; stroke-width:0.4000; stroke-opacity:1; 
stroke-linecap:round; stroke-linejoin:round;fill:none"
d="M 142.2400,97.7900
142.2400,104.1400
121.9200,104.1400
121.9200,78.7400
142.2400,78.7400
142.2400,85.0900
" /> 
</g>
<g style="fill:#586E75; fill-opacity:0.0; 
stroke:#586E75; stroke-width:0.4000; stroke-opacity:1; 
stroke-linecap:round; stroke-linejoin:round;stroke-dasharray:4.4000,1.6000;">
<rect x="139.700000" y="85.090000" width="5.080000" height="12.700000" rx="0.000000" />
</g>
<g style="fill:#586E75; fill-opacity:0.0; 
stroke:#586E75; stroke-width:0.4000; stroke-opacity:1; 
stroke-linecap:round; stroke-linejoin:round;">
<text x="132.0800" y="92.0750"
textLength="9.4730" font-size="1.6933" lengthAdjust="spacingAndGlyphs"
text-anchor="middle" opacity="0">TMC51X0</text>
<g class="stroked-text"><desc>TMC51X0</desc>
<path d="M127.9374 90.7367
L128.6631 90.7367
" />
<path d="M128.3003 92.0067
L128.3003 90.7367
" />
<path d="M129.0864 92.0067
L129.0864 90.7367
" />
<path d="M129.0864 90.7367
L129.5098 91.6439
" />
<path d="M129.5098 91.6439
L129.9331 90.7367
" />
<path d="M129.9331 90.7367
L129.9331 92.0067
" />
<path d="M131.2635 91.8858
L131.2031 91.9463
" />
<path d="M131.2031 91.9463
L131.0216 92.0067
" />
<path d="M131.0216 92.0067
L130.9007 92.0067
" />
<path d="M130.9007 92.0067
L130.7193 91.9463
" />
<path d="M130.7193 91.9463
L130.5983 91.8253
" />
<path d="M130.5983 91.8253
L130.5378 91.7043
" />
<path d="M130.5378 91.7043
L130.4774 91.4624
" />
<path d="M130.4774 91.4624
L130.4774 91.2810
" />
<path d="M130.4774 91.2810
L130.5378 91.0391
" />
<path d="M130.5378 91.0391
L130.5983 90.9182
" />
<path d="M130.5983 90.9182
L130.7193 90.7972
" />
<path d="M130.7193 90.7972
L130.9007 90.7367
" />
<path d="M130.9007 90.7367
L131.0216 90.7367
" />
<path d="M131.0216 90.7367
L131.2031 90.7972
" />
<path d="M131.2031 90.7972
L131.2635 90.8577
" />
<path d="M132.4126 90.7367
L131.8078 90.7367
" />
<path d="M131.8078 90.7367
L131.7474 91.3415
" />
<path d="M131.7474 91.3415
L131.8078 91.2810
" />
<path d="M131.8078 91.2810
L131.9288 91.2205
" />
<path d="M131.9288 91.2205
L132.2312 91.2205
" />
<path d="M132.2312 91.2205
L132.3521 91.2810
" />
<path d="M132.3521 91.2810
L132.4126 91.3415
" />
<path d="M132.4126 91.3415
L132.4731 91.4624
" />
<path d="M132.4731 91.4624
L132.4731 91.7648
" />
<path d="M132.4731 91.7648
L132.4126 91.8858
" />
<path d="M132.4126 91.8858
L132.3521 91.9463
" />
<path d="M132.3521 91.9463
L132.2312 92.0067
" />
<path d="M132.2312 92.0067
L131.9288 92.0067
" />
<path d="M131.9288 92.0067
L131.8078 91.9463
" />
<path d="M131.8078 91.9463
L131.7474 91.8858
" />
<path d="M133.6826 92.0067
L132.9569 92.0067
" />
<path d="M133.3197 92.0067
L133.3197 90.7367
" />
<path d="M133.3197 90.7367
L133.1988 90.9182
" />
<path d="M133.1988 90.9182
L133.0778 91.0391
" />
<path d="M133.0778 91.0391
L132.9569 91.0996
" />
<path d="M134.1059 90.7367
L134.9525 92.0067
" />
<path d="M134.9525 90.7367
L134.1059 92.0067
" />
<path d="M135.6782 90.7367
L135.7992 90.7367
" />
<path d="M135.7992 90.7367
L135.9201 90.7972
" />
<path d="M135.9201 90.7972
L135.9806 90.8577
" />
<path d="M135.9806 90.8577
L136.0411 90.9786
" />
<path d="M136.0411 90.9786
L136.1016 91.2205
" />
<path d="M136.1016 91.2205
L136.1016 91.5229
" />
<path d="M136.1016 91.5229
L136.0411 91.7648
" />
<path d="M136.0411 91.7648
L135.9806 91.8858
" />
<path d="M135.9806 91.8858
L135.9201 91.9463
" />
<path d="M135.9201 91.9463
L135.7992 92.0067
" />
<path d="M135.7992 92.0067
L135.6782 92.0067
" />
<path d="M135.6782 92.0067
L135.5573 91.9463
" />
<path d="M135.5573 91.9463
L135.4968 91.8858
" />
<path d="M135.4968 91.8858
L135.4363 91.7648
" />
<path d="M135.4363 91.7648
L135.3759 91.5229
" />
<path d="M135.3759 91.5229
L135.3759 91.2205
" />
<path d="M135.3759 91.2205
L135.4363 90.9786
" />
<path d="M135.4363 90.9786
L135.4968 90.8577
" />
<path d="M135.4968 90.8577
L135.5573 90.7972
" />
<path d="M135.5573 90.7972
L135.6782 90.7367
" />
</g><path d="M121.9200 81.2800
L119.3800 81.2800
" />
<path d="M144.7800 86.3600
L147.3200 86.3600
" />
<path d="M144.7800 88.9000
L147.3200 88.9000
" />
<path d="M144.7800 93.9800
L147.3200 93.9800
" />
<path d="M144.7800 96.5200
L147.3200 96.5200
" />
</g>
</g>
<g style="fill:#586E75; fill-opacity:0.0; 
stroke:#586E75; stroke-width:0.1588; stroke-opacity:1; 
stroke-linecap:round; stroke-linejoin:round;">
</g>
<g style="fill:#586E75; fill-opacity:0.0; 
stroke:#586E75; stroke-width:0.4000; stroke-opacity:1; 
stroke-linecap:round; stroke-linejoin:round;">
</g>
<g style="fill:#2AA198; fill-opacity:0.0; 
stroke:#2AA198; stroke-width:0.4000; stroke-opacity:1; 
stroke-linecap:round; stroke-linejoin:round;">
<text x="158.7500" y="84.7407"
textLength="3.6070" font-size="1.6933" lengthAdjust="spacingAndGlyphs"
text-anchor="end" opacity="0">A+</text>
<g class="stroked-text"><desc>A+</desc>
<path d="M156.0678 84.2016
L156.6725 84.2016
" />
<path d="M155.9468 84.5644
L156.3701 83.2944
" />
<path d="M156.3701 83.2944
L156.7935 84.5644
" />
<path d="M157.2168 84.0806
L158.1845 84.0806
" />
<path d="M157.7006 84.5644
L157.7006 83.5968
" />
</g></g>
<g style="fill:#2AA198; fill-opacity:0.0; 
stroke:#2AA198; stroke-width:0.1588; stroke-opacity:1; 
stroke-linecap:round; stroke-linejoin:round;">
</g>
<g style="fill:#2AA198; fill-opacity:0.0; 
stroke:#2AA198; stroke-width:0.4000; stroke-opacity:1; 
stroke-linecap:round; stroke-linejoin:round;">
<g transform="rotate(-90.000000 172.3707 99.0600)">
<text x="172.3707" y="99.0600"
textLength="3.7884" font-size="1.6933" lengthAdjust="spacingAndGlyphs"
text-anchor="end" opacity="0">B-</text>
</g>
<g class="stroked-text"><desc>B-</desc>
<path d="M171.5292 101.4397
L171.5897 101.2583
" />
<path d="M171.5897 101.2583
L171.6501 101.1978
" />
<path d="M171.6501 101.1978
L171.7711 101.1374
" />
<path d="M171.7711 101.1374
L171.9525 101.1374
" />
<path d="M171.9525 101.1374
L172.0735 101.1978
" />
<path d="M172.0735 101.1978
L172.1340 101.2583
" />
<path d="M172.1340 101.2583
L172.1944 101.3793
" />
<path d="M172.1944 101.3793
L172.1944 101.8631
" />
<path d="M172.1944 101.8631
L170.9244 101.8631
" />
<path d="M170.9244 101.8631
L170.9244 101.4397
" />
<path d="M170.9244 101.4397
L170.9849 101.3188
" />
<path d="M170.9849 101.3188
L171.0454 101.2583
" />
<path d="M171.0454 101.2583
L171.1663 101.1978
" />
<path d="M171.1663 101.1978
L171.2873 101.1978
" />
<path d="M171.2873 101.1978
L171.4082 101.2583
" />
<path d="M171.4082 101.2583
L171.4687 101.3188
" />
<path d="M171.4687 101.3188
L171.5292 101.4397
" />
<path d="M171.5292 101.4397
L171.5292 101.8631
" />
<path d="M171.7106 100.5931
L171.7106 99.6255
" />
</g></g>
<g style="fill:#2AA198; fill-opacity:0.0; 
stroke:#2AA198; stroke-width:0.1588; stroke-opacity:1; 
stroke-linecap:round; stroke-linejoin:round;">
</g>
<g style="fill:#2AA198; fill-opacity:0.0; 
stroke:#2AA198; stroke-width:0.4000; stroke-opacity:1; 
stroke-linecap:round; stroke-linejoin:round;">
<g transform="rotate(-90.000000 167.2907 99.0600)">
<text x="167.2907" y="99.0600"
textLength="3.7884" font-size="1.6933" lengthAdjust="spacingAndGlyphs"
text-anchor="end" opacity="0">B+</text>
</g>
<g class="stroked-text"><desc>B+</desc>
<path d="M166.4492 101.4397
L166.5097 101.2583
" />
<path d="M166.5097 101.2583
L166.5701 101.1978
" />
<path d="M166.5701 101.1978
L166.6911 101.1374
" />
<path d="M166.6911 101.1374
L166.8725 101.1374
" />
<path d="M166.8725 101.1374
L166.9935 101.1978
" />
<path d="M166.9935 101.1978
L167.0540 101.2583
" />
<path d="M167.0540 101.2583
L167.1144 101.3793
" />
<path d="M167.1144 101.3793
L167.1144 101.8631
" />
<path d="M167.1144 101.8631
L165.8444 101.8631
" />
<path d="M165.8444 101.8631
L165.8444 101.4397
" />
<path d="M165.8444 101.4397
L165.9049 101.3188
" />
<path d="M165.9049 101.3188
L165.9654 101.2583
" />
<path d="M165.9654 101.2583
L166.0863 101.1978
" />
<path d="M166.0863 101.1978
L166.2073 101.1978
" />
<path d="M166.2073 101.1978
L166.3282 101.2583
" />
<path d="M166.3282 101.2583
L166.3887 101.3188
" />
<path d="M166.3887 101.3188
L166.4492 101.4397
" />
<path d="M166.4492 101.4397
L166.4492 101.8631
" />
<path d="M166.6306 100.5931
L166.6306 99.6255
" />
<path d="M167.1144 100.1093
L166.1468 100.1093
" />
</g></g>
<g style="fill:#2AA198; fill-opacity:0.0; 
stroke:#2AA198; stroke-width:0.1588; stroke-opacity:1; 
stroke-linecap:round; stroke-linejoin:round;">
</g>
<g style="fill:#2AA198; fill-opacity:0.0; 
stroke:#2AA198; stroke-width:0.4000; stroke-opacity:1; 
stroke-linecap:round; stroke-linejoin:round;">
<text x="149.8600" y="88.5507"
textLength="3.6070" font-size="1.6933" lengthAdjust="spacingAndGlyphs"
text-anchor="start" opacity="0">A-</text>
<g class="stroked-text"><desc>A-</desc>
<path d="M150.3650 88.0116
L150.9697 88.0116
" />
<path d="M150.2440 88.3744
L150.6673 87.1044
" />
<path d="M150.6673 87.1044
L151.0907 88.3744
" />
<path d="M151.5140 87.8906
L152.4817 87.8906
" />
</g></g>
<g style="fill:#2AA198; fill-opacity:0.0; 
stroke:#2AA198; stroke-width:0.1588; stroke-opacity:1; 
stroke-linecap:round; stroke-linejoin:round;">
</g>
<g style="fill:#2AA198; fill-opacity:0.0; 
stroke:#2AA198; stroke-width:0.4000; stroke-opacity:1; 
stroke-linecap:round; stroke-linejoin:round;">
<text x="149.8600" y="93.6307"
textLength="3.7884" font-size="1.6933" lengthAdjust="spacingAndGlyphs"
text-anchor="start" opacity="0">B+</text>
<g class="stroked-text"><desc>B+</desc>
<path d="M150.8488 92.7892
L151.0302 92.8497
" />
<path d="M151.0302 92.8497
L151.0907 92.9101
" />
<path d="M151.0907 92.9101
L151.1511 93.0311
" />
<path d="M151.1511 93.0311
L151.1511 93.2125
" />
<path d="M151.1511 93.2125
L151.0907 93.3335
" />
<path d="M151.0907 93.3335
L151.0302 93.3940
" />
<path d="M151.0302 93.3940
L150.9092 93.4544
" />
<path d="M150.9092 93.4544
L150.4254 93.4544
" />
<path d="M150.4254 93.4544
L150.4254 92.1844
" />
<path d="M150.4254 92.1844
L150.8488 92.1844
" />
<path d="M150.8488 92.1844
L150.9697 92.2449
" />
<path d="M150.9697 92.2449
L151.0302 92.3054
" />
<path d="M151.0302 92.3054
L151.0907 92.4263
" />
<path d="M151.0907 92.4263
L151.0907 92.5473
" />
<path d="M151.0907 92.5473
L151.0302 92.6682
" />
<path d="M151.0302 92.6682
L150.9697 92.7287
" />
<path d="M150.9697 92.7287
L150.8488 92.7892
" />
<path d="M150.8488 92.7892
L150.4254 92.7892
" />
<path d="M151.6954 92.9706
L152.6631 92.9706
" />
<path d="M152.1792 93.4544
L152.1792 92.4868
" />
</g></g>
<g style="fill:#2AA198; fill-opacity:0.0; 
stroke:#2AA198; stroke-width:0.1588; stroke-opacity:1; 
stroke-linecap:round; stroke-linejoin:round;">
</g>
<g style="fill:#2AA198; fill-opacity:0.0; 
stroke:#2AA198; stroke-width:0.4000; stroke-opacity:1; 
stroke-linecap:round; stroke-linejoin:round;">
<text x="149.8600" y="86.0107"
textLength="3.6070" font-size="1.6933" lengthAdjust="spacingAndGlyphs"
text-anchor="start" opacity="0">A+</text>
<g class="stroked-text"><desc>A+</desc>
<path d="M150.3650 85.4716
L150.9697 85.4716
" />
<path d="M150.2440 85.8344
L150.6673 84.5644
" />
<path d="M150.6673 84.5644
L151.0907 85.8344
" />
<path d="M151.5140 85.3506
L152.4817 85.3506
" />
<path d="M151.9978 85.8344
L151.9978 84.8668
" />
</g></g>
<g style="fill:#2AA198; fill-opacity:0.0; 
stroke:#2AA198; stroke-width:0.1588; stroke-opacity:1; 
stroke-linecap:round; stroke-linejoin:round;">
</g>
<g style="fill:#2AA198; fill-opacity:0.0; 
stroke:#2AA198; stroke-width:0.4000; stroke-opacity:1; 
stroke-linecap:round; stroke-linejoin:round;">
<text x="149.8600" y="96.1707"
textLength="3.7884" font-size="1.6933" lengthAdjust="spacingAndGlyphs"
text-anchor="start" opacity="0">B-</text>
<g class="stroked-text"><desc>B-</desc>
<path d="M150.8488 95.3292
L151.0302 95.3897
" />
<path d="M151.0302 95.3897
L151.0907 95.4501
" />
<path d="M151.0907 95.4501
L151.1511 95.5711
" />
<path d="M151.1511 95.5711
L151.1511 95.7525
" />
<path d="M151.1511 95.7525
L151.0907 95.8735
" />
<path d="M151.0907 95.8735
L151.0302 95.9340
" />
<path d="M151.0302 95.9340
L150.9092 95.9944
" />
<path d="M150.9092 95.9944
L150.4254 95.9944
" />
<path d="M150.4254 95.9944
L150.4254 94.7244
" />
<path d="M150.4254 94.7244
L150.8488 94.7244
" />
<path d="M150.8488 94.7244
L150.9697 94.7849
" />
<path d="M150.9697 94.7849
L151.0302 94.8454
" />
<path d="M151.0302 94.8454
L151.0907 94.9663
" />
<path d="M151.0907 94.9663
L151.0907 95.0873
" />
<path d="M151.0907 95.0873
L151.0302 95.2082
" />
<path d="M151.0302 95.2082
L150.9697 95.2687
" />
<path d="M150.9697 95.2687
L150.8488 95.3292
" />
<path d="M150.8488 95.3292
L150.4254 95.3292
" />
<path d="M151.6954 95.5106
L152.6631 95.5106
" />
</g></g>
<g style="fill:#2AA198; fill-opacity:0.0; 
stroke:#2AA198; stroke-width:0.1588; stroke-opacity:1; 
stroke-linecap:round; stroke-linejoin:round;">
</g>
<g style="fill:#2AA198; fill-opacity:0.0; 
stroke:#2AA198; stroke-width:0.4000; stroke-opacity:1; 
stroke-linecap:round; stroke-linejoin:round;">
<text x="158.7500" y="89.8207"
textLength="3.6070" font-size="1.6933" lengthAdjust="spacingAndGlyphs"
text-anchor="end" opacity="0">A-</text>
<g class="stroked-text"><desc>A-</desc>
<path d="M156.0678 89.2816
L156.6725 89.2816
" />
<path d="M155.9468 89.6444
L156.3701 88.3744
" />
<path d="M156.3701 88.3744
L156.7935 89.6444
" />
<path d="M157.2168 89.1606
L158.1845 89.1606
" />
</g></g>
<g style="fill:#2AA198; fill-opacity:0.0; 
stroke:#2AA198; stroke-width:0.1588; stroke-opacity:1; 
stroke-linecap:round; stroke-linejoin:round;">
</g>
<g style="fill:#2AA198; fill-opacity:0.0; 
stroke:#2AA198; stroke-width:0.4000; stroke-opacity:1; 
stroke-linecap:round; stroke-linejoin:round;">
<text x="116.8400" y="80.9307"
textLength="10.0175" font-size="1.6933" lengthAdjust="spacingAndGlyphs"
text-anchor="end" opacity="0">SPI/UART</text>
<g class="stroked-text"><desc>SPI/UART</desc>
<path d="M107.7473 80.6940
L107.9287 80.7544
" />
<path d="M107.9287 80.7544
L108.2311 80.7544
" />
<path d="M108.2311 80.7544
L108.3520 80.6940
" />
<path d="M108.3520 80.6940
L108.4125 80.6335
" />
<path d="M108.4125 80.6335
L108.4730 80.5125
" />
<path d="M108.4730 80.5125
L108.4730 80.3916
" />
<path d="M108.4730 80.3916
L108.4125 80.2706
" />
<path d="M108.4125 80.2706
L108.3520 80.2101
" />
<path d="M108.3520 80.2101
L108.2311 80.1497
" />
<path d="M108.2311 80.1497
L107.9892 80.0892
" />
<path d="M107.9892 80.0892
L107.8682 80.0287
" />
<path d="M107.8682 80.0287
L107.8077 79.9682
" />
<path d="M107.8077 79.9682
L107.7473 79.8473
" />
<path d="M107.7473 79.8473
L107.7473 79.7263
" />
<path d="M107.7473 79.7263
L107.8077 79.6054
" />
<path d="M107.8077 79.6054
L107.8682 79.5449
" />
<path d="M107.8682 79.5449
L107.9892 79.4844
" />
<path d="M107.9892 79.4844
L108.2915 79.4844
" />
<path d="M108.2915 79.4844
L108.4730 79.5449
" />
<path d="M109.0172 80.7544
L109.0172 79.4844
" />
<path d="M109.0172 79.4844
L109.5010 79.4844
" />
<path d="M109.5010 79.4844
L109.6220 79.5449
" />
<path d="M109.6220 79.5449
L109.6825 79.6054
" />
<path d="M109.6825 79.6054
L109.7429 79.7263
" />
<path d="M109.7429 79.7263
L109.7429 79.9078
" />
<path d="M109.7429 79.9078
L109.6825 80.0287
" />
<path d="M109.6825 80.0287
L109.6220 80.0892
" />
<path d="M109.6220 80.0892
L109.5010 80.1497
" />
<path d="M109.5010 80.1497
L109.0172 80.1497
" />
<path d="M110.2872 80.7544
L110.2872 79.4844
" />
<path d="M111.7992 79.4240
L110.7106 81.0568
" />
<path d="M112.2225 79.4844
L112.2225 80.5125
" />
<path d="M112.2225 80.5125
L112.2830 80.6335
" />
<path d="M112.2830 80.6335
L112.3435 80.6940
" />
<path d="M112.3435 80.6940
L112.4644 80.7544
" />
<path d="M112.4644 80.7544
L112.7063 80.7544
" />
<path d="M112.7063 80.7544
L112.8273 80.6940
" />
<path d="M112.8273 80.6940
L112.8878 80.6335
" />
<path d="M112.8878 80.6335
L112.9482 80.5125
" />
<path d="M112.9482 80.5125
L112.9482 79.4844
" />
<path d="M113.4926 80.3916
L114.0973 80.3916
" />
<path d="M113.3716 80.7544
L113.7949 79.4844
" />
<path d="M113.7949 79.4844
L114.2183 80.7544
" />
<path d="M115.3673 80.7544
L114.9440 80.1497
" />
<path d="M114.6416 80.7544
L114.6416 79.4844
" />
<path d="M114.6416 79.4844
L115.1254 79.4844
" />
<path d="M115.1254 79.4844
L115.2464 79.5449
" />
<path d="M115.2464 79.5449
L115.3069 79.6054
" />
<path d="M115.3069 79.6054
L115.3673 79.7263
" />
<path d="M115.3673 79.7263
L115.3673 79.9078
" />
<path d="M115.3673 79.9078
L115.3069 80.0287
" />
<path d="M115.3069 80.0287
L115.2464 80.0892
" />
<path d="M115.2464 80.0892
L115.1254 80.1497
" />
<path d="M115.1254 80.1497
L114.6416 80.1497
" />
<path d="M115.7302 79.4844
L116.4559 79.4844
" />
<path d="M116.0931 80.7544
L116.0931 79.4844
" />
</g></g>
<g style="fill:#2AA198; fill-opacity:0.0; 
stroke:#2AA198; stroke-width:0.1524; stroke-opacity:1; 
stroke-linecap:round; stroke-linejoin:round;">
</g>
<g style="fill:#859900; fill-opacity:0.0; 
stroke:#859900; stroke-width:0.1524; stroke-opacity:1; 
stroke-linecap:round; stroke-linejoin:round;">
</g>
<g style="fill:#859900; fill-opacity:0.0; 
stroke:#859900; stroke-width:0.4000; stroke-opacity:1; 
stroke-linecap:round; stroke-linejoin:round;">
<path d="M149.8600 93.9800
L147.3200 93.9800
" />
</g>
<g style="fill:#859900; fill-opacity:0.0; 
stroke:#859900; stroke-width:0.1524; stroke-opacity:1; 
stroke-linecap:round; stroke-linejoin:round;">
</g>
<g style="fill:#859900; fill-opacity:0.0; 
stroke:#859900; stroke-width:0.4000; stroke-opacity:1; 
stroke-linecap:round; stroke-linejoin:round;">
<path d="M149.8600 96.5200
L147.3200 96.5200
" />
</g>
<g style="fill:#859900; fill-opacity:0.0; 
stroke:#859900; stroke-width:0.1524; stroke-opacity:1; 
stroke-linecap:round; stroke-linejoin:round;">
</g>
<g style="fill:#859900; fill-opacity:0.0; 
stroke:#859900; stroke-width:0.4000; stroke-opacity:1; 
stroke-linecap:round; stroke-linejoin:round;">
<path d="M158.7500 85.0900
L161.2900 85.0900
" />
</g>
<g style="fill:#859900; fill-opacity:0.0; 
stroke:#859900; stroke-width:0.1524; stroke-opacity:1; 
stroke-linecap:round; stroke-linejoin:round;">
</g>
<g style="fill:#859900; fill-opacity:0.0; 
stroke:#859900; stroke-width:0.4000; stroke-opacity:1; 
stroke-linecap:round; stroke-linejoin:round;">
<path d="M158.7500 90.1700
L161.2900 90.1700
" />
</g>
<g style="fill:#859900; fill-opacity:0.0; 
stroke:#859900; stroke-width:0.1524; stroke-opacity:1; 
stroke-linecap:round; stroke-linejoin:round;">
</g>
<g style="fill:#859900; fill-opacity:0.0; 
stroke:#859900; stroke-width:0.4000; stroke-opacity:1; 
stroke-linecap:round; stroke-linejoin:round;">
<path d="M172.7200 99.0600
L172.7200 96.5200
" />
</g>
<g style="fill:#859900; fill-opacity:0.0; 
stroke:#859900; stroke-width:0.1524; stroke-opacity:1; 
stroke-linecap:round; stroke-linejoin:round;">
</g>
<g style="fill:#859900; fill-opacity:0.0; 
stroke:#859900; stroke-width:0.4000; stroke-opacity:1; 
stroke-linecap:round; stroke-linejoin:round;">
<path d="M167.6400 99.0600
L167.6400 96.5200
" />
</g>
<g style="fill:#859900; fill-opacity:0.0; 
stroke:#859900; stroke-width:0.1524; stroke-opacity:1; 
stroke-linecap:round; stroke-linejoin:round;">
</g>
<g style="fill:#859900; fill-opacity:0.0; 
stroke:#859900; stroke-width:0.4000; stroke-opacity:1; 
stroke-linecap:round; stroke-linejoin:round;">
<path d="M149.8600 88.9000
L147.3200 88.9000
" />
</g>
<g style="fill:#859900; fill-opacity:0.0; 
stroke:#859900; stroke-width:0.1524; stroke-opacity:1; 
stroke-linecap:round; stroke-linejoin:round;">
</g>
<g style="fill:#859900; fill-opacity:0.0; 
stroke:#859900; stroke-width:0.4000; stroke-opacity:1; 
stroke-linecap:round; stroke-linejoin:round;">
<path d="M149.8600 86.3600
L147.3200 86.3600
" />
</g>
<g style="fill:#859900; fill-opacity:0.0; 
stroke:#859900; stroke-width:0.1524; stroke-opacity:1; 
stroke-linecap:round; stroke-linejoin:round;">
</g>
<g style="fill:#859900; fill-opacity:0.0; 
stroke:#859900; stroke-width:0.4000; stroke-opacity:1; 
stroke-linecap:round; stroke-linejoin:round;">
<path d="M116.8400 81.2800
L119.3800 81.2800
" />
</g> 
</svg>
