<?xml version="1.0" standalone="no"?>
 <!DOCTYPE svg PUBLIC "-//W3C//DTD SVG 1.1//EN" 
 "http://www.w3.org/Graphics/SVG/1.1/DTD/svg11.dtd"> 
<svg
  xmlns:svg="http://www.w3.org/2000/svg"
  xmlns="http://www.w3.org/2000/svg"
  xmlns:xlink="http://www.w3.org/1999/xlink"
  version="1.1"
  width="297.0022mm" height="210.0072mm" viewBox="0.0000 0.0000 297.0022 210.0072">
<title>SVG Image created as trinamic-wiring-TMC51X0.svg date 2024/08/01 14:17:40 </title>
  <desc>Image generated by Eeschema-SVG </desc>
<g style="fill:#000000; fill-opacity:1.0000;stroke:#000000; stroke-opacity:1.0000;
stroke-linecap:round; stroke-linejoin:round;"
 transform="translate(0 0) scale(1 1)">
</g>
<g style="fill:#000000; fill-opacity:0.0; 
stroke:#000000; stroke-width:0.1524; stroke-opacity:1; 
stroke-linecap:round; stroke-linejoin:round;">
</g>
<g style="fill:#FFFFFF; fill-opacity:0.0; 
stroke:#FFFFFF; stroke-width:0.1524; stroke-opacity:1; 
stroke-linecap:round; stroke-linejoin:round;">
</g>
<g style="fill:#FFFFFF; fill-opacity:0.0000; 
stroke:#FFFFFF; stroke-width:0.0001; stroke-opacity:1; 
stroke-linecap:round; stroke-linejoin:round;">
<rect x="43.180000" y="53.340000" width="12.700000" height="3.810000" rx="0.000000" />
</g>
<g style="fill:#FFFFFF; fill-opacity:0.0000; 
stroke:#FFFFFF; stroke-width:0.1524; stroke-opacity:1; 
stroke-linecap:round; stroke-linejoin:round;">
</g>
<g style="fill:#FFFFFF; fill-opacity:0.0000; 
stroke:#FFFFFF; stroke-width:0.0001; stroke-opacity:1; 
stroke-linecap:round; stroke-linejoin:round;">
<rect x="93.980000" y="53.340000" width="12.700000" height="3.810000" rx="0.000000" />
</g>
<g style="fill:#FFFFFF; fill-opacity:0.0000; 
stroke:#FFFFFF; stroke-width:0.1524; stroke-opacity:1; 
stroke-linecap:round; stroke-linejoin:round;">
</g>
<g style="fill:#FFFFFF; fill-opacity:0.0000; 
stroke:#FFFFFF; stroke-width:0.0001; stroke-opacity:1; 
stroke-linecap:round; stroke-linejoin:round;">
<rect x="93.980000" y="67.310000" width="12.700000" height="3.810000" rx="0.000000" />
</g>
<g style="fill:#FFFFFF; fill-opacity:0.0000; 
stroke:#FFFFFF; stroke-width:0.1524; stroke-opacity:1; 
stroke-linecap:round; stroke-linejoin:round;">
</g>
<g style="fill:#FFFFFF; fill-opacity:0.0000; 
stroke:#FFFFFF; stroke-width:0.0001; stroke-opacity:1; 
stroke-linecap:round; stroke-linejoin:round;">
<rect x="43.180000" y="67.310000" width="12.700000" height="3.810000" rx="0.000000" />
</g>
<g style="fill:#FFFFFF; fill-opacity:0.0000; 
stroke:#FFFFFF; stroke-width:0.1524; stroke-opacity:1; 
stroke-linecap:round; stroke-linejoin:round;">
</g>
<g style="fill:#586E75; fill-opacity:1.0000; 
stroke:#586E75; stroke-width:0.1524; stroke-opacity:1; 
stroke-linecap:round; stroke-linejoin:round;">
</g>
<g style="fill:#586E75; fill-opacity:0.0; 
stroke:#586E75; stroke-width:0.4000; stroke-opacity:1; 
stroke-linecap:round; stroke-linejoin:round;">
<rect x="43.180000" y="53.340000" width="12.700000" height="3.810000" rx="0.000000" />
</g>
<g style="fill:#268BD2; fill-opacity:0.0; 
stroke:#268BD2; stroke-width:0.4000; stroke-opacity:1; 
stroke-linecap:round; stroke-linejoin:round;">
</g>
<g style="fill:#268BD2; fill-opacity:0.0; 
stroke:#268BD2; stroke-width:0.3175; stroke-opacity:1; 
stroke-linecap:round; stroke-linejoin:round;">
<text x="43.1800" y="52.6284"
textLength="11.2214" font-size="1.6933" lengthAdjust="spacingAndGlyphs"
text-anchor="start" opacity="0">description</text>
<g class="stroked-text"><desc>description</desc>
<path d="M44.2354 52.4563
L44.2354 51.1863
" />
<path d="M44.2354 52.3959
L44.1145 52.4563
" />
<path d="M44.1145 52.4563
L43.8726 52.4563
" />
<path d="M43.8726 52.4563
L43.7516 52.3959
" />
<path d="M43.7516 52.3959
L43.6911 52.3354
" />
<path d="M43.6911 52.3354
L43.6307 52.2144
" />
<path d="M43.6307 52.2144
L43.6307 51.8516
" />
<path d="M43.6307 51.8516
L43.6911 51.7306
" />
<path d="M43.6911 51.7306
L43.7516 51.6701
" />
<path d="M43.7516 51.6701
L43.8726 51.6097
" />
<path d="M43.8726 51.6097
L44.1145 51.6097
" />
<path d="M44.1145 51.6097
L44.2354 51.6701
" />
<path d="M45.3239 52.3959
L45.2030 52.4563
" />
<path d="M45.2030 52.4563
L44.9611 52.4563
" />
<path d="M44.9611 52.4563
L44.8401 52.3959
" />
<path d="M44.8401 52.3959
L44.7797 52.2749
" />
<path d="M44.7797 52.2749
L44.7797 51.7911
" />
<path d="M44.7797 51.7911
L44.8401 51.6701
" />
<path d="M44.8401 51.6701
L44.9611 51.6097
" />
<path d="M44.9611 51.6097
L45.2030 51.6097
" />
<path d="M45.2030 51.6097
L45.3239 51.6701
" />
<path d="M45.3239 51.6701
L45.3844 51.7911
" />
<path d="M45.3844 51.7911
L45.3844 51.9120
" />
<path d="M45.3844 51.9120
L44.7797 52.0330
" />
<path d="M45.8683 52.3959
L45.9892 52.4563
" />
<path d="M45.9892 52.4563
L46.2311 52.4563
" />
<path d="M46.2311 52.4563
L46.3521 52.3959
" />
<path d="M46.3521 52.3959
L46.4125 52.2749
" />
<path d="M46.4125 52.2749
L46.4125 52.2144
" />
<path d="M46.4125 52.2144
L46.3521 52.0935
" />
<path d="M46.3521 52.0935
L46.2311 52.0330
" />
<path d="M46.2311 52.0330
L46.0497 52.0330
" />
<path d="M46.0497 52.0330
L45.9287 51.9725
" />
<path d="M45.9287 51.9725
L45.8683 51.8516
" />
<path d="M45.8683 51.8516
L45.8683 51.7911
" />
<path d="M45.8683 51.7911
L45.9287 51.6701
" />
<path d="M45.9287 51.6701
L46.0497 51.6097
" />
<path d="M46.0497 51.6097
L46.2311 51.6097
" />
<path d="M46.2311 51.6097
L46.3521 51.6701
" />
<path d="M47.5011 52.3959
L47.3802 52.4563
" />
<path d="M47.3802 52.4563
L47.1383 52.4563
" />
<path d="M47.1383 52.4563
L47.0173 52.3959
" />
<path d="M47.0173 52.3959
L46.9568 52.3354
" />
<path d="M46.9568 52.3354
L46.8964 52.2144
" />
<path d="M46.8964 52.2144
L46.8964 51.8516
" />
<path d="M46.8964 51.8516
L46.9568 51.7306
" />
<path d="M46.9568 51.7306
L47.0173 51.6701
" />
<path d="M47.0173 51.6701
L47.1383 51.6097
" />
<path d="M47.1383 51.6097
L47.3802 51.6097
" />
<path d="M47.3802 51.6097
L47.5011 51.6701
" />
<path d="M48.0454 52.4563
L48.0454 51.6097
" />
<path d="M48.0454 51.8516
L48.1059 51.7306
" />
<path d="M48.1059 51.7306
L48.1664 51.6701
" />
<path d="M48.1664 51.6701
L48.2873 51.6097
" />
<path d="M48.2873 51.6097
L48.4083 51.6097
" />
<path d="M48.8316 52.4563
L48.8316 51.6097
" />
<path d="M48.8316 51.1863
L48.7712 51.2468
" />
<path d="M48.7712 51.2468
L48.8316 51.3073
" />
<path d="M48.8316 51.3073
L48.8921 51.2468
" />
<path d="M48.8921 51.2468
L48.8316 51.1863
" />
<path d="M48.8316 51.1863
L48.8316 51.3073
" />
<path d="M49.4364 51.6097
L49.4364 52.8797
" />
<path d="M49.4364 51.6701
L49.5574 51.6097
" />
<path d="M49.5574 51.6097
L49.7993 51.6097
" />
<path d="M49.7993 51.6097
L49.9202 51.6701
" />
<path d="M49.9202 51.6701
L49.9807 51.7306
" />
<path d="M49.9807 51.7306
L50.0412 51.8516
" />
<path d="M50.0412 51.8516
L50.0412 52.2144
" />
<path d="M50.0412 52.2144
L49.9807 52.3354
" />
<path d="M49.9807 52.3354
L49.9202 52.3959
" />
<path d="M49.9202 52.3959
L49.7993 52.4563
" />
<path d="M49.7993 52.4563
L49.5574 52.4563
" />
<path d="M49.5574 52.4563
L49.4364 52.3959
" />
<path d="M50.4040 51.6097
L50.8878 51.6097
" />
<path d="M50.5854 51.1863
L50.5854 52.2749
" />
<path d="M50.5854 52.2749
L50.6459 52.3959
" />
<path d="M50.6459 52.3959
L50.7669 52.4563
" />
<path d="M50.7669 52.4563
L50.8878 52.4563
" />
<path d="M51.3111 52.4563
L51.3111 51.6097
" />
<path d="M51.3111 51.1863
L51.2507 51.2468
" />
<path d="M51.2507 51.2468
L51.3111 51.3073
" />
<path d="M51.3111 51.3073
L51.3716 51.2468
" />
<path d="M51.3716 51.2468
L51.3111 51.1863
" />
<path d="M51.3111 51.1863
L51.3111 51.3073
" />
<path d="M52.0974 52.4563
L51.9764 52.3959
" />
<path d="M51.9764 52.3959
L51.9159 52.3354
" />
<path d="M51.9159 52.3354
L51.8555 52.2144
" />
<path d="M51.8555 52.2144
L51.8555 51.8516
" />
<path d="M51.8555 51.8516
L51.9159 51.7306
" />
<path d="M51.9159 51.7306
L51.9764 51.6701
" />
<path d="M51.9764 51.6701
L52.0974 51.6097
" />
<path d="M52.0974 51.6097
L52.2788 51.6097
" />
<path d="M52.2788 51.6097
L52.3997 51.6701
" />
<path d="M52.3997 51.6701
L52.4602 51.7306
" />
<path d="M52.4602 51.7306
L52.5207 51.8516
" />
<path d="M52.5207 51.8516
L52.5207 52.2144
" />
<path d="M52.5207 52.2144
L52.4602 52.3354
" />
<path d="M52.4602 52.3354
L52.3997 52.3959
" />
<path d="M52.3997 52.3959
L52.2788 52.4563
" />
<path d="M52.2788 52.4563
L52.0974 52.4563
" />
<path d="M53.0649 51.6097
L53.0649 52.4563
" />
<path d="M53.0649 51.7306
L53.1254 51.6701
" />
<path d="M53.1254 51.6701
L53.2464 51.6097
" />
<path d="M53.2464 51.6097
L53.4278 51.6097
" />
<path d="M53.4278 51.6097
L53.5487 51.6701
" />
<path d="M53.5487 51.6701
L53.6092 51.7911
" />
<path d="M53.6092 51.7911
L53.6092 52.4563
" />
</g></g>
<g style="fill:#6C71C4; fill-opacity:0.0; 
stroke:#6C71C4; stroke-width:0.3175; stroke-opacity:1; 
stroke-linecap:round; stroke-linejoin:round;">
<text x="43.1800" y="59.0046"
textLength="35.8352" font-size="1.6933" lengthAdjust="spacingAndGlyphs"
text-anchor="start" opacity="0">File: tmc51x0-description.kicad_sch</text>
<g class="stroked-text"><desc>File: tmc51x0-description.kicad_sch</desc>
<path d="M44.1145 58.3832
L43.6911 58.3832
" />
<path d="M43.6911 59.0484
L43.6911 57.7784
" />
<path d="M43.6911 57.7784
L44.2959 57.7784
" />
<path d="M44.7797 59.0484
L44.7797 58.2018
" />
<path d="M44.7797 57.7784
L44.7193 57.8389
" />
<path d="M44.7193 57.8389
L44.7797 57.8994
" />
<path d="M44.7797 57.8994
L44.8402 57.8389
" />
<path d="M44.8402 57.8389
L44.7797 57.7784
" />
<path d="M44.7797 57.7784
L44.7797 57.8994
" />
<path d="M45.5660 59.0484
L45.4450 58.9880
" />
<path d="M45.4450 58.9880
L45.3845 58.8670
" />
<path d="M45.3845 58.8670
L45.3845 57.7784
" />
<path d="M46.5335 58.9880
L46.4126 59.0484
" />
<path d="M46.4126 59.0484
L46.1707 59.0484
" />
<path d="M46.1707 59.0484
L46.0497 58.9880
" />
<path d="M46.0497 58.9880
L45.9893 58.8670
" />
<path d="M45.9893 58.8670
L45.9893 58.3832
" />
<path d="M45.9893 58.3832
L46.0497 58.2622
" />
<path d="M46.0497 58.2622
L46.1707 58.2018
" />
<path d="M46.1707 58.2018
L46.4126 58.2018
" />
<path d="M46.4126 58.2018
L46.5335 58.2622
" />
<path d="M46.5335 58.2622
L46.5940 58.3832
" />
<path d="M46.5940 58.3832
L46.5940 58.5041
" />
<path d="M46.5940 58.5041
L45.9893 58.6251
" />
<path d="M47.1383 58.9275
L47.1988 58.9880
" />
<path d="M47.1988 58.9880
L47.1383 59.0484
" />
<path d="M47.1383 59.0484
L47.0779 58.9880
" />
<path d="M47.0779 58.9880
L47.1383 58.9275
" />
<path d="M47.1383 58.9275
L47.1383 59.0484
" />
<path d="M47.1383 58.2622
L47.1988 58.3227
" />
<path d="M47.1988 58.3227
L47.1383 58.3832
" />
<path d="M47.1383 58.3832
L47.0779 58.3227
" />
<path d="M47.0779 58.3227
L47.1383 58.2622
" />
<path d="M47.1383 58.2622
L47.1383 58.3832
" />
<path d="M48.5293 58.2018
L49.0131 58.2018
" />
<path d="M48.7107 57.7784
L48.7107 58.8670
" />
<path d="M48.7107 58.8670
L48.7712 58.9880
" />
<path d="M48.7712 58.9880
L48.8922 59.0484
" />
<path d="M48.8922 59.0484
L49.0131 59.0484
" />
<path d="M49.4364 59.0484
L49.4364 58.2018
" />
<path d="M49.4364 58.3227
L49.4969 58.2622
" />
<path d="M49.4969 58.2622
L49.6179 58.2018
" />
<path d="M49.6179 58.2018
L49.7993 58.2018
" />
<path d="M49.7993 58.2018
L49.9202 58.2622
" />
<path d="M49.9202 58.2622
L49.9807 58.3832
" />
<path d="M49.9807 58.3832
L49.9807 59.0484
" />
<path d="M49.9807 58.3832
L50.0412 58.2622
" />
<path d="M50.0412 58.2622
L50.1621 58.2018
" />
<path d="M50.1621 58.2018
L50.3436 58.2018
" />
<path d="M50.3436 58.2018
L50.4645 58.2622
" />
<path d="M50.4645 58.2622
L50.5250 58.3832
" />
<path d="M50.5250 58.3832
L50.5250 59.0484
" />
<path d="M51.6740 58.9880
L51.5531 59.0484
" />
<path d="M51.5531 59.0484
L51.3112 59.0484
" />
<path d="M51.3112 59.0484
L51.1902 58.9880
" />
<path d="M51.1902 58.9880
L51.1297 58.9275
" />
<path d="M51.1297 58.9275
L51.0693 58.8065
" />
<path d="M51.0693 58.8065
L51.0693 58.4437
" />
<path d="M51.0693 58.4437
L51.1297 58.3227
" />
<path d="M51.1297 58.3227
L51.1902 58.2622
" />
<path d="M51.1902 58.2622
L51.3112 58.2018
" />
<path d="M51.3112 58.2018
L51.5531 58.2018
" />
<path d="M51.5531 58.2018
L51.6740 58.2622
" />
<path d="M52.8231 57.7784
L52.2183 57.7784
" />
<path d="M52.2183 57.7784
L52.1579 58.3832
" />
<path d="M52.1579 58.3832
L52.2183 58.3227
" />
<path d="M52.2183 58.3227
L52.3393 58.2622
" />
<path d="M52.3393 58.2622
L52.6417 58.2622
" />
<path d="M52.6417 58.2622
L52.7626 58.3227
" />
<path d="M52.7626 58.3227
L52.8231 58.3832
" />
<path d="M52.8231 58.3832
L52.8836 58.5041
" />
<path d="M52.8836 58.5041
L52.8836 58.8065
" />
<path d="M52.8836 58.8065
L52.8231 58.9275
" />
<path d="M52.8231 58.9275
L52.7626 58.9880
" />
<path d="M52.7626 58.9880
L52.6417 59.0484
" />
<path d="M52.6417 59.0484
L52.3393 59.0484
" />
<path d="M52.3393 59.0484
L52.2183 58.9880
" />
<path d="M52.2183 58.9880
L52.1579 58.9275
" />
<path d="M54.0931 59.0484
L53.3674 59.0484
" />
<path d="M53.7302 59.0484
L53.7302 57.7784
" />
<path d="M53.7302 57.7784
L53.6093 57.9599
" />
<path d="M53.6093 57.9599
L53.4883 58.0808
" />
<path d="M53.4883 58.0808
L53.3674 58.1413
" />
<path d="M54.5164 59.0484
L55.1816 58.2018
" />
<path d="M54.5164 58.2018
L55.1816 59.0484
" />
<path d="M55.9073 57.7784
L56.0283 57.7784
" />
<path d="M56.0283 57.7784
L56.1492 57.8389
" />
<path d="M56.1492 57.8389
L56.2097 57.8994
" />
<path d="M56.2097 57.8994
L56.2702 58.0203
" />
<path d="M56.2702 58.0203
L56.3307 58.2622
" />
<path d="M56.3307 58.2622
L56.3307 58.5646
" />
<path d="M56.3307 58.5646
L56.2702 58.8065
" />
<path d="M56.2702 58.8065
L56.2097 58.9275
" />
<path d="M56.2097 58.9275
L56.1492 58.9880
" />
<path d="M56.1492 58.9880
L56.0283 59.0484
" />
<path d="M56.0283 59.0484
L55.9073 59.0484
" />
<path d="M55.9073 59.0484
L55.7864 58.9880
" />
<path d="M55.7864 58.9880
L55.7259 58.9275
" />
<path d="M55.7259 58.9275
L55.6654 58.8065
" />
<path d="M55.6654 58.8065
L55.6050 58.5646
" />
<path d="M55.6050 58.5646
L55.6050 58.2622
" />
<path d="M55.6050 58.2622
L55.6654 58.0203
" />
<path d="M55.6654 58.0203
L55.7259 57.8994
" />
<path d="M55.7259 57.8994
L55.7864 57.8389
" />
<path d="M55.7864 57.8389
L55.9073 57.7784
" />
<path d="M56.8749 58.5646
L57.8426 58.5646
" />
<path d="M58.9916 59.0484
L58.9916 57.7784
" />
<path d="M58.9916 58.9880
L58.8707 59.0484
" />
<path d="M58.8707 59.0484
L58.6288 59.0484
" />
<path d="M58.6288 59.0484
L58.5078 58.9880
" />
<path d="M58.5078 58.9880
L58.4473 58.9275
" />
<path d="M58.4473 58.9275
L58.3869 58.8065
" />
<path d="M58.3869 58.8065
L58.3869 58.4437
" />
<path d="M58.3869 58.4437
L58.4473 58.3227
" />
<path d="M58.4473 58.3227
L58.5078 58.2622
" />
<path d="M58.5078 58.2622
L58.6288 58.2018
" />
<path d="M58.6288 58.2018
L58.8707 58.2018
" />
<path d="M58.8707 58.2018
L58.9916 58.2622
" />
<path d="M60.0801 58.9880
L59.9592 59.0484
" />
<path d="M59.9592 59.0484
L59.7173 59.0484
" />
<path d="M59.7173 59.0484
L59.5963 58.9880
" />
<path d="M59.5963 58.9880
L59.5359 58.8670
" />
<path d="M59.5359 58.8670
L59.5359 58.3832
" />
<path d="M59.5359 58.3832
L59.5963 58.2622
" />
<path d="M59.5963 58.2622
L59.7173 58.2018
" />
<path d="M59.7173 58.2018
L59.9592 58.2018
" />
<path d="M59.9592 58.2018
L60.0801 58.2622
" />
<path d="M60.0801 58.2622
L60.1406 58.3832
" />
<path d="M60.1406 58.3832
L60.1406 58.5041
" />
<path d="M60.1406 58.5041
L59.5359 58.6251
" />
<path d="M60.6245 58.9880
L60.7454 59.0484
" />
<path d="M60.7454 59.0484
L60.9873 59.0484
" />
<path d="M60.9873 59.0484
L61.1083 58.9880
" />
<path d="M61.1083 58.9880
L61.1687 58.8670
" />
<path d="M61.1687 58.8670
L61.1687 58.8065
" />
<path d="M61.1687 58.8065
L61.1083 58.6856
" />
<path d="M61.1083 58.6856
L60.9873 58.6251
" />
<path d="M60.9873 58.6251
L60.8059 58.6251
" />
<path d="M60.8059 58.6251
L60.6849 58.5646
" />
<path d="M60.6849 58.5646
L60.6245 58.4437
" />
<path d="M60.6245 58.4437
L60.6245 58.3832
" />
<path d="M60.6245 58.3832
L60.6849 58.2622
" />
<path d="M60.6849 58.2622
L60.8059 58.2018
" />
<path d="M60.8059 58.2018
L60.9873 58.2018
" />
<path d="M60.9873 58.2018
L61.1083 58.2622
" />
<path d="M62.2573 58.9880
L62.1364 59.0484
" />
<path d="M62.1364 59.0484
L61.8945 59.0484
" />
<path d="M61.8945 59.0484
L61.7735 58.9880
" />
<path d="M61.7735 58.9880
L61.7130 58.9275
" />
<path d="M61.7130 58.9275
L61.6526 58.8065
" />
<path d="M61.6526 58.8065
L61.6526 58.4437
" />
<path d="M61.6526 58.4437
L61.7130 58.3227
" />
<path d="M61.7130 58.3227
L61.7735 58.2622
" />
<path d="M61.7735 58.2622
L61.8945 58.2018
" />
<path d="M61.8945 58.2018
L62.1364 58.2018
" />
<path d="M62.1364 58.2018
L62.2573 58.2622
" />
<path d="M62.8016 59.0484
L62.8016 58.2018
" />
<path d="M62.8016 58.4437
L62.8621 58.3227
" />
<path d="M62.8621 58.3227
L62.9226 58.2622
" />
<path d="M62.9226 58.2622
L63.0435 58.2018
" />
<path d="M63.0435 58.2018
L63.1645 58.2018
" />
<path d="M63.5878 59.0484
L63.5878 58.2018
" />
<path d="M63.5878 57.7784
L63.5274 57.8389
" />
<path d="M63.5274 57.8389
L63.5878 57.8994
" />
<path d="M63.5878 57.8994
L63.6483 57.8389
" />
<path d="M63.6483 57.8389
L63.5878 57.7784
" />
<path d="M63.5878 57.7784
L63.5878 57.8994
" />
<path d="M64.1926 58.2018
L64.1926 59.4718
" />
<path d="M64.1926 58.2622
L64.3136 58.2018
" />
<path d="M64.3136 58.2018
L64.5555 58.2018
" />
<path d="M64.5555 58.2018
L64.6764 58.2622
" />
<path d="M64.6764 58.2622
L64.7369 58.3227
" />
<path d="M64.7369 58.3227
L64.7974 58.4437
" />
<path d="M64.7974 58.4437
L64.7974 58.8065
" />
<path d="M64.7974 58.8065
L64.7369 58.9275
" />
<path d="M64.7369 58.9275
L64.6764 58.9880
" />
<path d="M64.6764 58.9880
L64.5555 59.0484
" />
<path d="M64.5555 59.0484
L64.3136 59.0484
" />
<path d="M64.3136 59.0484
L64.1926 58.9880
" />
<path d="M65.1602 58.2018
L65.6440 58.2018
" />
<path d="M65.3416 57.7784
L65.3416 58.8670
" />
<path d="M65.3416 58.8670
L65.4021 58.9880
" />
<path d="M65.4021 58.9880
L65.5231 59.0484
" />
<path d="M65.5231 59.0484
L65.6440 59.0484
" />
<path d="M66.0673 59.0484
L66.0673 58.2018
" />
<path d="M66.0673 57.7784
L66.0069 57.8389
" />
<path d="M66.0069 57.8389
L66.0673 57.8994
" />
<path d="M66.0673 57.8994
L66.1278 57.8389
" />
<path d="M66.1278 57.8389
L66.0673 57.7784
" />
<path d="M66.0673 57.7784
L66.0673 57.8994
" />
<path d="M66.8536 59.0484
L66.7326 58.9880
" />
<path d="M66.7326 58.9880
L66.6721 58.9275
" />
<path d="M66.6721 58.9275
L66.6117 58.8065
" />
<path d="M66.6117 58.8065
L66.6117 58.4437
" />
<path d="M66.6117 58.4437
L66.6721 58.3227
" />
<path d="M66.6721 58.3227
L66.7326 58.2622
" />
<path d="M66.7326 58.2622
L66.8536 58.2018
" />
<path d="M66.8536 58.2018
L67.0350 58.2018
" />
<path d="M67.0350 58.2018
L67.1559 58.2622
" />
<path d="M67.1559 58.2622
L67.2164 58.3227
" />
<path d="M67.2164 58.3227
L67.2769 58.4437
" />
<path d="M67.2769 58.4437
L67.2769 58.8065
" />
<path d="M67.2769 58.8065
L67.2164 58.9275
" />
<path d="M67.2164 58.9275
L67.1559 58.9880
" />
<path d="M67.1559 58.9880
L67.0350 59.0484
" />
<path d="M67.0350 59.0484
L66.8536 59.0484
" />
<path d="M67.8211 58.2018
L67.8211 59.0484
" />
<path d="M67.8211 58.3227
L67.8816 58.2622
" />
<path d="M67.8816 58.2622
L68.0026 58.2018
" />
<path d="M68.0026 58.2018
L68.1840 58.2018
" />
<path d="M68.1840 58.2018
L68.3049 58.2622
" />
<path d="M68.3049 58.2622
L68.3654 58.3832
" />
<path d="M68.3654 58.3832
L68.3654 59.0484
" />
<path d="M68.9701 58.9275
L69.0306 58.9880
" />
<path d="M69.0306 58.9880
L68.9701 59.0484
" />
<path d="M68.9701 59.0484
L68.9097 58.9880
" />
<path d="M68.9097 58.9880
L68.9701 58.9275
" />
<path d="M68.9701 58.9275
L68.9701 59.0484
" />
<path d="M69.5749 59.0484
L69.5749 57.7784
" />
<path d="M69.6959 58.5646
L70.0587 59.0484
" />
<path d="M70.0587 58.2018
L69.5749 58.6856
" />
<path d="M70.6030 59.0484
L70.6030 58.2018
" />
<path d="M70.6030 57.7784
L70.5426 57.8389
" />
<path d="M70.5426 57.8389
L70.6030 57.8994
" />
<path d="M70.6030 57.8994
L70.6635 57.8389
" />
<path d="M70.6635 57.8389
L70.6030 57.7784
" />
<path d="M70.6030 57.7784
L70.6030 57.8994
" />
<path d="M71.7521 58.9880
L71.6312 59.0484
" />
<path d="M71.6312 59.0484
L71.3893 59.0484
" />
<path d="M71.3893 59.0484
L71.2683 58.9880
" />
<path d="M71.2683 58.9880
L71.2078 58.9275
" />
<path d="M71.2078 58.9275
L71.1474 58.8065
" />
<path d="M71.1474 58.8065
L71.1474 58.4437
" />
<path d="M71.1474 58.4437
L71.2078 58.3227
" />
<path d="M71.2078 58.3227
L71.2683 58.2622
" />
<path d="M71.2683 58.2622
L71.3893 58.2018
" />
<path d="M71.3893 58.2018
L71.6312 58.2018
" />
<path d="M71.6312 58.2018
L71.7521 58.2622
" />
<path d="M72.8407 59.0484
L72.8407 58.3832
" />
<path d="M72.8407 58.3832
L72.7802 58.2622
" />
<path d="M72.7802 58.2622
L72.6593 58.2018
" />
<path d="M72.6593 58.2018
L72.4174 58.2018
" />
<path d="M72.4174 58.2018
L72.2964 58.2622
" />
<path d="M72.8407 58.9880
L72.7198 59.0484
" />
<path d="M72.7198 59.0484
L72.4174 59.0484
" />
<path d="M72.4174 59.0484
L72.2964 58.9880
" />
<path d="M72.2964 58.9880
L72.2360 58.8670
" />
<path d="M72.2360 58.8670
L72.2360 58.7460
" />
<path d="M72.2360 58.7460
L72.2964 58.6251
" />
<path d="M72.2964 58.6251
L72.4174 58.5646
" />
<path d="M72.4174 58.5646
L72.7198 58.5646
" />
<path d="M72.7198 58.5646
L72.8407 58.5041
" />
<path d="M73.9897 59.0484
L73.9897 57.7784
" />
<path d="M73.9897 58.9880
L73.8688 59.0484
" />
<path d="M73.8688 59.0484
L73.6269 59.0484
" />
<path d="M73.6269 59.0484
L73.5059 58.9880
" />
<path d="M73.5059 58.9880
L73.4454 58.9275
" />
<path d="M73.4454 58.9275
L73.3850 58.8065
" />
<path d="M73.3850 58.8065
L73.3850 58.4437
" />
<path d="M73.3850 58.4437
L73.4454 58.3227
" />
<path d="M73.4454 58.3227
L73.5059 58.2622
" />
<path d="M73.5059 58.2622
L73.6269 58.2018
" />
<path d="M73.6269 58.2018
L73.8688 58.2018
" />
<path d="M73.8688 58.2018
L73.9897 58.2622
" />
<path d="M74.2921 59.1694
L75.2597 59.1694
" />
<path d="M75.5016 58.9880
L75.6225 59.0484
" />
<path d="M75.6225 59.0484
L75.8644 59.0484
" />
<path d="M75.8644 59.0484
L75.9854 58.9880
" />
<path d="M75.9854 58.9880
L76.0458 58.8670
" />
<path d="M76.0458 58.8670
L76.0458 58.8065
" />
<path d="M76.0458 58.8065
L75.9854 58.6856
" />
<path d="M75.9854 58.6856
L75.8644 58.6251
" />
<path d="M75.8644 58.6251
L75.6830 58.6251
" />
<path d="M75.6830 58.6251
L75.5620 58.5646
" />
<path d="M75.5620 58.5646
L75.5016 58.4437
" />
<path d="M75.5016 58.4437
L75.5016 58.3832
" />
<path d="M75.5016 58.3832
L75.5620 58.2622
" />
<path d="M75.5620 58.2622
L75.6830 58.2018
" />
<path d="M75.6830 58.2018
L75.8644 58.2018
" />
<path d="M75.8644 58.2018
L75.9854 58.2622
" />
<path d="M77.1344 58.9880
L77.0135 59.0484
" />
<path d="M77.0135 59.0484
L76.7716 59.0484
" />
<path d="M76.7716 59.0484
L76.6506 58.9880
" />
<path d="M76.6506 58.9880
L76.5901 58.9275
" />
<path d="M76.5901 58.9275
L76.5297 58.8065
" />
<path d="M76.5297 58.8065
L76.5297 58.4437
" />
<path d="M76.5297 58.4437
L76.5901 58.3227
" />
<path d="M76.5901 58.3227
L76.6506 58.2622
" />
<path d="M76.6506 58.2622
L76.7716 58.2018
" />
<path d="M76.7716 58.2018
L77.0135 58.2018
" />
<path d="M77.0135 58.2018
L77.1344 58.2622
" />
<path d="M77.6787 59.0484
L77.6787 57.7784
" />
<path d="M78.2230 59.0484
L78.2230 58.3832
" />
<path d="M78.2230 58.3832
L78.1625 58.2622
" />
<path d="M78.1625 58.2622
L78.0416 58.2018
" />
<path d="M78.0416 58.2018
L77.8602 58.2018
" />
<path d="M77.8602 58.2018
L77.7392 58.2622
" />
<path d="M77.7392 58.2622
L77.6787 58.3227
" />
</g></g>
<g style="fill:#6C71C4; fill-opacity:0.0; 
stroke:#6C71C4; stroke-width:0.1524; stroke-opacity:1; 
stroke-linecap:round; stroke-linejoin:round;">
</g>
<g style="fill:#586E75; fill-opacity:0.0; 
stroke:#586E75; stroke-width:0.1524; stroke-opacity:1; 
stroke-linecap:round; stroke-linejoin:round;">
</g>
<g style="fill:#586E75; fill-opacity:0.0; 
stroke:#586E75; stroke-width:0.4000; stroke-opacity:1; 
stroke-linecap:round; stroke-linejoin:round;">
<rect x="93.980000" y="53.340000" width="12.700000" height="3.810000" rx="0.000000" />
</g>
<g style="fill:#268BD2; fill-opacity:0.0; 
stroke:#268BD2; stroke-width:0.4000; stroke-opacity:1; 
stroke-linecap:round; stroke-linejoin:round;">
</g>
<g style="fill:#268BD2; fill-opacity:0.0; 
stroke:#268BD2; stroke-width:0.3175; stroke-opacity:1; 
stroke-linecap:round; stroke-linejoin:round;">
<text x="93.9800" y="52.6284"
textLength="15.2732" font-size="1.6933" lengthAdjust="spacingAndGlyphs"
text-anchor="start" opacity="0">microcontroller</text>
<g class="stroked-text"><desc>microcontroller</desc>
<path d="M94.4911 52.4563
L94.4911 51.6097
" />
<path d="M94.4911 51.7306
L94.5516 51.6701
" />
<path d="M94.5516 51.6701
L94.6726 51.6097
" />
<path d="M94.6726 51.6097
L94.8540 51.6097
" />
<path d="M94.8540 51.6097
L94.9749 51.6701
" />
<path d="M94.9749 51.6701
L95.0354 51.7911
" />
<path d="M95.0354 51.7911
L95.0354 52.4563
" />
<path d="M95.0354 51.7911
L95.0959 51.6701
" />
<path d="M95.0959 51.6701
L95.2168 51.6097
" />
<path d="M95.2168 51.6097
L95.3983 51.6097
" />
<path d="M95.3983 51.6097
L95.5192 51.6701
" />
<path d="M95.5192 51.6701
L95.5797 51.7911
" />
<path d="M95.5797 51.7911
L95.5797 52.4563
" />
<path d="M96.1844 52.4563
L96.1844 51.6097
" />
<path d="M96.1844 51.1863
L96.1240 51.2468
" />
<path d="M96.1240 51.2468
L96.1844 51.3073
" />
<path d="M96.1844 51.3073
L96.2449 51.2468
" />
<path d="M96.2449 51.2468
L96.1844 51.1863
" />
<path d="M96.1844 51.1863
L96.1844 51.3073
" />
<path d="M97.3335 52.3959
L97.2126 52.4563
" />
<path d="M97.2126 52.4563
L96.9707 52.4563
" />
<path d="M96.9707 52.4563
L96.8497 52.3959
" />
<path d="M96.8497 52.3959
L96.7892 52.3354
" />
<path d="M96.7892 52.3354
L96.7288 52.2144
" />
<path d="M96.7288 52.2144
L96.7288 51.8516
" />
<path d="M96.7288 51.8516
L96.7892 51.7306
" />
<path d="M96.7892 51.7306
L96.8497 51.6701
" />
<path d="M96.8497 51.6701
L96.9707 51.6097
" />
<path d="M96.9707 51.6097
L97.2126 51.6097
" />
<path d="M97.2126 51.6097
L97.3335 51.6701
" />
<path d="M97.8778 52.4563
L97.8778 51.6097
" />
<path d="M97.8778 51.8516
L97.9383 51.7306
" />
<path d="M97.9383 51.7306
L97.9988 51.6701
" />
<path d="M97.9988 51.6701
L98.1197 51.6097
" />
<path d="M98.1197 51.6097
L98.2407 51.6097
" />
<path d="M98.8455 52.4563
L98.7245 52.3959
" />
<path d="M98.7245 52.3959
L98.6640 52.3354
" />
<path d="M98.6640 52.3354
L98.6036 52.2144
" />
<path d="M98.6036 52.2144
L98.6036 51.8516
" />
<path d="M98.6036 51.8516
L98.6640 51.7306
" />
<path d="M98.6640 51.7306
L98.7245 51.6701
" />
<path d="M98.7245 51.6701
L98.8455 51.6097
" />
<path d="M98.8455 51.6097
L99.0269 51.6097
" />
<path d="M99.0269 51.6097
L99.1478 51.6701
" />
<path d="M99.1478 51.6701
L99.2083 51.7306
" />
<path d="M99.2083 51.7306
L99.2688 51.8516
" />
<path d="M99.2688 51.8516
L99.2688 52.2144
" />
<path d="M99.2688 52.2144
L99.2083 52.3354
" />
<path d="M99.2083 52.3354
L99.1478 52.3959
" />
<path d="M99.1478 52.3959
L99.0269 52.4563
" />
<path d="M99.0269 52.4563
L98.8455 52.4563
" />
<path d="M100.3573 52.3959
L100.2364 52.4563
" />
<path d="M100.2364 52.4563
L99.9945 52.4563
" />
<path d="M99.9945 52.4563
L99.8735 52.3959
" />
<path d="M99.8735 52.3959
L99.8130 52.3354
" />
<path d="M99.8130 52.3354
L99.7526 52.2144
" />
<path d="M99.7526 52.2144
L99.7526 51.8516
" />
<path d="M99.7526 51.8516
L99.8130 51.7306
" />
<path d="M99.8130 51.7306
L99.8735 51.6701
" />
<path d="M99.8735 51.6701
L99.9945 51.6097
" />
<path d="M99.9945 51.6097
L100.2364 51.6097
" />
<path d="M100.2364 51.6097
L100.3573 51.6701
" />
<path d="M101.0831 52.4563
L100.9621 52.3959
" />
<path d="M100.9621 52.3959
L100.9016 52.3354
" />
<path d="M100.9016 52.3354
L100.8412 52.2144
" />
<path d="M100.8412 52.2144
L100.8412 51.8516
" />
<path d="M100.8412 51.8516
L100.9016 51.7306
" />
<path d="M100.9016 51.7306
L100.9621 51.6701
" />
<path d="M100.9621 51.6701
L101.0831 51.6097
" />
<path d="M101.0831 51.6097
L101.2645 51.6097
" />
<path d="M101.2645 51.6097
L101.3854 51.6701
" />
<path d="M101.3854 51.6701
L101.4459 51.7306
" />
<path d="M101.4459 51.7306
L101.5064 51.8516
" />
<path d="M101.5064 51.8516
L101.5064 52.2144
" />
<path d="M101.5064 52.2144
L101.4459 52.3354
" />
<path d="M101.4459 52.3354
L101.3854 52.3959
" />
<path d="M101.3854 52.3959
L101.2645 52.4563
" />
<path d="M101.2645 52.4563
L101.0831 52.4563
" />
<path d="M102.0506 51.6097
L102.0506 52.4563
" />
<path d="M102.0506 51.7306
L102.1111 51.6701
" />
<path d="M102.1111 51.6701
L102.2321 51.6097
" />
<path d="M102.2321 51.6097
L102.4135 51.6097
" />
<path d="M102.4135 51.6097
L102.5344 51.6701
" />
<path d="M102.5344 51.6701
L102.5949 51.7911
" />
<path d="M102.5949 51.7911
L102.5949 52.4563
" />
<path d="M103.0182 51.6097
L103.5020 51.6097
" />
<path d="M103.1996 51.1863
L103.1996 52.2749
" />
<path d="M103.1996 52.2749
L103.2601 52.3959
" />
<path d="M103.2601 52.3959
L103.3811 52.4563
" />
<path d="M103.3811 52.4563
L103.5020 52.4563
" />
<path d="M103.9253 52.4563
L103.9253 51.6097
" />
<path d="M103.9253 51.8516
L103.9858 51.7306
" />
<path d="M103.9858 51.7306
L104.0463 51.6701
" />
<path d="M104.0463 51.6701
L104.1672 51.6097
" />
<path d="M104.1672 51.6097
L104.2882 51.6097
" />
<path d="M104.8930 52.4563
L104.7720 52.3959
" />
<path d="M104.7720 52.3959
L104.7115 52.3354
" />
<path d="M104.7115 52.3354
L104.6511 52.2144
" />
<path d="M104.6511 52.2144
L104.6511 51.8516
" />
<path d="M104.6511 51.8516
L104.7115 51.7306
" />
<path d="M104.7115 51.7306
L104.7720 51.6701
" />
<path d="M104.7720 51.6701
L104.8930 51.6097
" />
<path d="M104.8930 51.6097
L105.0744 51.6097
" />
<path d="M105.0744 51.6097
L105.1953 51.6701
" />
<path d="M105.1953 51.6701
L105.2558 51.7306
" />
<path d="M105.2558 51.7306
L105.3163 51.8516
" />
<path d="M105.3163 51.8516
L105.3163 52.2144
" />
<path d="M105.3163 52.2144
L105.2558 52.3354
" />
<path d="M105.2558 52.3354
L105.1953 52.3959
" />
<path d="M105.1953 52.3959
L105.0744 52.4563
" />
<path d="M105.0744 52.4563
L104.8930 52.4563
" />
<path d="M106.0420 52.4563
L105.9210 52.3959
" />
<path d="M105.9210 52.3959
L105.8605 52.2749
" />
<path d="M105.8605 52.2749
L105.8605 51.1863
" />
<path d="M106.7072 52.4563
L106.5862 52.3959
" />
<path d="M106.5862 52.3959
L106.5257 52.2749
" />
<path d="M106.5257 52.2749
L106.5257 51.1863
" />
<path d="M107.6747 52.3959
L107.5538 52.4563
" />
<path d="M107.5538 52.4563
L107.3119 52.4563
" />
<path d="M107.3119 52.4563
L107.1909 52.3959
" />
<path d="M107.1909 52.3959
L107.1305 52.2749
" />
<path d="M107.1305 52.2749
L107.1305 51.7911
" />
<path d="M107.1305 51.7911
L107.1909 51.6701
" />
<path d="M107.1909 51.6701
L107.3119 51.6097
" />
<path d="M107.3119 51.6097
L107.5538 51.6097
" />
<path d="M107.5538 51.6097
L107.6747 51.6701
" />
<path d="M107.6747 51.6701
L107.7352 51.7911
" />
<path d="M107.7352 51.7911
L107.7352 51.9120
" />
<path d="M107.7352 51.9120
L107.1305 52.0330
" />
<path d="M108.2795 52.4563
L108.2795 51.6097
" />
<path d="M108.2795 51.8516
L108.3400 51.7306
" />
<path d="M108.3400 51.7306
L108.4005 51.6701
" />
<path d="M108.4005 51.6701
L108.5214 51.6097
" />
<path d="M108.5214 51.6097
L108.6424 51.6097
" />
</g></g>
<g style="fill:#6C71C4; fill-opacity:0.0; 
stroke:#6C71C4; stroke-width:0.3175; stroke-opacity:1; 
stroke-linecap:round; stroke-linejoin:round;">
<text x="93.9800" y="59.0046"
textLength="39.8870" font-size="1.6933" lengthAdjust="spacingAndGlyphs"
text-anchor="start" opacity="0">File: tmc51x0-microcontroller.kicad_sch</text>
<g class="stroked-text"><desc>File: tmc51x0-microcontroller.kicad_sch</desc>
<path d="M94.9145 58.3832
L94.4911 58.3832
" />
<path d="M94.4911 59.0484
L94.4911 57.7784
" />
<path d="M94.4911 57.7784
L95.0959 57.7784
" />
<path d="M95.5797 59.0484
L95.5797 58.2018
" />
<path d="M95.5797 57.7784
L95.5193 57.8389
" />
<path d="M95.5193 57.8389
L95.5797 57.8994
" />
<path d="M95.5797 57.8994
L95.6402 57.8389
" />
<path d="M95.6402 57.8389
L95.5797 57.7784
" />
<path d="M95.5797 57.7784
L95.5797 57.8994
" />
<path d="M96.3660 59.0484
L96.2450 58.9880
" />
<path d="M96.2450 58.9880
L96.1845 58.8670
" />
<path d="M96.1845 58.8670
L96.1845 57.7784
" />
<path d="M97.3335 58.9880
L97.2126 59.0484
" />
<path d="M97.2126 59.0484
L96.9707 59.0484
" />
<path d="M96.9707 59.0484
L96.8497 58.9880
" />
<path d="M96.8497 58.9880
L96.7893 58.8670
" />
<path d="M96.7893 58.8670
L96.7893 58.3832
" />
<path d="M96.7893 58.3832
L96.8497 58.2622
" />
<path d="M96.8497 58.2622
L96.9707 58.2018
" />
<path d="M96.9707 58.2018
L97.2126 58.2018
" />
<path d="M97.2126 58.2018
L97.3335 58.2622
" />
<path d="M97.3335 58.2622
L97.3940 58.3832
" />
<path d="M97.3940 58.3832
L97.3940 58.5041
" />
<path d="M97.3940 58.5041
L96.7893 58.6251
" />
<path d="M97.9383 58.9275
L97.9988 58.9880
" />
<path d="M97.9988 58.9880
L97.9383 59.0484
" />
<path d="M97.9383 59.0484
L97.8779 58.9880
" />
<path d="M97.8779 58.9880
L97.9383 58.9275
" />
<path d="M97.9383 58.9275
L97.9383 59.0484
" />
<path d="M97.9383 58.2622
L97.9988 58.3227
" />
<path d="M97.9988 58.3227
L97.9383 58.3832
" />
<path d="M97.9383 58.3832
L97.8779 58.3227
" />
<path d="M97.8779 58.3227
L97.9383 58.2622
" />
<path d="M97.9383 58.2622
L97.9383 58.3832
" />
<path d="M99.3293 58.2018
L99.8131 58.2018
" />
<path d="M99.5107 57.7784
L99.5107 58.8670
" />
<path d="M99.5107 58.8670
L99.5712 58.9880
" />
<path d="M99.5712 58.9880
L99.6922 59.0484
" />
<path d="M99.6922 59.0484
L99.8131 59.0484
" />
<path d="M100.2364 59.0484
L100.2364 58.2018
" />
<path d="M100.2364 58.3227
L100.2969 58.2622
" />
<path d="M100.2969 58.2622
L100.4179 58.2018
" />
<path d="M100.4179 58.2018
L100.5993 58.2018
" />
<path d="M100.5993 58.2018
L100.7202 58.2622
" />
<path d="M100.7202 58.2622
L100.7807 58.3832
" />
<path d="M100.7807 58.3832
L100.7807 59.0484
" />
<path d="M100.7807 58.3832
L100.8412 58.2622
" />
<path d="M100.8412 58.2622
L100.9621 58.2018
" />
<path d="M100.9621 58.2018
L101.1436 58.2018
" />
<path d="M101.1436 58.2018
L101.2645 58.2622
" />
<path d="M101.2645 58.2622
L101.3250 58.3832
" />
<path d="M101.3250 58.3832
L101.3250 59.0484
" />
<path d="M102.4740 58.9880
L102.3531 59.0484
" />
<path d="M102.3531 59.0484
L102.1112 59.0484
" />
<path d="M102.1112 59.0484
L101.9902 58.9880
" />
<path d="M101.9902 58.9880
L101.9297 58.9275
" />
<path d="M101.9297 58.9275
L101.8693 58.8065
" />
<path d="M101.8693 58.8065
L101.8693 58.4437
" />
<path d="M101.8693 58.4437
L101.9297 58.3227
" />
<path d="M101.9297 58.3227
L101.9902 58.2622
" />
<path d="M101.9902 58.2622
L102.1112 58.2018
" />
<path d="M102.1112 58.2018
L102.3531 58.2018
" />
<path d="M102.3531 58.2018
L102.4740 58.2622
" />
<path d="M103.6231 57.7784
L103.0183 57.7784
" />
<path d="M103.0183 57.7784
L102.9579 58.3832
" />
<path d="M102.9579 58.3832
L103.0183 58.3227
" />
<path d="M103.0183 58.3227
L103.1393 58.2622
" />
<path d="M103.1393 58.2622
L103.4417 58.2622
" />
<path d="M103.4417 58.2622
L103.5626 58.3227
" />
<path d="M103.5626 58.3227
L103.6231 58.3832
" />
<path d="M103.6231 58.3832
L103.6836 58.5041
" />
<path d="M103.6836 58.5041
L103.6836 58.8065
" />
<path d="M103.6836 58.8065
L103.6231 58.9275
" />
<path d="M103.6231 58.9275
L103.5626 58.9880
" />
<path d="M103.5626 58.9880
L103.4417 59.0484
" />
<path d="M103.4417 59.0484
L103.1393 59.0484
" />
<path d="M103.1393 59.0484
L103.0183 58.9880
" />
<path d="M103.0183 58.9880
L102.9579 58.9275
" />
<path d="M104.8931 59.0484
L104.1674 59.0484
" />
<path d="M104.5302 59.0484
L104.5302 57.7784
" />
<path d="M104.5302 57.7784
L104.4093 57.9599
" />
<path d="M104.4093 57.9599
L104.2883 58.0808
" />
<path d="M104.2883 58.0808
L104.1674 58.1413
" />
<path d="M105.3164 59.0484
L105.9816 58.2018
" />
<path d="M105.3164 58.2018
L105.9816 59.0484
" />
<path d="M106.7073 57.7784
L106.8283 57.7784
" />
<path d="M106.8283 57.7784
L106.9492 57.8389
" />
<path d="M106.9492 57.8389
L107.0097 57.8994
" />
<path d="M107.0097 57.8994
L107.0702 58.0203
" />
<path d="M107.0702 58.0203
L107.1307 58.2622
" />
<path d="M107.1307 58.2622
L107.1307 58.5646
" />
<path d="M107.1307 58.5646
L107.0702 58.8065
" />
<path d="M107.0702 58.8065
L107.0097 58.9275
" />
<path d="M107.0097 58.9275
L106.9492 58.9880
" />
<path d="M106.9492 58.9880
L106.8283 59.0484
" />
<path d="M106.8283 59.0484
L106.7073 59.0484
" />
<path d="M106.7073 59.0484
L106.5864 58.9880
" />
<path d="M106.5864 58.9880
L106.5259 58.9275
" />
<path d="M106.5259 58.9275
L106.4654 58.8065
" />
<path d="M106.4654 58.8065
L106.4050 58.5646
" />
<path d="M106.4050 58.5646
L106.4050 58.2622
" />
<path d="M106.4050 58.2622
L106.4654 58.0203
" />
<path d="M106.4654 58.0203
L106.5259 57.8994
" />
<path d="M106.5259 57.8994
L106.5864 57.8389
" />
<path d="M106.5864 57.8389
L106.7073 57.7784
" />
<path d="M107.6749 58.5646
L108.6426 58.5646
" />
<path d="M109.2473 59.0484
L109.2473 58.2018
" />
<path d="M109.2473 58.3227
L109.3078 58.2622
" />
<path d="M109.3078 58.2622
L109.4288 58.2018
" />
<path d="M109.4288 58.2018
L109.6102 58.2018
" />
<path d="M109.6102 58.2018
L109.7311 58.2622
" />
<path d="M109.7311 58.2622
L109.7916 58.3832
" />
<path d="M109.7916 58.3832
L109.7916 59.0484
" />
<path d="M109.7916 58.3832
L109.8521 58.2622
" />
<path d="M109.8521 58.2622
L109.9730 58.2018
" />
<path d="M109.9730 58.2018
L110.1545 58.2018
" />
<path d="M110.1545 58.2018
L110.2754 58.2622
" />
<path d="M110.2754 58.2622
L110.3359 58.3832
" />
<path d="M110.3359 58.3832
L110.3359 59.0484
" />
<path d="M110.9406 59.0484
L110.9406 58.2018
" />
<path d="M110.9406 57.7784
L110.8802 57.8389
" />
<path d="M110.8802 57.8389
L110.9406 57.8994
" />
<path d="M110.9406 57.8994
L111.0011 57.8389
" />
<path d="M111.0011 57.8389
L110.9406 57.7784
" />
<path d="M110.9406 57.7784
L110.9406 57.8994
" />
<path d="M112.0897 58.9880
L111.9688 59.0484
" />
<path d="M111.9688 59.0484
L111.7269 59.0484
" />
<path d="M111.7269 59.0484
L111.6059 58.9880
" />
<path d="M111.6059 58.9880
L111.5454 58.9275
" />
<path d="M111.5454 58.9275
L111.4850 58.8065
" />
<path d="M111.4850 58.8065
L111.4850 58.4437
" />
<path d="M111.4850 58.4437
L111.5454 58.3227
" />
<path d="M111.5454 58.3227
L111.6059 58.2622
" />
<path d="M111.6059 58.2622
L111.7269 58.2018
" />
<path d="M111.7269 58.2018
L111.9688 58.2018
" />
<path d="M111.9688 58.2018
L112.0897 58.2622
" />
<path d="M112.6340 59.0484
L112.6340 58.2018
" />
<path d="M112.6340 58.4437
L112.6945 58.3227
" />
<path d="M112.6945 58.3227
L112.7550 58.2622
" />
<path d="M112.7550 58.2622
L112.8759 58.2018
" />
<path d="M112.8759 58.2018
L112.9969 58.2018
" />
<path d="M113.6017 59.0484
L113.4807 58.9880
" />
<path d="M113.4807 58.9880
L113.4202 58.9275
" />
<path d="M113.4202 58.9275
L113.3598 58.8065
" />
<path d="M113.3598 58.8065
L113.3598 58.4437
" />
<path d="M113.3598 58.4437
L113.4202 58.3227
" />
<path d="M113.4202 58.3227
L113.4807 58.2622
" />
<path d="M113.4807 58.2622
L113.6017 58.2018
" />
<path d="M113.6017 58.2018
L113.7831 58.2018
" />
<path d="M113.7831 58.2018
L113.9040 58.2622
" />
<path d="M113.9040 58.2622
L113.9645 58.3227
" />
<path d="M113.9645 58.3227
L114.0250 58.4437
" />
<path d="M114.0250 58.4437
L114.0250 58.8065
" />
<path d="M114.0250 58.8065
L113.9645 58.9275
" />
<path d="M113.9645 58.9275
L113.9040 58.9880
" />
<path d="M113.9040 58.9880
L113.7831 59.0484
" />
<path d="M113.7831 59.0484
L113.6017 59.0484
" />
<path d="M115.1135 58.9880
L114.9926 59.0484
" />
<path d="M114.9926 59.0484
L114.7507 59.0484
" />
<path d="M114.7507 59.0484
L114.6297 58.9880
" />
<path d="M114.6297 58.9880
L114.5692 58.9275
" />
<path d="M114.5692 58.9275
L114.5088 58.8065
" />
<path d="M114.5088 58.8065
L114.5088 58.4437
" />
<path d="M114.5088 58.4437
L114.5692 58.3227
" />
<path d="M114.5692 58.3227
L114.6297 58.2622
" />
<path d="M114.6297 58.2622
L114.7507 58.2018
" />
<path d="M114.7507 58.2018
L114.9926 58.2018
" />
<path d="M114.9926 58.2018
L115.1135 58.2622
" />
<path d="M115.8393 59.0484
L115.7183 58.9880
" />
<path d="M115.7183 58.9880
L115.6578 58.9275
" />
<path d="M115.6578 58.9275
L115.5974 58.8065
" />
<path d="M115.5974 58.8065
L115.5974 58.4437
" />
<path d="M115.5974 58.4437
L115.6578 58.3227
" />
<path d="M115.6578 58.3227
L115.7183 58.2622
" />
<path d="M115.7183 58.2622
L115.8393 58.2018
" />
<path d="M115.8393 58.2018
L116.0207 58.2018
" />
<path d="M116.0207 58.2018
L116.1416 58.2622
" />
<path d="M116.1416 58.2622
L116.2021 58.3227
" />
<path d="M116.2021 58.3227
L116.2626 58.4437
" />
<path d="M116.2626 58.4437
L116.2626 58.8065
" />
<path d="M116.2626 58.8065
L116.2021 58.9275
" />
<path d="M116.2021 58.9275
L116.1416 58.9880
" />
<path d="M116.1416 58.9880
L116.0207 59.0484
" />
<path d="M116.0207 59.0484
L115.8393 59.0484
" />
<path d="M116.8068 58.2018
L116.8068 59.0484
" />
<path d="M116.8068 58.3227
L116.8673 58.2622
" />
<path d="M116.8673 58.2622
L116.9883 58.2018
" />
<path d="M116.9883 58.2018
L117.1697 58.2018
" />
<path d="M117.1697 58.2018
L117.2906 58.2622
" />
<path d="M117.2906 58.2622
L117.3511 58.3832
" />
<path d="M117.3511 58.3832
L117.3511 59.0484
" />
<path d="M117.7744 58.2018
L118.2582 58.2018
" />
<path d="M117.9558 57.7784
L117.9558 58.8670
" />
<path d="M117.9558 58.8670
L118.0163 58.9880
" />
<path d="M118.0163 58.9880
L118.1373 59.0484
" />
<path d="M118.1373 59.0484
L118.2582 59.0484
" />
<path d="M118.6815 59.0484
L118.6815 58.2018
" />
<path d="M118.6815 58.4437
L118.7420 58.3227
" />
<path d="M118.7420 58.3227
L118.8025 58.2622
" />
<path d="M118.8025 58.2622
L118.9234 58.2018
" />
<path d="M118.9234 58.2018
L119.0444 58.2018
" />
<path d="M119.6492 59.0484
L119.5282 58.9880
" />
<path d="M119.5282 58.9880
L119.4677 58.9275
" />
<path d="M119.4677 58.9275
L119.4073 58.8065
" />
<path d="M119.4073 58.8065
L119.4073 58.4437
" />
<path d="M119.4073 58.4437
L119.4677 58.3227
" />
<path d="M119.4677 58.3227
L119.5282 58.2622
" />
<path d="M119.5282 58.2622
L119.6492 58.2018
" />
<path d="M119.6492 58.2018
L119.8306 58.2018
" />
<path d="M119.8306 58.2018
L119.9515 58.2622
" />
<path d="M119.9515 58.2622
L120.0120 58.3227
" />
<path d="M120.0120 58.3227
L120.0725 58.4437
" />
<path d="M120.0725 58.4437
L120.0725 58.8065
" />
<path d="M120.0725 58.8065
L120.0120 58.9275
" />
<path d="M120.0120 58.9275
L119.9515 58.9880
" />
<path d="M119.9515 58.9880
L119.8306 59.0484
" />
<path d="M119.8306 59.0484
L119.6492 59.0484
" />
<path d="M120.7982 59.0484
L120.6772 58.9880
" />
<path d="M120.6772 58.9880
L120.6167 58.8670
" />
<path d="M120.6167 58.8670
L120.6167 57.7784
" />
<path d="M121.4634 59.0484
L121.3424 58.9880
" />
<path d="M121.3424 58.9880
L121.2819 58.8670
" />
<path d="M121.2819 58.8670
L121.2819 57.7784
" />
<path d="M122.4309 58.9880
L122.3100 59.0484
" />
<path d="M122.3100 59.0484
L122.0681 59.0484
" />
<path d="M122.0681 59.0484
L121.9471 58.9880
" />
<path d="M121.9471 58.9880
L121.8867 58.8670
" />
<path d="M121.8867 58.8670
L121.8867 58.3832
" />
<path d="M121.8867 58.3832
L121.9471 58.2622
" />
<path d="M121.9471 58.2622
L122.0681 58.2018
" />
<path d="M122.0681 58.2018
L122.3100 58.2018
" />
<path d="M122.3100 58.2018
L122.4309 58.2622
" />
<path d="M122.4309 58.2622
L122.4914 58.3832
" />
<path d="M122.4914 58.3832
L122.4914 58.5041
" />
<path d="M122.4914 58.5041
L121.8867 58.6251
" />
<path d="M123.0357 59.0484
L123.0357 58.2018
" />
<path d="M123.0357 58.4437
L123.0962 58.3227
" />
<path d="M123.0962 58.3227
L123.1567 58.2622
" />
<path d="M123.1567 58.2622
L123.2776 58.2018
" />
<path d="M123.2776 58.2018
L123.3986 58.2018
" />
<path d="M123.8219 58.9275
L123.8824 58.9880
" />
<path d="M123.8824 58.9880
L123.8219 59.0484
" />
<path d="M123.8219 59.0484
L123.7615 58.9880
" />
<path d="M123.7615 58.9880
L123.8219 58.9275
" />
<path d="M123.8219 58.9275
L123.8219 59.0484
" />
<path d="M124.4267 59.0484
L124.4267 57.7784
" />
<path d="M124.5477 58.5646
L124.9105 59.0484
" />
<path d="M124.9105 58.2018
L124.4267 58.6856
" />
<path d="M125.4548 59.0484
L125.4548 58.2018
" />
<path d="M125.4548 57.7784
L125.3944 57.8389
" />
<path d="M125.3944 57.8389
L125.4548 57.8994
" />
<path d="M125.4548 57.8994
L125.5153 57.8389
" />
<path d="M125.5153 57.8389
L125.4548 57.7784
" />
<path d="M125.4548 57.7784
L125.4548 57.8994
" />
<path d="M126.6039 58.9880
L126.4830 59.0484
" />
<path d="M126.4830 59.0484
L126.2411 59.0484
" />
<path d="M126.2411 59.0484
L126.1201 58.9880
" />
<path d="M126.1201 58.9880
L126.0596 58.9275
" />
<path d="M126.0596 58.9275
L125.9992 58.8065
" />
<path d="M125.9992 58.8065
L125.9992 58.4437
" />
<path d="M125.9992 58.4437
L126.0596 58.3227
" />
<path d="M126.0596 58.3227
L126.1201 58.2622
" />
<path d="M126.1201 58.2622
L126.2411 58.2018
" />
<path d="M126.2411 58.2018
L126.4830 58.2018
" />
<path d="M126.4830 58.2018
L126.6039 58.2622
" />
<path d="M127.6925 59.0484
L127.6925 58.3832
" />
<path d="M127.6925 58.3832
L127.6320 58.2622
" />
<path d="M127.6320 58.2622
L127.5111 58.2018
" />
<path d="M127.5111 58.2018
L127.2692 58.2018
" />
<path d="M127.2692 58.2018
L127.1482 58.2622
" />
<path d="M127.6925 58.9880
L127.5716 59.0484
" />
<path d="M127.5716 59.0484
L127.2692 59.0484
" />
<path d="M127.2692 59.0484
L127.1482 58.9880
" />
<path d="M127.1482 58.9880
L127.0878 58.8670
" />
<path d="M127.0878 58.8670
L127.0878 58.7460
" />
<path d="M127.0878 58.7460
L127.1482 58.6251
" />
<path d="M127.1482 58.6251
L127.2692 58.5646
" />
<path d="M127.2692 58.5646
L127.5716 58.5646
" />
<path d="M127.5716 58.5646
L127.6925 58.5041
" />
<path d="M128.8415 59.0484
L128.8415 57.7784
" />
<path d="M128.8415 58.9880
L128.7206 59.0484
" />
<path d="M128.7206 59.0484
L128.4787 59.0484
" />
<path d="M128.4787 59.0484
L128.3577 58.9880
" />
<path d="M128.3577 58.9880
L128.2972 58.9275
" />
<path d="M128.2972 58.9275
L128.2368 58.8065
" />
<path d="M128.2368 58.8065
L128.2368 58.4437
" />
<path d="M128.2368 58.4437
L128.2972 58.3227
" />
<path d="M128.2972 58.3227
L128.3577 58.2622
" />
<path d="M128.3577 58.2622
L128.4787 58.2018
" />
<path d="M128.4787 58.2018
L128.7206 58.2018
" />
<path d="M128.7206 58.2018
L128.8415 58.2622
" />
<path d="M129.1439 59.1694
L130.1115 59.1694
" />
<path d="M130.3534 58.9880
L130.4743 59.0484
" />
<path d="M130.4743 59.0484
L130.7162 59.0484
" />
<path d="M130.7162 59.0484
L130.8372 58.9880
" />
<path d="M130.8372 58.9880
L130.8976 58.8670
" />
<path d="M130.8976 58.8670
L130.8976 58.8065
" />
<path d="M130.8976 58.8065
L130.8372 58.6856
" />
<path d="M130.8372 58.6856
L130.7162 58.6251
" />
<path d="M130.7162 58.6251
L130.5348 58.6251
" />
<path d="M130.5348 58.6251
L130.4138 58.5646
" />
<path d="M130.4138 58.5646
L130.3534 58.4437
" />
<path d="M130.3534 58.4437
L130.3534 58.3832
" />
<path d="M130.3534 58.3832
L130.4138 58.2622
" />
<path d="M130.4138 58.2622
L130.5348 58.2018
" />
<path d="M130.5348 58.2018
L130.7162 58.2018
" />
<path d="M130.7162 58.2018
L130.8372 58.2622
" />
<path d="M131.9862 58.9880
L131.8653 59.0484
" />
<path d="M131.8653 59.0484
L131.6234 59.0484
" />
<path d="M131.6234 59.0484
L131.5024 58.9880
" />
<path d="M131.5024 58.9880
L131.4419 58.9275
" />
<path d="M131.4419 58.9275
L131.3815 58.8065
" />
<path d="M131.3815 58.8065
L131.3815 58.4437
" />
<path d="M131.3815 58.4437
L131.4419 58.3227
" />
<path d="M131.4419 58.3227
L131.5024 58.2622
" />
<path d="M131.5024 58.2622
L131.6234 58.2018
" />
<path d="M131.6234 58.2018
L131.8653 58.2018
" />
<path d="M131.8653 58.2018
L131.9862 58.2622
" />
<path d="M132.5305 59.0484
L132.5305 57.7784
" />
<path d="M133.0748 59.0484
L133.0748 58.3832
" />
<path d="M133.0748 58.3832
L133.0143 58.2622
" />
<path d="M133.0143 58.2622
L132.8934 58.2018
" />
<path d="M132.8934 58.2018
L132.7120 58.2018
" />
<path d="M132.7120 58.2018
L132.5910 58.2622
" />
<path d="M132.5910 58.2622
L132.5305 58.3227
" />
</g></g>
<g style="fill:#6C71C4; fill-opacity:0.0; 
stroke:#6C71C4; stroke-width:0.1524; stroke-opacity:1; 
stroke-linecap:round; stroke-linejoin:round;">
</g>
<g style="fill:#586E75; fill-opacity:0.0; 
stroke:#586E75; stroke-width:0.1524; stroke-opacity:1; 
stroke-linecap:round; stroke-linejoin:round;">
</g>
<g style="fill:#586E75; fill-opacity:0.0; 
stroke:#586E75; stroke-width:0.4000; stroke-opacity:1; 
stroke-linecap:round; stroke-linejoin:round;">
<rect x="93.980000" y="67.310000" width="12.700000" height="3.810000" rx="0.000000" />
</g>
<g style="fill:#268BD2; fill-opacity:0.0; 
stroke:#268BD2; stroke-width:0.4000; stroke-opacity:1; 
stroke-linecap:round; stroke-linejoin:round;">
</g>
<g style="fill:#268BD2; fill-opacity:0.0; 
stroke:#268BD2; stroke-width:0.3175; stroke-opacity:1; 
stroke-linecap:round; stroke-linejoin:round;">
<text x="93.9800" y="66.5984"
textLength="14.2451" font-size="1.6933" lengthAdjust="spacingAndGlyphs"
text-anchor="start" opacity="0">tmc51x0-uart</text>
<g class="stroked-text"><desc>tmc51x0-uart</desc>
<path d="M94.3097 65.5797
L94.7935 65.5797
" />
<path d="M94.4911 65.1563
L94.4911 66.2449
" />
<path d="M94.4911 66.2449
L94.5516 66.3659
" />
<path d="M94.5516 66.3659
L94.6726 66.4263
" />
<path d="M94.6726 66.4263
L94.7935 66.4263
" />
<path d="M95.2168 66.4263
L95.2168 65.5797
" />
<path d="M95.2168 65.7006
L95.2773 65.6401
" />
<path d="M95.2773 65.6401
L95.3983 65.5797
" />
<path d="M95.3983 65.5797
L95.5797 65.5797
" />
<path d="M95.5797 65.5797
L95.7006 65.6401
" />
<path d="M95.7006 65.6401
L95.7611 65.7611
" />
<path d="M95.7611 65.7611
L95.7611 66.4263
" />
<path d="M95.7611 65.7611
L95.8216 65.6401
" />
<path d="M95.8216 65.6401
L95.9425 65.5797
" />
<path d="M95.9425 65.5797
L96.1240 65.5797
" />
<path d="M96.1240 65.5797
L96.2449 65.6401
" />
<path d="M96.2449 65.6401
L96.3054 65.7611
" />
<path d="M96.3054 65.7611
L96.3054 66.4263
" />
<path d="M97.4544 66.3659
L97.3335 66.4263
" />
<path d="M97.3335 66.4263
L97.0916 66.4263
" />
<path d="M97.0916 66.4263
L96.9706 66.3659
" />
<path d="M96.9706 66.3659
L96.9101 66.3054
" />
<path d="M96.9101 66.3054
L96.8497 66.1844
" />
<path d="M96.8497 66.1844
L96.8497 65.8216
" />
<path d="M96.8497 65.8216
L96.9101 65.7006
" />
<path d="M96.9101 65.7006
L96.9706 65.6401
" />
<path d="M96.9706 65.6401
L97.0916 65.5797
" />
<path d="M97.0916 65.5797
L97.3335 65.5797
" />
<path d="M97.3335 65.5797
L97.4544 65.6401
" />
<path d="M98.6035 65.1563
L97.9987 65.1563
" />
<path d="M97.9987 65.1563
L97.9383 65.7611
" />
<path d="M97.9383 65.7611
L97.9987 65.7006
" />
<path d="M97.9987 65.7006
L98.1197 65.6401
" />
<path d="M98.1197 65.6401
L98.4221 65.6401
" />
<path d="M98.4221 65.6401
L98.5430 65.7006
" />
<path d="M98.5430 65.7006
L98.6035 65.7611
" />
<path d="M98.6035 65.7611
L98.6640 65.8820
" />
<path d="M98.6640 65.8820
L98.6640 66.1844
" />
<path d="M98.6640 66.1844
L98.6035 66.3054
" />
<path d="M98.6035 66.3054
L98.5430 66.3659
" />
<path d="M98.5430 66.3659
L98.4221 66.4263
" />
<path d="M98.4221 66.4263
L98.1197 66.4263
" />
<path d="M98.1197 66.4263
L97.9987 66.3659
" />
<path d="M97.9987 66.3659
L97.9383 66.3054
" />
<path d="M99.8735 66.4263
L99.1478 66.4263
" />
<path d="M99.5106 66.4263
L99.5106 65.1563
" />
<path d="M99.5106 65.1563
L99.3897 65.3378
" />
<path d="M99.3897 65.3378
L99.2687 65.4587
" />
<path d="M99.2687 65.4587
L99.1478 65.5192
" />
<path d="M100.2968 66.4263
L100.9620 65.5797
" />
<path d="M100.2968 65.5797
L100.9620 66.4263
" />
<path d="M101.6877 65.1563
L101.8087 65.1563
" />
<path d="M101.8087 65.1563
L101.9296 65.2168
" />
<path d="M101.9296 65.2168
L101.9901 65.2773
" />
<path d="M101.9901 65.2773
L102.0506 65.3982
" />
<path d="M102.0506 65.3982
L102.1111 65.6401
" />
<path d="M102.1111 65.6401
L102.1111 65.9425
" />
<path d="M102.1111 65.9425
L102.0506 66.1844
" />
<path d="M102.0506 66.1844
L101.9901 66.3054
" />
<path d="M101.9901 66.3054
L101.9296 66.3659
" />
<path d="M101.9296 66.3659
L101.8087 66.4263
" />
<path d="M101.8087 66.4263
L101.6877 66.4263
" />
<path d="M101.6877 66.4263
L101.5668 66.3659
" />
<path d="M101.5668 66.3659
L101.5063 66.3054
" />
<path d="M101.5063 66.3054
L101.4458 66.1844
" />
<path d="M101.4458 66.1844
L101.3854 65.9425
" />
<path d="M101.3854 65.9425
L101.3854 65.6401
" />
<path d="M101.3854 65.6401
L101.4458 65.3982
" />
<path d="M101.4458 65.3982
L101.5063 65.2773
" />
<path d="M101.5063 65.2773
L101.5668 65.2168
" />
<path d="M101.5668 65.2168
L101.6877 65.1563
" />
<path d="M102.6553 65.9425
L103.6230 65.9425
" />
<path d="M104.7720 65.5797
L104.7720 66.4263
" />
<path d="M104.2277 65.5797
L104.2277 66.2449
" />
<path d="M104.2277 66.2449
L104.2882 66.3659
" />
<path d="M104.2882 66.3659
L104.4092 66.4263
" />
<path d="M104.4092 66.4263
L104.5906 66.4263
" />
<path d="M104.5906 66.4263
L104.7115 66.3659
" />
<path d="M104.7115 66.3659
L104.7720 66.3054
" />
<path d="M105.9210 66.4263
L105.9210 65.7611
" />
<path d="M105.9210 65.7611
L105.8605 65.6401
" />
<path d="M105.8605 65.6401
L105.7396 65.5797
" />
<path d="M105.7396 65.5797
L105.4977 65.5797
" />
<path d="M105.4977 65.5797
L105.3767 65.6401
" />
<path d="M105.9210 66.3659
L105.8001 66.4263
" />
<path d="M105.8001 66.4263
L105.4977 66.4263
" />
<path d="M105.4977 66.4263
L105.3767 66.3659
" />
<path d="M105.3767 66.3659
L105.3163 66.2449
" />
<path d="M105.3163 66.2449
L105.3163 66.1239
" />
<path d="M105.3163 66.1239
L105.3767 66.0030
" />
<path d="M105.3767 66.0030
L105.4977 65.9425
" />
<path d="M105.4977 65.9425
L105.8001 65.9425
" />
<path d="M105.8001 65.9425
L105.9210 65.8820
" />
<path d="M106.5257 66.4263
L106.5257 65.5797
" />
<path d="M106.5257 65.8216
L106.5862 65.7006
" />
<path d="M106.5862 65.7006
L106.6467 65.6401
" />
<path d="M106.6467 65.6401
L106.7676 65.5797
" />
<path d="M106.7676 65.5797
L106.8886 65.5797
" />
<path d="M107.1305 65.5797
L107.6143 65.5797
" />
<path d="M107.3119 65.1563
L107.3119 66.2449
" />
<path d="M107.3119 66.2449
L107.3724 66.3659
" />
<path d="M107.3724 66.3659
L107.4934 66.4263
" />
<path d="M107.4934 66.4263
L107.6143 66.4263
" />
</g></g>
<g style="fill:#6C71C4; fill-opacity:0.0; 
stroke:#6C71C4; stroke-width:0.3175; stroke-opacity:1; 
stroke-linecap:round; stroke-linejoin:round;">
<text x="93.9800" y="72.9746"
textLength="29.1223" font-size="1.6933" lengthAdjust="spacingAndGlyphs"
text-anchor="start" opacity="0">File: tmc51x0-uart.kicad_sch</text>
<g class="stroked-text"><desc>File: tmc51x0-uart.kicad_sch</desc>
<path d="M94.9145 72.3532
L94.4911 72.3532
" />
<path d="M94.4911 73.0184
L94.4911 71.7484
" />
<path d="M94.4911 71.7484
L95.0959 71.7484
" />
<path d="M95.5797 73.0184
L95.5797 72.1718
" />
<path d="M95.5797 71.7484
L95.5193 71.8089
" />
<path d="M95.5193 71.8089
L95.5797 71.8694
" />
<path d="M95.5797 71.8694
L95.6402 71.8089
" />
<path d="M95.6402 71.8089
L95.5797 71.7484
" />
<path d="M95.5797 71.7484
L95.5797 71.8694
" />
<path d="M96.3660 73.0184
L96.2450 72.9580
" />
<path d="M96.2450 72.9580
L96.1845 72.8370
" />
<path d="M96.1845 72.8370
L96.1845 71.7484
" />
<path d="M97.3335 72.9580
L97.2126 73.0184
" />
<path d="M97.2126 73.0184
L96.9707 73.0184
" />
<path d="M96.9707 73.0184
L96.8497 72.9580
" />
<path d="M96.8497 72.9580
L96.7893 72.8370
" />
<path d="M96.7893 72.8370
L96.7893 72.3532
" />
<path d="M96.7893 72.3532
L96.8497 72.2322
" />
<path d="M96.8497 72.2322
L96.9707 72.1718
" />
<path d="M96.9707 72.1718
L97.2126 72.1718
" />
<path d="M97.2126 72.1718
L97.3335 72.2322
" />
<path d="M97.3335 72.2322
L97.3940 72.3532
" />
<path d="M97.3940 72.3532
L97.3940 72.4741
" />
<path d="M97.3940 72.4741
L96.7893 72.5951
" />
<path d="M97.9383 72.8975
L97.9988 72.9580
" />
<path d="M97.9988 72.9580
L97.9383 73.0184
" />
<path d="M97.9383 73.0184
L97.8779 72.9580
" />
<path d="M97.8779 72.9580
L97.9383 72.8975
" />
<path d="M97.9383 72.8975
L97.9383 73.0184
" />
<path d="M97.9383 72.2322
L97.9988 72.2927
" />
<path d="M97.9988 72.2927
L97.9383 72.3532
" />
<path d="M97.9383 72.3532
L97.8779 72.2927
" />
<path d="M97.8779 72.2927
L97.9383 72.2322
" />
<path d="M97.9383 72.2322
L97.9383 72.3532
" />
<path d="M99.3293 72.1718
L99.8131 72.1718
" />
<path d="M99.5107 71.7484
L99.5107 72.8370
" />
<path d="M99.5107 72.8370
L99.5712 72.9580
" />
<path d="M99.5712 72.9580
L99.6922 73.0184
" />
<path d="M99.6922 73.0184
L99.8131 73.0184
" />
<path d="M100.2364 73.0184
L100.2364 72.1718
" />
<path d="M100.2364 72.2927
L100.2969 72.2322
" />
<path d="M100.2969 72.2322
L100.4179 72.1718
" />
<path d="M100.4179 72.1718
L100.5993 72.1718
" />
<path d="M100.5993 72.1718
L100.7202 72.2322
" />
<path d="M100.7202 72.2322
L100.7807 72.3532
" />
<path d="M100.7807 72.3532
L100.7807 73.0184
" />
<path d="M100.7807 72.3532
L100.8412 72.2322
" />
<path d="M100.8412 72.2322
L100.9621 72.1718
" />
<path d="M100.9621 72.1718
L101.1436 72.1718
" />
<path d="M101.1436 72.1718
L101.2645 72.2322
" />
<path d="M101.2645 72.2322
L101.3250 72.3532
" />
<path d="M101.3250 72.3532
L101.3250 73.0184
" />
<path d="M102.4740 72.9580
L102.3531 73.0184
" />
<path d="M102.3531 73.0184
L102.1112 73.0184
" />
<path d="M102.1112 73.0184
L101.9902 72.9580
" />
<path d="M101.9902 72.9580
L101.9297 72.8975
" />
<path d="M101.9297 72.8975
L101.8693 72.7765
" />
<path d="M101.8693 72.7765
L101.8693 72.4137
" />
<path d="M101.8693 72.4137
L101.9297 72.2927
" />
<path d="M101.9297 72.2927
L101.9902 72.2322
" />
<path d="M101.9902 72.2322
L102.1112 72.1718
" />
<path d="M102.1112 72.1718
L102.3531 72.1718
" />
<path d="M102.3531 72.1718
L102.4740 72.2322
" />
<path d="M103.6231 71.7484
L103.0183 71.7484
" />
<path d="M103.0183 71.7484
L102.9579 72.3532
" />
<path d="M102.9579 72.3532
L103.0183 72.2927
" />
<path d="M103.0183 72.2927
L103.1393 72.2322
" />
<path d="M103.1393 72.2322
L103.4417 72.2322
" />
<path d="M103.4417 72.2322
L103.5626 72.2927
" />
<path d="M103.5626 72.2927
L103.6231 72.3532
" />
<path d="M103.6231 72.3532
L103.6836 72.4741
" />
<path d="M103.6836 72.4741
L103.6836 72.7765
" />
<path d="M103.6836 72.7765
L103.6231 72.8975
" />
<path d="M103.6231 72.8975
L103.5626 72.9580
" />
<path d="M103.5626 72.9580
L103.4417 73.0184
" />
<path d="M103.4417 73.0184
L103.1393 73.0184
" />
<path d="M103.1393 73.0184
L103.0183 72.9580
" />
<path d="M103.0183 72.9580
L102.9579 72.8975
" />
<path d="M104.8931 73.0184
L104.1674 73.0184
" />
<path d="M104.5302 73.0184
L104.5302 71.7484
" />
<path d="M104.5302 71.7484
L104.4093 71.9299
" />
<path d="M104.4093 71.9299
L104.2883 72.0508
" />
<path d="M104.2883 72.0508
L104.1674 72.1113
" />
<path d="M105.3164 73.0184
L105.9816 72.1718
" />
<path d="M105.3164 72.1718
L105.9816 73.0184
" />
<path d="M106.7073 71.7484
L106.8283 71.7484
" />
<path d="M106.8283 71.7484
L106.9492 71.8089
" />
<path d="M106.9492 71.8089
L107.0097 71.8694
" />
<path d="M107.0097 71.8694
L107.0702 71.9903
" />
<path d="M107.0702 71.9903
L107.1307 72.2322
" />
<path d="M107.1307 72.2322
L107.1307 72.5346
" />
<path d="M107.1307 72.5346
L107.0702 72.7765
" />
<path d="M107.0702 72.7765
L107.0097 72.8975
" />
<path d="M107.0097 72.8975
L106.9492 72.9580
" />
<path d="M106.9492 72.9580
L106.8283 73.0184
" />
<path d="M106.8283 73.0184
L106.7073 73.0184
" />
<path d="M106.7073 73.0184
L106.5864 72.9580
" />
<path d="M106.5864 72.9580
L106.5259 72.8975
" />
<path d="M106.5259 72.8975
L106.4654 72.7765
" />
<path d="M106.4654 72.7765
L106.4050 72.5346
" />
<path d="M106.4050 72.5346
L106.4050 72.2322
" />
<path d="M106.4050 72.2322
L106.4654 71.9903
" />
<path d="M106.4654 71.9903
L106.5259 71.8694
" />
<path d="M106.5259 71.8694
L106.5864 71.8089
" />
<path d="M106.5864 71.8089
L106.7073 71.7484
" />
<path d="M107.6749 72.5346
L108.6426 72.5346
" />
<path d="M109.7916 72.1718
L109.7916 73.0184
" />
<path d="M109.2473 72.1718
L109.2473 72.8370
" />
<path d="M109.2473 72.8370
L109.3078 72.9580
" />
<path d="M109.3078 72.9580
L109.4288 73.0184
" />
<path d="M109.4288 73.0184
L109.6102 73.0184
" />
<path d="M109.6102 73.0184
L109.7311 72.9580
" />
<path d="M109.7311 72.9580
L109.7916 72.8975
" />
<path d="M110.9406 73.0184
L110.9406 72.3532
" />
<path d="M110.9406 72.3532
L110.8801 72.2322
" />
<path d="M110.8801 72.2322
L110.7592 72.1718
" />
<path d="M110.7592 72.1718
L110.5173 72.1718
" />
<path d="M110.5173 72.1718
L110.3963 72.2322
" />
<path d="M110.9406 72.9580
L110.8197 73.0184
" />
<path d="M110.8197 73.0184
L110.5173 73.0184
" />
<path d="M110.5173 73.0184
L110.3963 72.9580
" />
<path d="M110.3963 72.9580
L110.3359 72.8370
" />
<path d="M110.3359 72.8370
L110.3359 72.7160
" />
<path d="M110.3359 72.7160
L110.3963 72.5951
" />
<path d="M110.3963 72.5951
L110.5173 72.5346
" />
<path d="M110.5173 72.5346
L110.8197 72.5346
" />
<path d="M110.8197 72.5346
L110.9406 72.4741
" />
<path d="M111.5453 73.0184
L111.5453 72.1718
" />
<path d="M111.5453 72.4137
L111.6058 72.2927
" />
<path d="M111.6058 72.2927
L111.6663 72.2322
" />
<path d="M111.6663 72.2322
L111.7872 72.1718
" />
<path d="M111.7872 72.1718
L111.9082 72.1718
" />
<path d="M112.1501 72.1718
L112.6339 72.1718
" />
<path d="M112.3315 71.7484
L112.3315 72.8370
" />
<path d="M112.3315 72.8370
L112.3920 72.9580
" />
<path d="M112.3920 72.9580
L112.5130 73.0184
" />
<path d="M112.5130 73.0184
L112.6339 73.0184
" />
<path d="M113.0572 72.8975
L113.1177 72.9580
" />
<path d="M113.1177 72.9580
L113.0572 73.0184
" />
<path d="M113.0572 73.0184
L112.9968 72.9580
" />
<path d="M112.9968 72.9580
L113.0572 72.8975
" />
<path d="M113.0572 72.8975
L113.0572 73.0184
" />
<path d="M113.6620 73.0184
L113.6620 71.7484
" />
<path d="M113.7830 72.5346
L114.1458 73.0184
" />
<path d="M114.1458 72.1718
L113.6620 72.6556
" />
<path d="M114.6901 73.0184
L114.6901 72.1718
" />
<path d="M114.6901 71.7484
L114.6297 71.8089
" />
<path d="M114.6297 71.8089
L114.6901 71.8694
" />
<path d="M114.6901 71.8694
L114.7506 71.8089
" />
<path d="M114.7506 71.8089
L114.6901 71.7484
" />
<path d="M114.6901 71.7484
L114.6901 71.8694
" />
<path d="M115.8392 72.9580
L115.7183 73.0184
" />
<path d="M115.7183 73.0184
L115.4764 73.0184
" />
<path d="M115.4764 73.0184
L115.3554 72.9580
" />
<path d="M115.3554 72.9580
L115.2949 72.8975
" />
<path d="M115.2949 72.8975
L115.2345 72.7765
" />
<path d="M115.2345 72.7765
L115.2345 72.4137
" />
<path d="M115.2345 72.4137
L115.2949 72.2927
" />
<path d="M115.2949 72.2927
L115.3554 72.2322
" />
<path d="M115.3554 72.2322
L115.4764 72.1718
" />
<path d="M115.4764 72.1718
L115.7183 72.1718
" />
<path d="M115.7183 72.1718
L115.8392 72.2322
" />
<path d="M116.9278 73.0184
L116.9278 72.3532
" />
<path d="M116.9278 72.3532
L116.8673 72.2322
" />
<path d="M116.8673 72.2322
L116.7464 72.1718
" />
<path d="M116.7464 72.1718
L116.5045 72.1718
" />
<path d="M116.5045 72.1718
L116.3835 72.2322
" />
<path d="M116.9278 72.9580
L116.8069 73.0184
" />
<path d="M116.8069 73.0184
L116.5045 73.0184
" />
<path d="M116.5045 73.0184
L116.3835 72.9580
" />
<path d="M116.3835 72.9580
L116.3231 72.8370
" />
<path d="M116.3231 72.8370
L116.3231 72.7160
" />
<path d="M116.3231 72.7160
L116.3835 72.5951
" />
<path d="M116.3835 72.5951
L116.5045 72.5346
" />
<path d="M116.5045 72.5346
L116.8069 72.5346
" />
<path d="M116.8069 72.5346
L116.9278 72.4741
" />
<path d="M118.0768 73.0184
L118.0768 71.7484
" />
<path d="M118.0768 72.9580
L117.9559 73.0184
" />
<path d="M117.9559 73.0184
L117.7140 73.0184
" />
<path d="M117.7140 73.0184
L117.5930 72.9580
" />
<path d="M117.5930 72.9580
L117.5325 72.8975
" />
<path d="M117.5325 72.8975
L117.4721 72.7765
" />
<path d="M117.4721 72.7765
L117.4721 72.4137
" />
<path d="M117.4721 72.4137
L117.5325 72.2927
" />
<path d="M117.5325 72.2927
L117.5930 72.2322
" />
<path d="M117.5930 72.2322
L117.7140 72.1718
" />
<path d="M117.7140 72.1718
L117.9559 72.1718
" />
<path d="M117.9559 72.1718
L118.0768 72.2322
" />
<path d="M118.3792 73.1394
L119.3468 73.1394
" />
<path d="M119.5887 72.9580
L119.7096 73.0184
" />
<path d="M119.7096 73.0184
L119.9515 73.0184
" />
<path d="M119.9515 73.0184
L120.0725 72.9580
" />
<path d="M120.0725 72.9580
L120.1329 72.8370
" />
<path d="M120.1329 72.8370
L120.1329 72.7765
" />
<path d="M120.1329 72.7765
L120.0725 72.6556
" />
<path d="M120.0725 72.6556
L119.9515 72.5951
" />
<path d="M119.9515 72.5951
L119.7701 72.5951
" />
<path d="M119.7701 72.5951
L119.6491 72.5346
" />
<path d="M119.6491 72.5346
L119.5887 72.4137
" />
<path d="M119.5887 72.4137
L119.5887 72.3532
" />
<path d="M119.5887 72.3532
L119.6491 72.2322
" />
<path d="M119.6491 72.2322
L119.7701 72.1718
" />
<path d="M119.7701 72.1718
L119.9515 72.1718
" />
<path d="M119.9515 72.1718
L120.0725 72.2322
" />
<path d="M121.2215 72.9580
L121.1006 73.0184
" />
<path d="M121.1006 73.0184
L120.8587 73.0184
" />
<path d="M120.8587 73.0184
L120.7377 72.9580
" />
<path d="M120.7377 72.9580
L120.6772 72.8975
" />
<path d="M120.6772 72.8975
L120.6168 72.7765
" />
<path d="M120.6168 72.7765
L120.6168 72.4137
" />
<path d="M120.6168 72.4137
L120.6772 72.2927
" />
<path d="M120.6772 72.2927
L120.7377 72.2322
" />
<path d="M120.7377 72.2322
L120.8587 72.1718
" />
<path d="M120.8587 72.1718
L121.1006 72.1718
" />
<path d="M121.1006 72.1718
L121.2215 72.2322
" />
<path d="M121.7658 73.0184
L121.7658 71.7484
" />
<path d="M122.3101 73.0184
L122.3101 72.3532
" />
<path d="M122.3101 72.3532
L122.2496 72.2322
" />
<path d="M122.2496 72.2322
L122.1287 72.1718
" />
<path d="M122.1287 72.1718
L121.9473 72.1718
" />
<path d="M121.9473 72.1718
L121.8263 72.2322
" />
<path d="M121.8263 72.2322
L121.7658 72.2927
" />
</g></g>
<g style="fill:#6C71C4; fill-opacity:0.0; 
stroke:#6C71C4; stroke-width:0.1524; stroke-opacity:1; 
stroke-linecap:round; stroke-linejoin:round;">
</g>
<g style="fill:#586E75; fill-opacity:0.0; 
stroke:#586E75; stroke-width:0.1524; stroke-opacity:1; 
stroke-linecap:round; stroke-linejoin:round;">
</g>
<g style="fill:#586E75; fill-opacity:0.0; 
stroke:#586E75; stroke-width:0.4000; stroke-opacity:1; 
stroke-linecap:round; stroke-linejoin:round;">
<rect x="43.180000" y="67.310000" width="12.700000" height="3.810000" rx="0.000000" />
</g>
<g style="fill:#268BD2; fill-opacity:0.0; 
stroke:#268BD2; stroke-width:0.4000; stroke-opacity:1; 
stroke-linecap:round; stroke-linejoin:round;">
</g>
<g style="fill:#268BD2; fill-opacity:0.0; 
stroke:#268BD2; stroke-width:0.3175; stroke-opacity:1; 
stroke-linecap:round; stroke-linejoin:round;">
<text x="43.1800" y="66.5984"
textLength="13.2171" font-size="1.6933" lengthAdjust="spacingAndGlyphs"
text-anchor="start" opacity="0">tmc51x0-spi</text>
<g class="stroked-text"><desc>tmc51x0-spi</desc>
<path d="M43.5097 65.5797
L43.9935 65.5797
" />
<path d="M43.6911 65.1563
L43.6911 66.2449
" />
<path d="M43.6911 66.2449
L43.7516 66.3659
" />
<path d="M43.7516 66.3659
L43.8726 66.4263
" />
<path d="M43.8726 66.4263
L43.9935 66.4263
" />
<path d="M44.4168 66.4263
L44.4168 65.5797
" />
<path d="M44.4168 65.7006
L44.4773 65.6401
" />
<path d="M44.4773 65.6401
L44.5983 65.5797
" />
<path d="M44.5983 65.5797
L44.7797 65.5797
" />
<path d="M44.7797 65.5797
L44.9006 65.6401
" />
<path d="M44.9006 65.6401
L44.9611 65.7611
" />
<path d="M44.9611 65.7611
L44.9611 66.4263
" />
<path d="M44.9611 65.7611
L45.0216 65.6401
" />
<path d="M45.0216 65.6401
L45.1425 65.5797
" />
<path d="M45.1425 65.5797
L45.3240 65.5797
" />
<path d="M45.3240 65.5797
L45.4449 65.6401
" />
<path d="M45.4449 65.6401
L45.5054 65.7611
" />
<path d="M45.5054 65.7611
L45.5054 66.4263
" />
<path d="M46.6544 66.3659
L46.5335 66.4263
" />
<path d="M46.5335 66.4263
L46.2916 66.4263
" />
<path d="M46.2916 66.4263
L46.1706 66.3659
" />
<path d="M46.1706 66.3659
L46.1101 66.3054
" />
<path d="M46.1101 66.3054
L46.0497 66.1844
" />
<path d="M46.0497 66.1844
L46.0497 65.8216
" />
<path d="M46.0497 65.8216
L46.1101 65.7006
" />
<path d="M46.1101 65.7006
L46.1706 65.6401
" />
<path d="M46.1706 65.6401
L46.2916 65.5797
" />
<path d="M46.2916 65.5797
L46.5335 65.5797
" />
<path d="M46.5335 65.5797
L46.6544 65.6401
" />
<path d="M47.8035 65.1563
L47.1987 65.1563
" />
<path d="M47.1987 65.1563
L47.1383 65.7611
" />
<path d="M47.1383 65.7611
L47.1987 65.7006
" />
<path d="M47.1987 65.7006
L47.3197 65.6401
" />
<path d="M47.3197 65.6401
L47.6221 65.6401
" />
<path d="M47.6221 65.6401
L47.7430 65.7006
" />
<path d="M47.7430 65.7006
L47.8035 65.7611
" />
<path d="M47.8035 65.7611
L47.8640 65.8820
" />
<path d="M47.8640 65.8820
L47.8640 66.1844
" />
<path d="M47.8640 66.1844
L47.8035 66.3054
" />
<path d="M47.8035 66.3054
L47.7430 66.3659
" />
<path d="M47.7430 66.3659
L47.6221 66.4263
" />
<path d="M47.6221 66.4263
L47.3197 66.4263
" />
<path d="M47.3197 66.4263
L47.1987 66.3659
" />
<path d="M47.1987 66.3659
L47.1383 66.3054
" />
<path d="M49.0735 66.4263
L48.3478 66.4263
" />
<path d="M48.7106 66.4263
L48.7106 65.1563
" />
<path d="M48.7106 65.1563
L48.5897 65.3378
" />
<path d="M48.5897 65.3378
L48.4687 65.4587
" />
<path d="M48.4687 65.4587
L48.3478 65.5192
" />
<path d="M49.4968 66.4263
L50.1620 65.5797
" />
<path d="M49.4968 65.5797
L50.1620 66.4263
" />
<path d="M50.8877 65.1563
L51.0087 65.1563
" />
<path d="M51.0087 65.1563
L51.1296 65.2168
" />
<path d="M51.1296 65.2168
L51.1901 65.2773
" />
<path d="M51.1901 65.2773
L51.2506 65.3982
" />
<path d="M51.2506 65.3982
L51.3111 65.6401
" />
<path d="M51.3111 65.6401
L51.3111 65.9425
" />
<path d="M51.3111 65.9425
L51.2506 66.1844
" />
<path d="M51.2506 66.1844
L51.1901 66.3054
" />
<path d="M51.1901 66.3054
L51.1296 66.3659
" />
<path d="M51.1296 66.3659
L51.0087 66.4263
" />
<path d="M51.0087 66.4263
L50.8877 66.4263
" />
<path d="M50.8877 66.4263
L50.7668 66.3659
" />
<path d="M50.7668 66.3659
L50.7063 66.3054
" />
<path d="M50.7063 66.3054
L50.6458 66.1844
" />
<path d="M50.6458 66.1844
L50.5854 65.9425
" />
<path d="M50.5854 65.9425
L50.5854 65.6401
" />
<path d="M50.5854 65.6401
L50.6458 65.3982
" />
<path d="M50.6458 65.3982
L50.7063 65.2773
" />
<path d="M50.7063 65.2773
L50.7668 65.2168
" />
<path d="M50.7668 65.2168
L50.8877 65.1563
" />
<path d="M51.8553 65.9425
L52.8230 65.9425
" />
<path d="M53.3673 66.3659
L53.4882 66.4263
" />
<path d="M53.4882 66.4263
L53.7301 66.4263
" />
<path d="M53.7301 66.4263
L53.8511 66.3659
" />
<path d="M53.8511 66.3659
L53.9115 66.2449
" />
<path d="M53.9115 66.2449
L53.9115 66.1844
" />
<path d="M53.9115 66.1844
L53.8511 66.0635
" />
<path d="M53.8511 66.0635
L53.7301 66.0030
" />
<path d="M53.7301 66.0030
L53.5487 66.0030
" />
<path d="M53.5487 66.0030
L53.4277 65.9425
" />
<path d="M53.4277 65.9425
L53.3673 65.8216
" />
<path d="M53.3673 65.8216
L53.3673 65.7611
" />
<path d="M53.3673 65.7611
L53.4277 65.6401
" />
<path d="M53.4277 65.6401
L53.5487 65.5797
" />
<path d="M53.5487 65.5797
L53.7301 65.5797
" />
<path d="M53.7301 65.5797
L53.8511 65.6401
" />
<path d="M54.4558 65.5797
L54.4558 66.8497
" />
<path d="M54.4558 65.6401
L54.5768 65.5797
" />
<path d="M54.5768 65.5797
L54.8187 65.5797
" />
<path d="M54.8187 65.5797
L54.9396 65.6401
" />
<path d="M54.9396 65.6401
L55.0001 65.7006
" />
<path d="M55.0001 65.7006
L55.0606 65.8216
" />
<path d="M55.0606 65.8216
L55.0606 66.1844
" />
<path d="M55.0606 66.1844
L55.0001 66.3054
" />
<path d="M55.0001 66.3054
L54.9396 66.3659
" />
<path d="M54.9396 66.3659
L54.8187 66.4263
" />
<path d="M54.8187 66.4263
L54.5768 66.4263
" />
<path d="M54.5768 66.4263
L54.4558 66.3659
" />
<path d="M55.6048 66.4263
L55.6048 65.5797
" />
<path d="M55.6048 65.1563
L55.5444 65.2168
" />
<path d="M55.5444 65.2168
L55.6048 65.2773
" />
<path d="M55.6048 65.2773
L55.6653 65.2168
" />
<path d="M55.6653 65.2168
L55.6048 65.1563
" />
<path d="M55.6048 65.1563
L55.6048 65.2773
" />
</g></g>
<g style="fill:#6C71C4; fill-opacity:0.0; 
stroke:#6C71C4; stroke-width:0.3175; stroke-opacity:1; 
stroke-linecap:round; stroke-linejoin:round;">
<text x="43.1800" y="72.9746"
textLength="28.0943" font-size="1.6933" lengthAdjust="spacingAndGlyphs"
text-anchor="start" opacity="0">File: tmc51x0-spi.kicad_sch</text>
<g class="stroked-text"><desc>File: tmc51x0-spi.kicad_sch</desc>
<path d="M44.1145 72.3532
L43.6911 72.3532
" />
<path d="M43.6911 73.0184
L43.6911 71.7484
" />
<path d="M43.6911 71.7484
L44.2959 71.7484
" />
<path d="M44.7797 73.0184
L44.7797 72.1718
" />
<path d="M44.7797 71.7484
L44.7193 71.8089
" />
<path d="M44.7193 71.8089
L44.7797 71.8694
" />
<path d="M44.7797 71.8694
L44.8402 71.8089
" />
<path d="M44.8402 71.8089
L44.7797 71.7484
" />
<path d="M44.7797 71.7484
L44.7797 71.8694
" />
<path d="M45.5660 73.0184
L45.4450 72.9580
" />
<path d="M45.4450 72.9580
L45.3845 72.8370
" />
<path d="M45.3845 72.8370
L45.3845 71.7484
" />
<path d="M46.5335 72.9580
L46.4126 73.0184
" />
<path d="M46.4126 73.0184
L46.1707 73.0184
" />
<path d="M46.1707 73.0184
L46.0497 72.9580
" />
<path d="M46.0497 72.9580
L45.9893 72.8370
" />
<path d="M45.9893 72.8370
L45.9893 72.3532
" />
<path d="M45.9893 72.3532
L46.0497 72.2322
" />
<path d="M46.0497 72.2322
L46.1707 72.1718
" />
<path d="M46.1707 72.1718
L46.4126 72.1718
" />
<path d="M46.4126 72.1718
L46.5335 72.2322
" />
<path d="M46.5335 72.2322
L46.5940 72.3532
" />
<path d="M46.5940 72.3532
L46.5940 72.4741
" />
<path d="M46.5940 72.4741
L45.9893 72.5951
" />
<path d="M47.1383 72.8975
L47.1988 72.9580
" />
<path d="M47.1988 72.9580
L47.1383 73.0184
" />
<path d="M47.1383 73.0184
L47.0779 72.9580
" />
<path d="M47.0779 72.9580
L47.1383 72.8975
" />
<path d="M47.1383 72.8975
L47.1383 73.0184
" />
<path d="M47.1383 72.2322
L47.1988 72.2927
" />
<path d="M47.1988 72.2927
L47.1383 72.3532
" />
<path d="M47.1383 72.3532
L47.0779 72.2927
" />
<path d="M47.0779 72.2927
L47.1383 72.2322
" />
<path d="M47.1383 72.2322
L47.1383 72.3532
" />
<path d="M48.5293 72.1718
L49.0131 72.1718
" />
<path d="M48.7107 71.7484
L48.7107 72.8370
" />
<path d="M48.7107 72.8370
L48.7712 72.9580
" />
<path d="M48.7712 72.9580
L48.8922 73.0184
" />
<path d="M48.8922 73.0184
L49.0131 73.0184
" />
<path d="M49.4364 73.0184
L49.4364 72.1718
" />
<path d="M49.4364 72.2927
L49.4969 72.2322
" />
<path d="M49.4969 72.2322
L49.6179 72.1718
" />
<path d="M49.6179 72.1718
L49.7993 72.1718
" />
<path d="M49.7993 72.1718
L49.9202 72.2322
" />
<path d="M49.9202 72.2322
L49.9807 72.3532
" />
<path d="M49.9807 72.3532
L49.9807 73.0184
" />
<path d="M49.9807 72.3532
L50.0412 72.2322
" />
<path d="M50.0412 72.2322
L50.1621 72.1718
" />
<path d="M50.1621 72.1718
L50.3436 72.1718
" />
<path d="M50.3436 72.1718
L50.4645 72.2322
" />
<path d="M50.4645 72.2322
L50.5250 72.3532
" />
<path d="M50.5250 72.3532
L50.5250 73.0184
" />
<path d="M51.6740 72.9580
L51.5531 73.0184
" />
<path d="M51.5531 73.0184
L51.3112 73.0184
" />
<path d="M51.3112 73.0184
L51.1902 72.9580
" />
<path d="M51.1902 72.9580
L51.1297 72.8975
" />
<path d="M51.1297 72.8975
L51.0693 72.7765
" />
<path d="M51.0693 72.7765
L51.0693 72.4137
" />
<path d="M51.0693 72.4137
L51.1297 72.2927
" />
<path d="M51.1297 72.2927
L51.1902 72.2322
" />
<path d="M51.1902 72.2322
L51.3112 72.1718
" />
<path d="M51.3112 72.1718
L51.5531 72.1718
" />
<path d="M51.5531 72.1718
L51.6740 72.2322
" />
<path d="M52.8231 71.7484
L52.2183 71.7484
" />
<path d="M52.2183 71.7484
L52.1579 72.3532
" />
<path d="M52.1579 72.3532
L52.2183 72.2927
" />
<path d="M52.2183 72.2927
L52.3393 72.2322
" />
<path d="M52.3393 72.2322
L52.6417 72.2322
" />
<path d="M52.6417 72.2322
L52.7626 72.2927
" />
<path d="M52.7626 72.2927
L52.8231 72.3532
" />
<path d="M52.8231 72.3532
L52.8836 72.4741
" />
<path d="M52.8836 72.4741
L52.8836 72.7765
" />
<path d="M52.8836 72.7765
L52.8231 72.8975
" />
<path d="M52.8231 72.8975
L52.7626 72.9580
" />
<path d="M52.7626 72.9580
L52.6417 73.0184
" />
<path d="M52.6417 73.0184
L52.3393 73.0184
" />
<path d="M52.3393 73.0184
L52.2183 72.9580
" />
<path d="M52.2183 72.9580
L52.1579 72.8975
" />
<path d="M54.0931 73.0184
L53.3674 73.0184
" />
<path d="M53.7302 73.0184
L53.7302 71.7484
" />
<path d="M53.7302 71.7484
L53.6093 71.9299
" />
<path d="M53.6093 71.9299
L53.4883 72.0508
" />
<path d="M53.4883 72.0508
L53.3674 72.1113
" />
<path d="M54.5164 73.0184
L55.1816 72.1718
" />
<path d="M54.5164 72.1718
L55.1816 73.0184
" />
<path d="M55.9073 71.7484
L56.0283 71.7484
" />
<path d="M56.0283 71.7484
L56.1492 71.8089
" />
<path d="M56.1492 71.8089
L56.2097 71.8694
" />
<path d="M56.2097 71.8694
L56.2702 71.9903
" />
<path d="M56.2702 71.9903
L56.3307 72.2322
" />
<path d="M56.3307 72.2322
L56.3307 72.5346
" />
<path d="M56.3307 72.5346
L56.2702 72.7765
" />
<path d="M56.2702 72.7765
L56.2097 72.8975
" />
<path d="M56.2097 72.8975
L56.1492 72.9580
" />
<path d="M56.1492 72.9580
L56.0283 73.0184
" />
<path d="M56.0283 73.0184
L55.9073 73.0184
" />
<path d="M55.9073 73.0184
L55.7864 72.9580
" />
<path d="M55.7864 72.9580
L55.7259 72.8975
" />
<path d="M55.7259 72.8975
L55.6654 72.7765
" />
<path d="M55.6654 72.7765
L55.6050 72.5346
" />
<path d="M55.6050 72.5346
L55.6050 72.2322
" />
<path d="M55.6050 72.2322
L55.6654 71.9903
" />
<path d="M55.6654 71.9903
L55.7259 71.8694
" />
<path d="M55.7259 71.8694
L55.7864 71.8089
" />
<path d="M55.7864 71.8089
L55.9073 71.7484
" />
<path d="M56.8749 72.5346
L57.8426 72.5346
" />
<path d="M58.3869 72.9580
L58.5078 73.0184
" />
<path d="M58.5078 73.0184
L58.7497 73.0184
" />
<path d="M58.7497 73.0184
L58.8707 72.9580
" />
<path d="M58.8707 72.9580
L58.9311 72.8370
" />
<path d="M58.9311 72.8370
L58.9311 72.7765
" />
<path d="M58.9311 72.7765
L58.8707 72.6556
" />
<path d="M58.8707 72.6556
L58.7497 72.5951
" />
<path d="M58.7497 72.5951
L58.5683 72.5951
" />
<path d="M58.5683 72.5951
L58.4473 72.5346
" />
<path d="M58.4473 72.5346
L58.3869 72.4137
" />
<path d="M58.3869 72.4137
L58.3869 72.3532
" />
<path d="M58.3869 72.3532
L58.4473 72.2322
" />
<path d="M58.4473 72.2322
L58.5683 72.1718
" />
<path d="M58.5683 72.1718
L58.7497 72.1718
" />
<path d="M58.7497 72.1718
L58.8707 72.2322
" />
<path d="M59.4754 72.1718
L59.4754 73.4418
" />
<path d="M59.4754 72.2322
L59.5964 72.1718
" />
<path d="M59.5964 72.1718
L59.8383 72.1718
" />
<path d="M59.8383 72.1718
L59.9592 72.2322
" />
<path d="M59.9592 72.2322
L60.0197 72.2927
" />
<path d="M60.0197 72.2927
L60.0802 72.4137
" />
<path d="M60.0802 72.4137
L60.0802 72.7765
" />
<path d="M60.0802 72.7765
L60.0197 72.8975
" />
<path d="M60.0197 72.8975
L59.9592 72.9580
" />
<path d="M59.9592 72.9580
L59.8383 73.0184
" />
<path d="M59.8383 73.0184
L59.5964 73.0184
" />
<path d="M59.5964 73.0184
L59.4754 72.9580
" />
<path d="M60.6244 73.0184
L60.6244 72.1718
" />
<path d="M60.6244 71.7484
L60.5640 71.8089
" />
<path d="M60.5640 71.8089
L60.6244 71.8694
" />
<path d="M60.6244 71.8694
L60.6849 71.8089
" />
<path d="M60.6849 71.8089
L60.6244 71.7484
" />
<path d="M60.6244 71.7484
L60.6244 71.8694
" />
<path d="M61.2292 72.8975
L61.2897 72.9580
" />
<path d="M61.2897 72.9580
L61.2292 73.0184
" />
<path d="M61.2292 73.0184
L61.1688 72.9580
" />
<path d="M61.1688 72.9580
L61.2292 72.8975
" />
<path d="M61.2292 72.8975
L61.2292 73.0184
" />
<path d="M61.8340 73.0184
L61.8340 71.7484
" />
<path d="M61.9550 72.5346
L62.3178 73.0184
" />
<path d="M62.3178 72.1718
L61.8340 72.6556
" />
<path d="M62.8621 73.0184
L62.8621 72.1718
" />
<path d="M62.8621 71.7484
L62.8017 71.8089
" />
<path d="M62.8017 71.8089
L62.8621 71.8694
" />
<path d="M62.8621 71.8694
L62.9226 71.8089
" />
<path d="M62.9226 71.8089
L62.8621 71.7484
" />
<path d="M62.8621 71.7484
L62.8621 71.8694
" />
<path d="M64.0112 72.9580
L63.8903 73.0184
" />
<path d="M63.8903 73.0184
L63.6484 73.0184
" />
<path d="M63.6484 73.0184
L63.5274 72.9580
" />
<path d="M63.5274 72.9580
L63.4669 72.8975
" />
<path d="M63.4669 72.8975
L63.4065 72.7765
" />
<path d="M63.4065 72.7765
L63.4065 72.4137
" />
<path d="M63.4065 72.4137
L63.4669 72.2927
" />
<path d="M63.4669 72.2927
L63.5274 72.2322
" />
<path d="M63.5274 72.2322
L63.6484 72.1718
" />
<path d="M63.6484 72.1718
L63.8903 72.1718
" />
<path d="M63.8903 72.1718
L64.0112 72.2322
" />
<path d="M65.0998 73.0184
L65.0998 72.3532
" />
<path d="M65.0998 72.3532
L65.0393 72.2322
" />
<path d="M65.0393 72.2322
L64.9184 72.1718
" />
<path d="M64.9184 72.1718
L64.6765 72.1718
" />
<path d="M64.6765 72.1718
L64.5555 72.2322
" />
<path d="M65.0998 72.9580
L64.9789 73.0184
" />
<path d="M64.9789 73.0184
L64.6765 73.0184
" />
<path d="M64.6765 73.0184
L64.5555 72.9580
" />
<path d="M64.5555 72.9580
L64.4951 72.8370
" />
<path d="M64.4951 72.8370
L64.4951 72.7160
" />
<path d="M64.4951 72.7160
L64.5555 72.5951
" />
<path d="M64.5555 72.5951
L64.6765 72.5346
" />
<path d="M64.6765 72.5346
L64.9789 72.5346
" />
<path d="M64.9789 72.5346
L65.0998 72.4741
" />
<path d="M66.2488 73.0184
L66.2488 71.7484
" />
<path d="M66.2488 72.9580
L66.1279 73.0184
" />
<path d="M66.1279 73.0184
L65.8860 73.0184
" />
<path d="M65.8860 73.0184
L65.7650 72.9580
" />
<path d="M65.7650 72.9580
L65.7045 72.8975
" />
<path d="M65.7045 72.8975
L65.6441 72.7765
" />
<path d="M65.6441 72.7765
L65.6441 72.4137
" />
<path d="M65.6441 72.4137
L65.7045 72.2927
" />
<path d="M65.7045 72.2927
L65.7650 72.2322
" />
<path d="M65.7650 72.2322
L65.8860 72.1718
" />
<path d="M65.8860 72.1718
L66.1279 72.1718
" />
<path d="M66.1279 72.1718
L66.2488 72.2322
" />
<path d="M66.5512 73.1394
L67.5188 73.1394
" />
<path d="M67.7607 72.9580
L67.8816 73.0184
" />
<path d="M67.8816 73.0184
L68.1235 73.0184
" />
<path d="M68.1235 73.0184
L68.2445 72.9580
" />
<path d="M68.2445 72.9580
L68.3049 72.8370
" />
<path d="M68.3049 72.8370
L68.3049 72.7765
" />
<path d="M68.3049 72.7765
L68.2445 72.6556
" />
<path d="M68.2445 72.6556
L68.1235 72.5951
" />
<path d="M68.1235 72.5951
L67.9421 72.5951
" />
<path d="M67.9421 72.5951
L67.8211 72.5346
" />
<path d="M67.8211 72.5346
L67.7607 72.4137
" />
<path d="M67.7607 72.4137
L67.7607 72.3532
" />
<path d="M67.7607 72.3532
L67.8211 72.2322
" />
<path d="M67.8211 72.2322
L67.9421 72.1718
" />
<path d="M67.9421 72.1718
L68.1235 72.1718
" />
<path d="M68.1235 72.1718
L68.2445 72.2322
" />
<path d="M69.3935 72.9580
L69.2726 73.0184
" />
<path d="M69.2726 73.0184
L69.0307 73.0184
" />
<path d="M69.0307 73.0184
L68.9097 72.9580
" />
<path d="M68.9097 72.9580
L68.8492 72.8975
" />
<path d="M68.8492 72.8975
L68.7888 72.7765
" />
<path d="M68.7888 72.7765
L68.7888 72.4137
" />
<path d="M68.7888 72.4137
L68.8492 72.2927
" />
<path d="M68.8492 72.2927
L68.9097 72.2322
" />
<path d="M68.9097 72.2322
L69.0307 72.1718
" />
<path d="M69.0307 72.1718
L69.2726 72.1718
" />
<path d="M69.2726 72.1718
L69.3935 72.2322
" />
<path d="M69.9378 73.0184
L69.9378 71.7484
" />
<path d="M70.4821 73.0184
L70.4821 72.3532
" />
<path d="M70.4821 72.3532
L70.4216 72.2322
" />
<path d="M70.4216 72.2322
L70.3007 72.1718
" />
<path d="M70.3007 72.1718
L70.1193 72.1718
" />
<path d="M70.1193 72.1718
L69.9983 72.2322
" />
<path d="M69.9983 72.2322
L69.9378 72.2927
" />
</g></g> 
</svg>
